<svg xmlns="http://www.w3.org/2000/svg" width="88" height="88" viewBox="0 0 88 88">
  <g id="Grupo_983799" data-name="Grupo 983799" transform="translate(-9829 10304)">
    <g id="Grupo_960935" data-name="Grupo 960935" transform="translate(9543 -11879)">
      <circle id="Elipse_4813" data-name="Elipse 4813" cx="44" cy="44" r="44" transform="translate(286 1575)" fill="#0e494d"/>
    </g>
    <g id="nevera" transform="translate(9749.076 -10289)">
      <g id="Grupo_983798" data-name="Grupo 983798" transform="translate(106.924)">
        <g id="Grupo_983797" data-name="Grupo 983797" transform="translate(0)">
          <path id="Trazado_728178" data-name="Trazado 728178" d="M139.782,6.525a.917.917,0,0,0-.917.917V21.328H108.757V4.51a2.68,2.68,0,0,1,2.677-2.676h24.755a2.679,2.679,0,0,1,2.676,2.676.917.917,0,0,0,1.834,0A4.515,4.515,0,0,0,136.189,0H111.434a4.515,4.515,0,0,0-4.51,4.51V49.57a4.515,4.515,0,0,0,2.679,4.12v1.926A2.386,2.386,0,0,0,111.986,58h1.956a2.386,2.386,0,0,0,2.384-2.384V54.081h1.208a.917.917,0,1,0,0-1.834h-6.118a2.679,2.679,0,0,1-2.658-2.676V26.218h7.874a2.386,2.386,0,0,0,2.384-2.384v-.672h19.851V49.57a2.679,2.679,0,0,1-2.658,2.676H120.549a.917.917,0,1,0,0,1.834H131.3v1.536A2.386,2.386,0,0,0,133.681,58h1.956a2.386,2.386,0,0,0,2.384-2.384V53.69a4.515,4.515,0,0,0,2.679-4.12V7.442A.917.917,0,0,0,139.782,6.525ZM111.436,54.08h3.056v1.536a.551.551,0,0,1-.55.55h-1.956a.551.551,0,0,1-.55-.55V54.08Zm5.745-30.247a.551.551,0,0,1-.55.55h-7.874V23.162h8.424v.672Zm19.005,31.783a.551.551,0,0,1-.55.55h-1.956a.551.551,0,0,1-.55-.55V54.081h3.056v1.536Z" transform="translate(-106.924)" fill="#fff"/>
          <path id="Trazado_728179" data-name="Trazado 728179" d="M355.277,38.736V51.414a.917.917,0,0,0,1.834,0V38.736a.917.917,0,0,0-1.834,0Z" transform="translate(-327.143 -33.535)" fill="#fff"/>
          <path id="Trazado_728180" data-name="Trazado 728180" d="M355.277,410.184a.917.917,0,0,0,1.834,0v-.616a.917.917,0,0,0-1.834,0Z" transform="translate(-327.143 -362.359)" fill="#fff"/>
          <path id="Trazado_728181" data-name="Trazado 728181" d="M356.194,245.807a.917.917,0,0,0,.917-.917V227.207a.917.917,0,1,0-1.834,0V244.89A.917.917,0,0,0,356.194,245.807Z" transform="translate(-327.143 -200.656)" fill="#fff"/>
          <path id="Trazado_728182" data-name="Trazado 728182" d="M147.364,64.366a.917.917,0,0,0-.917.917v7.546a.917.917,0,0,0,1.834,0V66.2h.55a.917.917,0,1,0,0-1.834Z" transform="translate(-141.97 -57.075)" fill="#fff"/>
        </g>
      </g>
    </g>
  </g>
</svg>
