<svg xmlns="http://www.w3.org/2000/svg" width="88" height="88" viewBox="0 0 88 88">
  <g id="Grupo_983801" data-name="Grupo 983801" transform="translate(-10148 10280)">
    <g id="Grupo_960937" data-name="Grupo 960937" transform="translate(9862 -11855)">
      <circle id="Elipse_4813" data-name="Elipse 4813" cx="44" cy="44" r="44" transform="translate(286 1575)" fill="#0e494d"/>
    </g>
    <g id="Grupo_983800" data-name="Grupo 983800" transform="translate(-488 89)">
      <path id="Trazado_728183" data-name="Trazado 728183" d="M37.081,2.417a1,1,0,0,0-1,1V60.583a1,1,0,0,0,2,0V3.417a1,1,0,0,0-1-1Z" transform="translate(10647.919 -10357.417)" fill="#fff"/>
      <path id="Trazado_728184" data-name="Trazado 728184" d="M45.541,16.615c-.23,0-.46,0-.694.016a15.707,15.707,0,0,0-2.5.32,1,1,0,0,0-.368,1.8,15.665,15.665,0,0,1-.909,26.223,1,1,0,0,0,.236,1.815,14.936,14.936,0,0,0,4.207.6q.35,0,.7-.016a15.384,15.384,0,0,0-.675-30.752Zm9.868,24.418a13.3,13.3,0,0,1-9.283,4.337q-.309.013-.613.014h0a13.292,13.292,0,0,1-1.443-.078,17.672,17.672,0,0,0,.936-26.679,13.382,13.382,0,0,1,10.4,22.406Z" transform="translate(10647.919 -10357.417)" fill="#fff"/>
      <path id="Trazado_728185" data-name="Trazado 728185" d="M19.038,22.2a9.8,9.8,0,1,0,9.8,9.8A9.806,9.806,0,0,0,19.038,22.2Zm0,17.592a7.8,7.8,0,1,1,7.8-7.8A7.805,7.805,0,0,1,19.038,39.8Z" transform="translate(10647.919 -10357.417)" fill="#fff"/>
      <path id="Trazado_728186" data-name="Trazado 728186" d="M19.038,21.994a1,1,0,0,0,1-1V17.043a1,1,0,0,0-2,0v3.951A1,1,0,0,0,19.038,21.994Z" transform="translate(10647.919 -10357.417)" fill="#fff"/>
      <path id="Trazado_728187" data-name="Trazado 728187" d="M19.038,42.006a1,1,0,0,0-1,1v3.951a1,1,0,0,0,2,0V43.006A1,1,0,0,0,19.038,42.006Z" transform="translate(10647.919 -10357.417)" fill="#fff"/>
      <path id="Trazado_728188" data-name="Trazado 728188" d="M33.994,31H30.043a1,1,0,0,0,0,2h3.951a1,1,0,0,0,0-2Z" transform="translate(10647.919 -10357.417)" fill="#fff"/>
      <path id="Trazado_728189" data-name="Trazado 728189" d="M9.032,32a1,1,0,0,0-1-1H4.081a1,1,0,0,0,0,2H8.032A1,1,0,0,0,9.032,32Z" transform="translate(10647.919 -10357.417)" fill="#fff"/>
      <path id="Trazado_728190" data-name="Trazado 728190" d="M10.727,24.715a1,1,0,1,0,1.45-1.378L9.454,20.474A1,1,0,0,0,8,21.853Z" transform="translate(10647.919 -10357.417)" fill="#fff"/>
      <path id="Trazado_728191" data-name="Trazado 728191" d="M27.348,39.285a1,1,0,0,0-1.45,1.379l2.723,2.863a1,1,0,1,0,1.45-1.378Z" transform="translate(10647.919 -10357.417)" fill="#fff"/>
      <path id="Trazado_728192" data-name="Trazado 728192" d="M10.727,39.287,8,42.148a1,1,0,1,0,1.449,1.378l2.723-2.861a1,1,0,1,0-1.449-1.378Z" transform="translate(10647.919 -10357.417)" fill="#fff"/>
      <path id="Trazado_728193" data-name="Trazado 728193" d="M26.624,25.025a1,1,0,0,0,.725-.311l2.723-2.863a1,1,0,0,0-1.45-1.379L25.9,23.335a1,1,0,0,0,.036,1.414.987.987,0,0,0,.689.276Z" transform="translate(10647.919 -10357.417)" fill="#fff"/>
    </g>
  </g>
</svg>
