<svg xmlns="http://www.w3.org/2000/svg" xmlns:xlink="http://www.w3.org/1999/xlink" width="88" height="88" viewBox="0 0 88 88">
  <defs>
    <clipPath id="clip-path">
      <path id="path5769" d="M0-682.665H48.97v48.97H0Z" transform="translate(0 682.665)" fill="#fff" stroke="#707070" stroke-width="1.333"/>
    </clipPath>
  </defs>
  <g id="Grupo_983894" data-name="Grupo 983894" transform="translate(-10459 10280)">
    <g id="Grupo_983893" data-name="Grupo 983893" transform="translate(311)">
      <g id="Grupo_960937" data-name="Grupo 960937" transform="translate(9862 -11855)">
        <circle id="Elipse_4813" data-name="Elipse 4813" cx="44" cy="44" r="44" transform="translate(286 1575)" fill="#0e494d"/>
      </g>
    </g>
    <g id="g5763" transform="translate(10479 -9577.335)">
      <g id="g5765" transform="translate(0 -682.665)">
        <g id="g5767" clip-path="url(#clip-path)">
          <g id="g5773" transform="translate(7.838 0)">
            <path id="path5775" d="M-419.514-292.791h-5.669a.717.717,0,0,1-.717-.717.717.717,0,0,1,.717-.717h5.669a.717.717,0,0,1,.717.717A.717.717,0,0,1-419.514-292.791Zm0-31.77a.717.717,0,0,1-.717-.717v-14.641a.717.717,0,0,1,.717-.717.717.717,0,0,1,.717.717v14.641A.717.717,0,0,1-419.514-324.561Zm-31.7,0a.717.717,0,0,1-.717-.717v-14.641a.717.717,0,0,1,.717-.717h5.148a.717.717,0,0,1,.717.717.717.717,0,0,1-.717.717H-450.5v13.923A.717.717,0,0,1-451.215-324.561Z" transform="translate(451.932 340.637)" fill="#fff"/>
          </g>
        </g>
      </g>
      <g id="g5777" transform="translate(21.24 -643.076)">
        <path id="path5779" d="M-4.712-8.565H-9.283A.717.717,0,0,1-10-9.283.717.717,0,0,1-9.283-10h4.571a.717.717,0,0,1,.717.717A.717.717,0,0,1-4.712-8.565Z" transform="translate(10 10)" fill="#fff"/>
      </g>
      <g id="g5781" transform="translate(18.694 -639.874)">
        <path id="path5783" d="M.711-8.565H-9.283A.717.717,0,0,1-10-9.283.717.717,0,0,1-9.283-10H.711a.717.717,0,0,1,.717.717A.717.717,0,0,1,.711-8.565Z" transform="translate(10 10)" fill="#fff"/>
      </g>
      <g id="g5785" transform="translate(0 -682.665)">
        <g id="g5787" clip-path="url(#clip-path)">
          <g id="g5793" transform="translate(0.011 33.11)">
            <path id="path5795" d="M-13.02-99.468a1.736,1.736,0,0,1-.348-.036l-4.047-.992-4.018.986a1.8,1.8,0,0,1-.376.042,1.463,1.463,0,0,1-1.5-1.394l-.048-1.631-.092-2.337-1.244-1.82-1.015-1.5a1.484,1.484,0,0,1-.186-1.266,1.512,1.512,0,0,1,.9-.924l3.908-1.373,2.574-3.083a1.471,1.471,0,0,1,1.1-.536,1.461,1.461,0,0,1,1.079.515l2.59,3.1,3.875,1.361a1.533,1.533,0,0,1,.935.936,1.465,1.465,0,0,1-.169,1.24l-.922,1.364-1.357,1.978-.09,2.344-.046,1.587A1.477,1.477,0,0,1-13.02-99.468Zm-4.4-2.484a.717.717,0,0,1,.171.021l4.191,1.028h.033a.109.109,0,0,0,.051-.009.165.165,0,0,0,.017-.069l.044-1.554.1-2.558a.717.717,0,0,1,.125-.379l1.472-2.145.9-1.335c.01-.012-.014-.034-.069-.056l-4.029-1.414a.717.717,0,0,1-.314-.218l-2.692-3.228-.013.014-2.684,3.215a.717.717,0,0,1-.313.217l-4.061,1.426a.171.171,0,0,0-.049.037l1.028,1.5,1.36,1.988a.717.717,0,0,1,.125.377l.1,2.551.046,1.6.065.038,1.65-.4,2.572-.632A.717.717,0,0,1-17.416-101.951Z" transform="translate(25.961 115.328)" fill="#fff"/>
          </g>
          <g id="g5797" transform="translate(19.071 23.091)">
            <path id="path5799" d="M-7.64-5.725a.717.717,0,0,1-.218-.034.717.717,0,0,1-.454-.431l-1.646-4.384a.717.717,0,0,1,.419-.924.717.717,0,0,1,.924.419l1.326,3.532,1.475-1-2.01-1.877a.717.717,0,0,1-.035-1.014.717.717,0,0,1,1.014-.035l2.668,2.492a.717.717,0,0,1,.226.58.717.717,0,0,1-.313.538L-7.238-5.848A.717.717,0,0,1-7.64-5.725Z" transform="translate(10.003 11.663)" fill="#fff"/>
          </g>
          <g id="g5801" transform="translate(23.69 23.091)">
            <path id="path5803" d="M-70.714-5.725a.717.717,0,0,1-.4-.123L-74.087-7.86A.717.717,0,0,1-74.4-8.4a.717.717,0,0,1,.226-.58l2.668-2.492a.717.717,0,0,1,1.014.035.717.717,0,0,1-.035,1.014l-2.01,1.878,1.473,1,1.328-3.532a.717.717,0,0,1,.924-.419.717.717,0,0,1,.419.924L-70.042-6.19a.717.717,0,0,1-.454.431A.717.717,0,0,1-70.714-5.725Z" transform="translate(74.403 11.663)" fill="#fff"/>
          </g>
          <g id="g5805" transform="translate(25.491 26.8)">
            <path id="path5807" d="M40.909-75.577a.717.717,0,0,1-.717-.717v-5.178a.717.717,0,0,1,.717-.717.717.717,0,0,1,.717.717v5.178A.717.717,0,0,1,40.909-75.577Z" transform="translate(-40.192 82.19)" fill="#fff"/>
          </g>
          <g id="g5809" transform="translate(18.694 9.047)">
            <path id="path5811" d="M-73.941-10a5.72,5.72,0,0,1,5.714,5.714c0,5.746-2.962,8.363-5.714,8.363s-5.714-2.617-5.714-8.363A5.72,5.72,0,0,1-73.941-10Zm0,12.642c2.061,0,4.279-2.168,4.279-6.928a4.284,4.284,0,0,0-4.279-4.279A4.284,4.284,0,0,0-78.22-4.286C-78.22.474-76,2.642-73.941,2.642Z" transform="translate(79.654 10)" fill="#fff"/>
          </g>
          <g id="g5813" transform="translate(19.038 12.225)">
            <path id="path5815" d="M-3.06-6.465A11.221,11.221,0,0,1-9.725-8.718a.717.717,0,0,1-.124-1.007.717.717,0,0,1,1.007-.124,9.239,9.239,0,0,0,8.9,1.309A.717.717,0,0,1,1-8.176a.717.717,0,0,1-.363.947A9.043,9.043,0,0,1-3.06-6.465Z" transform="translate(10 10)" fill="#fff"/>
          </g>
          <g id="g5817" transform="translate(36.096 34.467)">
            <path id="path5819" d="M-19.484-21.494a3.77,3.77,0,0,1,2.732,1.174l5.363,5.688a3.758,3.758,0,0,1-.154,5.305,3.74,3.74,0,0,1-2.575,1.019A3.768,3.768,0,0,1-16.85-9.48l-5.363-5.689a3.726,3.726,0,0,1-1.018-2.686,3.724,3.724,0,0,1,1.173-2.62A3.733,3.733,0,0,1-19.484-21.494Zm5.365,11.753a2.31,2.31,0,0,0,1.591-.628,2.321,2.321,0,0,0,.095-3.277L-17.8-19.335a2.3,2.3,0,0,0-1.688-.724,2.3,2.3,0,0,0-1.589.629,2.3,2.3,0,0,0-.723,1.619,2.3,2.3,0,0,0,.628,1.659l5.363,5.689A2.3,2.3,0,0,0-14.119-9.741Z" transform="translate(23.233 21.494)" fill="#fff"/>
          </g>
          <g id="g5821" transform="translate(38.574 37.171)">
            <path id="path5823" d="M-66.434-10h.021a.717.717,0,0,1,.5.225l2.055,2.18a.717.717,0,0,1-.03,1.014L-68.3-2.417a.717.717,0,0,1-1.014-.03l-2.055-2.177a.717.717,0,0,1-.2-.513.717.717,0,0,1,.225-.5L-66.926-9.8A.717.717,0,0,1-66.434-10Zm1.041,2.867-1.071-1.136-3.373,3.182,1.07,1.134Z" transform="translate(71.568 10)" fill="#fff"/>
          </g>
          <g id="g5825" transform="translate(33.895 32.038)">
            <path id="path5827" d="M-47.593-47.861a.715.715,0,0,1-.514-.217l-2.96-3.037a.717.717,0,0,1,.013-1.014.717.717,0,0,1,1.014.013l2.96,3.037a.717.717,0,0,1-.013,1.014A.715.715,0,0,1-47.593-47.861Z" transform="translate(51.271 52.332)" fill="#fff"/>
          </g>
          <g id="g5829" transform="translate(7.207 2.695)">
            <path id="path5831" d="M-222.59-435.192a17.221,17.221,0,0,1-17.2-17.2,17.221,17.221,0,0,1,17.2-17.2,17.221,17.221,0,0,1,17.2,17.2A17.221,17.221,0,0,1-222.59-435.192Zm0-32.968a15.784,15.784,0,0,0-15.766,15.767,15.784,15.784,0,0,0,15.766,15.767,15.784,15.784,0,0,0,15.766-15.767A15.784,15.784,0,0,0-222.59-468.16Z" transform="translate(239.791 469.595)" fill="#fff"/>
          </g>
          <g id="g5833" transform="translate(10.766 6.255)">
            <path id="path5835" d="M-176.525-10A13.657,13.657,0,0,1-162.884,3.642a13.657,13.657,0,0,1-13.641,13.642A13.657,13.657,0,0,1-190.166,3.642,13.657,13.657,0,0,1-176.525-10Zm0,25.849A12.221,12.221,0,0,0-164.318,3.642,12.221,12.221,0,0,0-176.525-8.565,12.221,12.221,0,0,0-188.732,3.642,12.221,12.221,0,0,0-176.525,15.849Z" transform="translate(190.166 10)" fill="#fff"/>
          </g>
          <g id="g5837" transform="translate(17.102 20.624)">
            <path id="path5839" d="M40.343-109.538a.717.717,0,0,1-.716-.688,4.9,4.9,0,0,0-4.844-4.648h-.8a.717.717,0,0,1-.717-.717v-2.467a.717.717,0,0,1,.717-.717.717.717,0,0,1,.717.717v1.75h.082a6.267,6.267,0,0,1,6.277,6.023.717.717,0,0,1-.687.746ZM24.763-114.3a.665.665,0,0,1-.64-.4c-.3-.589-.067-.766,1.451-1.916.611-.463,1.471-1.114,2.633-2.017a.717.717,0,0,1,.755-.078.717.717,0,0,1,.4.644v2.467a.717.717,0,0,1-.717.717h-.8a8.4,8.4,0,0,0-2.412.441A2.428,2.428,0,0,1,24.763-114.3Zm3.168-2.3-.388.3q.152-.007.306-.007h.082Z" transform="translate(-24.009 118.776)" fill="#fff"/>
          </g>
        </g>
      </g>
    </g>
  </g>
</svg>
