<svg xmlns="http://www.w3.org/2000/svg" width="131" height="131" viewBox="0 0 131 131">
  <g id="Grupo_983872" data-name="Grupo 983872" transform="translate(-420 -775)">
    <g id="Grupo_983758" data-name="Grupo 983758" transform="translate(0 -134)">
      <g id="Rectángulo_344207" data-name="Rectángulo 344207" transform="translate(420 909)" fill="none" stroke="#0e494d" stroke-width="3">
        <rect width="131" height="131" rx="13" stroke="none"/>
        <rect x="1.5" y="1.5" width="128" height="128" rx="11.5" fill="none"/>
      </g>
    </g>
    <g id="_x34_3_Decree" transform="translate(403.453 782.274)">
      <g id="Grupo_983809" data-name="Grupo 983809" transform="translate(37.547 6.726)">
        <g id="Grupo_983808" data-name="Grupo 983808" transform="translate(0 0)">
          <path id="Trazado_728303" data-name="Trazado 728303" d="M276.54,165.454H237.025a1.067,1.067,0,0,0,0,2.134H276.54a1.067,1.067,0,0,0,0-2.134Z" transform="translate(-195.195 -132.844)" fill="#0e494d"/>
          <path id="Trazado_728304" data-name="Trazado 728304" d="M276.54,211.937H237.025a1.067,1.067,0,1,0,0,2.134H276.54a1.067,1.067,0,1,0,0-2.134Z" transform="translate(-195.195 -169.777)" fill="#0e494d"/>
          <path id="Trazado_728305" data-name="Trazado 728305" d="M276.54,258.42H237.025a1.067,1.067,0,1,0,0,2.134H276.54a1.067,1.067,0,1,0,0-2.134Z" transform="translate(-195.195 -206.71)" fill="#0e494d"/>
          <path id="Trazado_728306" data-name="Trazado 728306" d="M276.54,304.9H237.025a1.067,1.067,0,1,0,0,2.134H276.54a1.067,1.067,0,0,0,0-2.134Z" transform="translate(-195.195 -243.643)" fill="#0e494d"/>
          <path id="Trazado_728307" data-name="Trazado 728307" d="M276.54,351.386H237.025a1.067,1.067,0,1,0,0,2.134H276.54a1.067,1.067,0,1,0,0-2.134Z" transform="translate(-195.195 -280.576)" fill="#0e494d"/>
          <path id="Trazado_728308" data-name="Trazado 728308" d="M276.54,397.868H237.025a1.067,1.067,0,0,0,0,2.134H276.54a1.067,1.067,0,0,0,0-2.134Z" transform="translate(-195.195 -317.509)" fill="#0e494d"/>
          <path id="Trazado_728309" data-name="Trazado 728309" d="M256.783,444.351H237.025a1.067,1.067,0,1,0,0,2.134h19.758a1.067,1.067,0,0,0,0-2.134Z" transform="translate(-195.195 -354.442)" fill="#0e494d"/>
          <path id="Trazado_728310" data-name="Trazado 728310" d="M117.887,28.95H93.9V11.41a4.69,4.69,0,0,0-4.684-4.684H42.231a4.69,4.69,0,0,0-4.684,4.684V65.856a9.43,9.43,0,0,0,9.421,9.421h24v29.191a4.69,4.69,0,0,0,4.684,4.684h46.977a4.69,4.69,0,0,0,4.684-4.684v-66.1A9.43,9.43,0,0,0,117.887,28.95ZM45.965,15.774H85.485a1.067,1.067,0,0,1,0,2.134H45.965a1.067,1.067,0,1,1,0-2.134Zm0,9.827a1.067,1.067,0,1,1,0-2.134H85.485a1.067,1.067,0,0,1,0,2.134Zm25,47.542H52.943a9.386,9.386,0,0,0,3.446-7.287V38.307a7.172,7.172,0,0,1,7.287-7.223,7.3,7.3,0,0,1,7.287,7.287Zm54.211,31.325a2.55,2.55,0,0,1-2.55,2.55H75.647a2.55,2.55,0,0,1-2.55-2.55V38.307a9.416,9.416,0,0,0-3.382-7.223h48.172a7.29,7.29,0,0,1,7.287,7.287Z" transform="translate(-37.547 -6.726)" fill="#0e494d"/>
        </g>
      </g>
    </g>
  </g>
</svg>
