<svg xmlns="http://www.w3.org/2000/svg" xmlns:xlink="http://www.w3.org/1999/xlink" width="88" height="88" viewBox="0 0 88 88">
  <defs>
    <clipPath id="clip-path">
      <rect id="Rectángulo_344232" data-name="Rectángulo 344232" width="56.909" height="56.901" fill="#fff"/>
    </clipPath>
  </defs>
  <g id="Grupo_983765" data-name="Grupo 983765" transform="translate(-441 -848)">
    <g id="Grupo_983746" data-name="Grupo 983746" transform="translate(155 -727)">
      <circle id="Elipse_4813" data-name="Elipse 4813" cx="44" cy="44" r="44" transform="translate(286 1575)" fill="#0e494d"/>
    </g>
    <g id="Grupo_983764" data-name="Grupo 983764" transform="translate(457 864)">
      <g id="Grupo_983763" data-name="Grupo 983763" clip-path="url(#clip-path)">
        <path id="Trazado_728137" data-name="Trazado 728137" d="M8.5,4.744c.242-3.16,1.442-4.68,3.7-4.736A3.722,3.722,0,0,1,15.264,1.4a4.414,4.414,0,0,1,.847,3.313h1.9A4.15,4.15,0,0,1,19.658.679a3.7,3.7,0,0,1,2.525-.66C24.34.228,25.4,1.658,25.638,4.7h1.87A4.175,4.175,0,0,1,28.883.874,3.648,3.648,0,0,1,31.4.008a3.737,3.737,0,0,1,2.9,1.487,4.64,4.64,0,0,1,.784,3.249h.684q3.318,0,6.637,0c.888,0,1.21.325,1.211,1.217q0,7.319,0,14.636v.766c.207-.183.349-.3.476-.423q2.1-2.093,4.191-4.189c.806-.807,1.07-.828,2.024-.1.9-.912,1.815-1.835,2.73-2.754.836-.84,1.184-.841,2.012-.014.49.488.986.97,1.464,1.469a.958.958,0,0,1-.007,1.548c-.982,1-1.979,1.977-2.962,2.957.709,1.041.69,1.218-.184,2.093q-4.672,4.672-9.35,9.337a1.253,1.253,0,0,0-.4.981q.018,11.614.009,23.228c0,1.136-.263,1.4-1.383,1.4H1.352C.273,56.9,0,56.623,0,55.526q0-24.71,0-49.42C0,5.017.274,4.745,1.364,4.744H8.5ZM31.857,33.176H25.634V31.333h6.642v1.459c1.508-1.518,2.908-2.938,4.327-4.341a1.185,1.185,0,0,0,.389-.927q-.017-10.134-.009-20.269c0-.191-.017-.382-.026-.572H29.383V9.448H27.477V6.672H19.9V9.439H18V6.682H10.4V9.451H8.515V6.67H1.933V50.22H36.947V38.365c-1.3,1.3-2.511,2.536-3.754,3.74a2.942,2.942,0,0,1-1.033.645c-1.637.577-3.287,1.117-4.939,1.649a3.486,3.486,0,0,1-1.041.167q-6.608.016-13.217.007h-.6v-1.9h.675q5.572,0,11.143,0c.55,0,1.239.166,1.61-.1s.432-.971.609-1.49c.243-.714.468-1.434.727-2.234H19V36.986h.668c2.627,0,5.255.005,7.882-.008a1.081,1.081,0,0,0,.691-.2c1.178-1.139,2.327-2.308,3.618-3.6m9.841.406c-.89.9-1.653,1.7-2.449,2.47a1.167,1.167,0,0,0-.375.933q.017,6.875.007,13.75c0,1.168-.256,1.424-1.423,1.424H1.927v2.808H41.7Zm4.808-12.171L29.966,37.944l2.266,2.264L48.769,23.673l-2.263-2.261m-7.591,4.743c.86-.869,1.62-1.661,2.408-2.423a1.23,1.23,0,0,0,.412-.976q-.021-7.728-.009-15.457v-.61H38.915ZM14.187,4.715A2.3,2.3,0,0,0,13.3,2.178a1.768,1.768,0,0,0-2.011.039,2.325,2.325,0,0,0-.825,2.5Zm9.488.008c.114-1.069.047-2.019-.963-2.585a1.768,1.768,0,0,0-2.007.126,2.356,2.356,0,0,0-.753,2.459Zm5.758-.013h3.724a2.3,2.3,0,0,0-.891-2.533,1.771,1.771,0,0,0-2.012.042,2.32,2.32,0,0,0-.822,2.491M47.945,19.838,50.3,22.189l1.318-1.259-2.356-2.361-1.317,1.269m6.189-4.188-2.441,2.441.372.416,2.454-2.448-.386-.408M28.055,42.129l2.272-.765-1.5-1.557-.77,2.322" transform="translate(0 0)" fill="#fff"/>
        <rect id="Rectángulo_344219" data-name="Rectángulo 344219" width="14.158" height="1.824" transform="translate(12.366 25.638)" fill="#fff"/>
        <rect id="Rectángulo_344220" data-name="Rectángulo 344220" width="12.253" height="1.827" transform="translate(10.46 19.946)" fill="#fff"/>
        <rect id="Rectángulo_344221" data-name="Rectángulo 344221" width="10.377" height="1.818" transform="translate(6.669 37.031)" fill="#fff"/>
        <rect id="Rectángulo_344222" data-name="Rectángulo 344222" width="9.414" height="1.841" transform="translate(14.265 31.33)" fill="#fff"/>
        <rect id="Rectángulo_344223" data-name="Rectángulo 344223" width="8.46" height="1.823" transform="translate(17.118 14.269)" fill="#fff"/>
        <rect id="Rectángulo_344224" data-name="Rectángulo 344224" width="7.53" height="1.812" transform="translate(24.669 19.965)" fill="#fff"/>
        <rect id="Rectángulo_344225" data-name="Rectángulo 344225" width="5.625" height="1.824" transform="translate(6.665 31.338)" fill="#fff"/>
        <rect id="Rectángulo_344226" data-name="Rectángulo 344226" width="4.667" height="1.824" transform="translate(27.527 14.258)" fill="#fff"/>
        <rect id="Rectángulo_344227" data-name="Rectángulo 344227" width="3.74" height="1.803" transform="translate(6.651 25.651)" fill="#fff"/>
        <rect id="Rectángulo_344228" data-name="Rectángulo 344228" width="3.715" height="1.83" transform="translate(28.483 25.635)" fill="#fff"/>
        <rect id="Rectángulo_344229" data-name="Rectángulo 344229" width="3.717" height="1.824" transform="translate(6.671 42.724)" fill="#fff"/>
        <rect id="Rectángulo_344230" data-name="Rectángulo 344230" width="1.825" height="1.823" transform="translate(13.307 14.273)" fill="#fff"/>
        <rect id="Rectángulo_344231" data-name="Rectángulo 344231" width="1.81" height="1.841" transform="translate(6.676 19.929)" fill="#fff"/>
      </g>
    </g>
  </g>
</svg>
