<svg xmlns="http://www.w3.org/2000/svg" xmlns:xlink="http://www.w3.org/1999/xlink" width="131" height="131" viewBox="0 0 131 131">
  <defs>
    <clipPath id="clip-path">
      <rect id="Rect치ngulo_344217" data-name="Rect치ngulo 344217" width="83.107" height="98.316" fill="#0e494d"/>
    </clipPath>
  </defs>
  <g id="Grupo_983758" data-name="Grupo 983758" transform="translate(-420 -909)">
    <g id="Rect치ngulo_344207" data-name="Rect치ngulo 344207" transform="translate(420 909)" fill="none" stroke="#0e494d" stroke-width="3">
      <rect width="131" height="131" rx="13" stroke="none"/>
      <rect x="1.5" y="1.5" width="128" height="128" rx="11.5" fill="none"/>
    </g>
    <g id="Grupo_983757" data-name="Grupo 983757" transform="translate(444 925)">
      <g id="Grupo_983756" data-name="Grupo 983756" clip-path="url(#clip-path)">
        <path id="Trazado_728124" data-name="Trazado 728124" d="M13.155,141.97A37.552,37.552,0,0,1,9.4,140.91,14.792,14.792,0,1,1,24.15,115.654c.243-.261.492-.533.746-.8a4.036,4.036,0,0,1,5.62-.393,3.8,3.8,0,0,1,.509,5.559,5.792,5.792,0,0,0-1.63,5.433c1.038,8.2-4.37,15.041-12.529,16.364a2.666,2.666,0,0,0-.446.156ZM22.2,117.914c-3.92-3.571-10.661-3.514-14.981.078a11.914,11.914,0,0,0,12.463,20.053c4.935-2.259,8.125-8.184,6.778-12.691-.235.252-.452.475-.657.708-2.2,2.495-4.37,5.014-6.6,7.48a3.971,3.971,0,0,1-6.208-.039q-2.6-2.95-5.123-5.969a4.038,4.038,0,1,1,6.162-5.217c.7.786,1.377,1.592,2.126,2.459l6.041-6.862M10.862,123.52c-.394.349-.9.583-.969.91a1.832,1.832,0,0,0,.3,1.367c1.512,1.858,3.092,3.66,4.658,5.473.978,1.134,1.539,1.131,2.541-.007q5.038-5.718,10.067-11.442a10.252,10.252,0,0,0,1.343-1.615,1.452,1.452,0,0,0,0-1.288,1.575,1.575,0,0,0-1.221-.438c-.306.018-.629.4-.874.674q-4.6,5.2-9.189,10.427c-1,1.13-1.776,1.123-2.771-.018-.945-1.083-1.862-2.191-2.823-3.26a6.958,6.958,0,0,0-1.069-.785" transform="translate(0 -43.654)" fill="#0e494d"/>
        <path id="Trazado_728125" data-name="Trazado 728125" d="M26.547,12.894c-1.047,1.184-2.014,2.277-2.979,3.371-1.4,1.584-2.779,3.181-4.188,4.754-1.964,2.193-4.6,2.154-6.534-.087q-2.414-2.8-4.809-5.611a4.043,4.043,0,1,1,6.087-5.3c.678.763,1.338,1.542,2.071,2.388l6.044-6.867c-3.975-3.5-10.515-3.513-14.782-.084-.2.161-.388.335-.6.482a1.412,1.412,0,0,1-2.054-.162,1.448,1.448,0,0,1,.239-2.055A14.575,14.575,0,0,1,12.482.193,15.1,15.1,0,0,1,24.189,3.275c.268-.285.539-.583.821-.872a4.032,4.032,0,0,1,6.073,5.3c-.655.827-1.693,1.5-1.973,2.428-.262.866.308,1.96.405,2.964A14.762,14.762,0,1,1,.1,14.56a23.684,23.684,0,0,1,.737-4.421C1.1,8.986,1.905,8.551,2.794,8.866c.808.287,1.081,1.077.75,2.176-1.693,5.64.377,11.247,5.36,14.06a11.264,11.264,0,0,0,12.6-.467,11.4,11.4,0,0,0,5.152-11.25c-.012-.116-.05-.229-.109-.491m2.707-7.768c-.275-.349-.462-.805-.777-.926a1.856,1.856,0,0,0-1.233.094c-.3.119-.5.479-.731.742q-4.467,5.073-8.93,10.15c-1.019,1.158-1.817,1.148-2.834-.031-.919-1.065-1.823-2.142-2.753-3.2-.629-.714-1.271-.812-1.822-.328s-.547,1.122.075,1.853q2.39,2.813,4.806,5.6c.788.907,1.395.905,2.215-.024Q22.949,12.632,28.6,6.176a8,8,0,0,0,.652-1.05" transform="translate(-0.033 0)" fill="#0e494d"/>
        <path id="Trazado_728126" data-name="Trazado 728126" d="M24.182,59.457c.28-.311.524-.6.785-.871a4.034,4.034,0,0,1,6.092,5.286,22.267,22.267,0,0,1-1.647,1.871,1.222,1.222,0,0,0-.306,1.361A14.772,14.772,0,1,1,.075,70.718,14.07,14.07,0,0,1,8.282,57.729c5.245-2.618,10.392-2.052,15.231,1.257.208.142.411.29.668.471m2.358,9.589c-.544.611-.981,1.115-1.432,1.606-.764.835-1.589.986-2.254.426-.689-.58-.646-1.472.126-2.352q2.182-2.489,4.373-4.973c.506-.577,1.033-1.139,1.5-1.746a1.047,1.047,0,0,0-.156-1.545,1.08,1.08,0,0,0-1.558.037,8.262,8.262,0,0,0-.651.7q-4.439,5.043-8.877,10.087c-1.07,1.215-1.826,1.208-2.9-.032-.943-1.088-1.874-2.186-2.82-3.272a1.1,1.1,0,0,0-1.686-.225,1.087,1.087,0,0,0-.105,1.693c1.7,2,3.4,4,5.13,5.968a1.109,1.109,0,0,0,1.826.013c.45-.453.836-.97,1.285-1.425a1.423,1.423,0,1,1,2.167,1.844c-.388.507-.821.982-1.255,1.45a4.007,4.007,0,0,1-6.279-.082q-2.524-2.892-5-5.827a4.041,4.041,0,1,1,6.144-5.239c.677.765,1.337,1.544,2.073,2.395l6.041-6.865c-3.917-3.53-10.5-3.524-14.84-.036a11.9,11.9,0,1,0,19.15,7.395" transform="translate(-0.027 -21.788)" fill="#0e494d"/>
        <path id="Trazado_728127" data-name="Trazado 728127" d="M82.564,125.408q-10.648,0-21.3,0c-.351,0-.789.113-1.035-.053-.46-.309-1.072-.752-1.128-1.2s.407-1.062.8-1.433c.243-.229.786-.185,1.195-.185q21.441-.012,42.881,0a3.662,3.662,0,0,1,1.222.16,1.268,1.268,0,0,1,.851,1.446,1.287,1.287,0,0,1-1.142,1.231,6.214,6.214,0,0,1-1.052.036q-10.648,0-21.3,0" transform="translate(-22.96 -47.603)" fill="#0e494d"/>
        <path id="Trazado_728128" data-name="Trazado 728128" d="M82.432,24.739H61.714c-.256,0-.512,0-.767,0-1.287-.01-1.981-.512-1.986-1.433s.683-1.425,1.976-1.426q21.582,0,43.163,0a4.243,4.243,0,0,1,.764.04,1.4,1.4,0,0,1,.1,2.736,5.006,5.006,0,0,1-1.143.079q-10.694.006-21.39,0" transform="translate(-22.907 -8.5)" fill="#0e494d"/>
        <path id="Trazado_728129" data-name="Trazado 728129" d="M82.466,69.22q-10.6,0-21.2,0a9.024,9.024,0,0,1-1.054-.028,1.4,1.4,0,0,1-.237-2.727,3.65,3.65,0,0,1,1.04-.119q21.487-.008,42.975,0a3.748,3.748,0,0,1,1.041.114,1.4,1.4,0,0,1-.216,2.731,7.652,7.652,0,0,1-1.054.03q-10.647,0-21.3,0" transform="translate(-22.915 -25.773)" fill="#0e494d"/>
        <path id="Trazado_728130" data-name="Trazado 728130" d="M82.434,13.048q-10.6,0-21.2,0a7.1,7.1,0,0,1-1.053-.037,1.307,1.307,0,0,1-1.194-1.389,1.3,1.3,0,0,1,1.11-1.366,4.756,4.756,0,0,1,.953-.065q21.438,0,42.875,0a4.42,4.42,0,0,1,1.047.079,1.279,1.279,0,0,1,1.044,1.407A1.277,1.277,0,0,1,104.875,13a6.274,6.274,0,0,1-1.052.043q-10.7,0-21.39,0" transform="translate(-22.918 -3.958)" fill="#0e494d"/>
        <path id="Trazado_728131" data-name="Trazado 728131" d="M82.441,137.086q-10.6,0-21.2,0a7.275,7.275,0,0,1-1.053-.037,1.4,1.4,0,0,1-.1-2.754,4.625,4.625,0,0,1,.953-.066q21.486,0,42.971,0a3.975,3.975,0,0,1,.951.074,1.4,1.4,0,0,1-.086,2.736,6.087,6.087,0,0,1-1.052.045q-10.7,0-21.39,0" transform="translate(-22.918 -52.147)" fill="#0e494d"/>
        <path id="Trazado_728132" data-name="Trazado 728132" d="M82.435,80.911H61.6c-.289,0-.577,0-.865,0-1.117-.025-1.787-.572-1.776-1.443s.676-1.407,1.809-1.408q21.746-.006,43.492,0c1.162,0,1.762.519,1.752,1.439s-.616,1.407-1.784,1.408q-10.9.01-21.794,0" transform="translate(-22.906 -30.325)" fill="#0e494d"/>
        <path id="Trazado_728133" data-name="Trazado 728133" d="M75.407,33.543q7.144,0,14.289,0a5.724,5.724,0,0,1,.956.033A1.289,1.289,0,0,1,91.8,34.8a1.262,1.262,0,0,1-.842,1.45,4.024,4.024,0,0,1-1.316.166q-14.241.013-28.482,0a4.658,4.658,0,0,1-1.046-.073,1.41,1.41,0,0,1,.236-2.79c.511-.026,1.023-.013,1.534-.013q6.761,0,13.521,0" transform="translate(-22.916 -13.031)" fill="#0e494d"/>
        <path id="Trazado_728134" data-name="Trazado 728134" d="M75.412,89.731q7.1,0,14.192,0a8.46,8.46,0,0,1,.958.023,1.4,1.4,0,0,1,.212,2.751,4.532,4.532,0,0,1-1.139.1q-14.239.007-28.479,0a4.524,4.524,0,0,1-1.137-.108,1.4,1.4,0,0,1,.244-2.744c.508-.042,1.022-.023,1.534-.023q6.808,0,13.616,0" transform="translate(-22.915 -34.859)" fill="#0e494d"/>
        <path id="Trazado_728135" data-name="Trazado 728135" d="M75.443,148.777q-7.095,0-14.19,0a7.674,7.674,0,0,1-.957-.026,1.406,1.406,0,0,1-1.324-1.484,1.366,1.366,0,0,1,1.371-1.337c.255-.017.511-.013.767-.013q14.286,0,28.572,0a6.071,6.071,0,0,1,.956.039,1.4,1.4,0,0,1,.136,2.732,4.789,4.789,0,0,1-1.141.086q-7.1.007-14.19,0" transform="translate(-22.907 -56.689)" fill="#0e494d"/>
      </g>
    </g>
  </g>
</svg>
