<svg xmlns="http://www.w3.org/2000/svg" width="88" height="88" viewBox="0 0 88 88">
  <g id="Grupo_983822" data-name="Grupo 983822" transform="translate(-441 -1364)">
    <g id="Grupo_944949" data-name="Grupo 944949" transform="translate(155 -211)">
      <circle id="Elipse_4813" data-name="Elipse 4813" cx="44" cy="44" r="44" transform="translate(286 1575)" fill="#0e494d"/>
    </g>
    <g id="ventanas" transform="translate(456.408 1383.942)">
      <g id="Grupo_983779" data-name="Grupo 983779" transform="translate(5.624 3.736)">
        <g id="Grupo_983778" data-name="Grupo 983778" transform="translate(0)">
          <path id="Trazado_728156" data-name="Trazado 728156" d="M51.46,79.262h-.491V62.755a.689.689,0,0,0-1.379,0V79.262H47.233V40.182a.689.689,0,0,0-.641-.687H12.023l-.059.007-.018,0a.676.676,0,0,0-.079.02l-.005,0a.675.675,0,0,0-.069.027l-.018.009q-.029.014-.056.03l-.011.006-.006,0a.7.7,0,0,0-.065.047l0,0a.692.692,0,0,0-.055.052l-.016.018q-.019.021-.036.044l-.014.018a.674.674,0,0,0-.039.062l0,0a.69.69,0,0,0-.035.073l-.005.014c-.008.02-.014.04-.02.061l-.005.021c0,.019-.008.039-.011.059s0,.014,0,.021a.693.693,0,0,0-.005.081V79.262H9.03v-16.5a.689.689,0,1,0-1.379,0v16.5H7.16A1.538,1.538,0,0,0,5.624,80.8v1.859A1.538,1.538,0,0,0,7.16,84.193h44.3A1.538,1.538,0,0,0,53,82.657V80.8A1.538,1.538,0,0,0,51.46,79.262ZM45.852,41.272V79.262h-.926L36.255,76.02V45.826Zm-2.372-.4-7.886,3.741a1.214,1.214,0,0,0-.718,1.093V76.15a1.223,1.223,0,0,0,.826,1.136l5.286,1.976H17.63l5.286-1.976a1.223,1.223,0,0,0,.826-1.136V45.706a1.214,1.214,0,0,0-.718-1.093l-7.886-3.742H43.48Zm-30.713.4,9.6,4.553V76.021l-8.671,3.241h-.926ZM51.46,82.815H7.16A.158.158,0,0,1,7,82.657V80.8a.158.158,0,0,1,.158-.158h44.3a.158.158,0,0,1,.158.158v1.859h0A.158.158,0,0,1,51.46,82.815Z" transform="translate(-5.624 -39.493)" fill="#fff"/>
        </g>
      </g>
      <g id="Grupo_983781" data-name="Grupo 983781" transform="translate(7.652)">
        <g id="Grupo_983780" data-name="Grupo 983780" transform="translate(0)">
          <path id="Trazado_728157" data-name="Trazado 728157" d="M68.591,0H28.841a1.786,1.786,0,0,0-1.784,1.784v21.9a.689.689,0,0,0,1.379,0V1.784a.406.406,0,0,1,.405-.405h39.75A.406.406,0,0,1,69,1.784V23.718a.689.689,0,1,0,1.379,0V1.784A1.786,1.786,0,0,0,68.591,0Z" transform="translate(-27.057)" fill="#fff"/>
        </g>
      </g>
      <g id="Grupo_983783" data-name="Grupo 983783" transform="translate(37.975 8.801)">
        <g id="Grupo_983782" data-name="Grupo 983782">
          <path id="Trazado_728158" data-name="Trazado 728158" d="M353.227,93.03a.842.842,0,0,0-.374.088l-4.814,2.408a.792.792,0,0,0-.444.71v11.552a.83.83,0,0,0,.837.813l4.808.031h.006a.82.82,0,0,0,.831-.807V93.854A.838.838,0,0,0,353.227,93.03Zm-.529,14.22-3.725-.024V96.6l3.725-1.863Z" transform="translate(-347.595 -93.03)" fill="#fff"/>
        </g>
      </g>
      <g id="Grupo_983785" data-name="Grupo 983785" transform="translate(37.975 25.377)">
        <g id="Grupo_983784" data-name="Grupo 983784">
          <path id="Trazado_728159" data-name="Trazado 728159" d="M353.237,268.248l-4.809.048a.831.831,0,0,0-.835.813v12.143a.794.794,0,0,0,.508.738l4.813,1.912a.85.85,0,0,0,1.161-.765V269.054A.821.821,0,0,0,353.237,268.248Zm-.54,14.085-3.725-1.48V269.67l3.725-.038Z" transform="translate(-347.594 -268.248)" fill="#fff"/>
        </g>
      </g>
      <g id="Grupo_983787" data-name="Grupo 983787" transform="translate(14.161 25.377)">
        <g id="Grupo_983786" data-name="Grupo 983786">
          <path id="Trazado_728160" data-name="Trazado 728160" d="M101.512,268.3l-4.817-.048a.819.819,0,0,0-.83.806v14.084a.85.85,0,0,0,1.161.765l4.814-1.912a.794.794,0,0,0,.507-.738V269.11A.832.832,0,0,0,101.512,268.3Zm-.544,12.558-3.725,1.479v-12.7l3.725.038Z" transform="translate(-95.865 -268.248)" fill="#fff"/>
        </g>
      </g>
      <g id="Grupo_983789" data-name="Grupo 983789" transform="translate(14.161 8.801)">
        <g id="Grupo_983788" data-name="Grupo 983788">
          <path id="Trazado_728161" data-name="Trazado 728161" d="M101.9,95.526l-4.814-2.408a.849.849,0,0,0-1.224.736v13.971a.82.82,0,0,0,.831.807H96.7l4.808-.031a.83.83,0,0,0,.837-.813V96.236A.792.792,0,0,0,101.9,95.526Zm-.935,11.7-3.725.024V94.737l3.725,1.863Z" transform="translate(-95.864 -93.03)" fill="#fff"/>
        </g>
      </g>
    </g>
  </g>
</svg>
