<svg xmlns="http://www.w3.org/2000/svg" xmlns:xlink="http://www.w3.org/1999/xlink" width="73" height="73" viewBox="0 0 73 73">
  <defs>
    <clipPath id="clip-path">
      <rect id="Rect치ngulo_344172" data-name="Rect치ngulo 344172" width="46.052" height="54.48" fill="#34bc85"/>
    </clipPath>
  </defs>
  <g id="Grupo_960908" data-name="Grupo 960908" transform="translate(-297 -741)">
    <g id="Grupo_960907" data-name="Grupo 960907" transform="translate(310.235 750.01)">
      <g id="Grupo_960906" data-name="Grupo 960906" clip-path="url(#clip-path)">
        <path id="Trazado_728097" data-name="Trazado 728097" d="M7.289,128.77a20.813,20.813,0,0,1-2.081-.588,8.2,8.2,0,1,1,8.174-14c.135-.145.273-.3.413-.445a2.236,2.236,0,0,1,3.114-.218,2.107,2.107,0,0,1,.282,3.08,3.209,3.209,0,0,0-.9,3.01,8.025,8.025,0,0,1-6.943,9.068,1.475,1.475,0,0,0-.247.086ZM12.3,115.44a6.578,6.578,0,0,0-9.658,8.681,6.607,6.607,0,0,0,8.263,2.475c2.735-1.252,4.5-4.535,3.756-7.032-.13.14-.25.263-.364.392-1.218,1.382-2.421,2.779-3.658,4.145a2.2,2.2,0,0,1-3.44-.022q-1.441-1.635-2.839-3.308a2.237,2.237,0,1,1,3.415-2.891c.388.436.763.882,1.178,1.363l3.347-3.8m-6.283,3.107c-.218.193-.5.323-.537.5a1.015,1.015,0,0,0,.168.758c.838,1.029,1.714,2.028,2.581,3.033.542.628.853.627,1.408,0q2.791-3.169,5.578-6.34a5.681,5.681,0,0,0,.744-.895.8.8,0,0,0,0-.714.873.873,0,0,0-.677-.243c-.169.01-.348.219-.485.374Q12.251,117.9,9.711,120.8c-.552.626-.984.622-1.536-.01-.524-.6-1.032-1.214-1.564-1.806a3.857,3.857,0,0,0-.592-.435" transform="translate(0 -74.29)" fill="#34bc85"/>
        <path id="Trazado_728098" data-name="Trazado 728098" d="M14.748,7.145c-.58.656-1.116,1.262-1.651,1.868-.774.878-1.54,1.763-2.32,2.635A2.24,2.24,0,0,1,7.156,11.6Q5.818,10.05,4.491,8.49A2.24,2.24,0,1,1,7.864,5.551c.375.423.741.855,1.148,1.323l3.349-3.805A6.542,6.542,0,0,0,4.17,3.022c-.11.089-.215.186-.331.267A.782.782,0,0,1,2.7,3.2a.8.8,0,0,1,.132-1.139A8.076,8.076,0,0,1,6.954.107a8.366,8.366,0,0,1,6.487,1.707c.149-.158.3-.323.455-.483a2.234,2.234,0,0,1,3.365,2.935c-.363.458-.938.834-1.093,1.345-.145.48.171,1.086.225,1.642a8.18,8.18,0,1,1-16.3.814A13.124,13.124,0,0,1,.5,5.619c.149-.639.594-.88,1.087-.705.448.159.6.6.416,1.206a6.524,6.524,0,0,0,2.97,7.791,6.242,6.242,0,0,0,6.982-.259,6.316,6.316,0,0,0,2.855-6.234c-.006-.064-.028-.127-.06-.272m1.5-4.3c-.152-.193-.256-.446-.431-.513a1.029,1.029,0,0,0-.683.052c-.164.066-.277.265-.405.411Q12.254,5.6,9.781,8.415c-.565.641-1.007.636-1.571-.017C7.7,7.808,7.2,7.21,6.685,6.626c-.348-.4-.7-.45-1.009-.182s-.3.622.042,1.027Q7.042,9.03,8.38,10.577c.437.5.773.5,1.227-.013Q12.755,7,15.887,3.422a4.434,4.434,0,0,0,.361-.582" transform="translate(-0.056 0)" fill="#34bc85"/>
        <path id="Trazado_728099" data-name="Trazado 728099" d="M13.431,57.952c.155-.172.29-.332.435-.483A2.236,2.236,0,0,1,17.242,60.4a12.338,12.338,0,0,1-.913,1.037.677.677,0,0,0-.169.754,8.186,8.186,0,1,1-16.086,2,7.8,7.8,0,0,1,4.548-7.2,7.88,7.88,0,0,1,8.44.7c.115.079.228.161.37.261m1.307,5.314c-.3.339-.544.618-.793.89-.424.463-.881.547-1.249.236s-.358-.816.07-1.3q1.209-1.379,2.423-2.756c.281-.32.572-.631.832-.967a.58.58,0,0,0-.086-.856.6.6,0,0,0-.863.02,4.578,4.578,0,0,0-.361.39L9.79,64.51c-.593.673-1.012.67-1.607-.018-.523-.6-1.038-1.211-1.562-1.813a.612.612,0,0,0-.934-.125.6.6,0,0,0-.058.938C6.569,64.6,7.511,65.708,8.47,66.8a.614.614,0,0,0,1.012.007c.249-.251.463-.538.712-.79a.788.788,0,1,1,1.2,1.022c-.215.281-.455.544-.7.8a2.22,2.22,0,0,1-3.48-.045q-1.4-1.6-2.771-3.229a2.239,2.239,0,1,1,3.4-2.9c.375.424.741.856,1.149,1.327l3.347-3.8a6.523,6.523,0,0,0-8.223-.02,6.6,6.6,0,1,0,10.612,4.1" transform="translate(-0.047 -37.079)" fill="#34bc85"/>
        <path id="Trazado_728100" data-name="Trazado 728100" d="M72.1,124.124H60.3c-.194,0-.437.062-.574-.029-.255-.171-.594-.417-.625-.665s.225-.589.445-.794c.135-.127.436-.1.662-.1q11.881-.007,23.761,0a2.029,2.029,0,0,1,.677.088.7.7,0,0,1,.472.8.713.713,0,0,1-.633.682,3.446,3.446,0,0,1-.583.02H72.1" transform="translate(-39.074 -81.01)" fill="#34bc85"/>
        <path id="Trazado_728101" data-name="Trazado 728101" d="M71.967,23.463H60.061c-.713-.006-1.1-.284-1.1-.794s.378-.79,1.095-.79q11.959,0,23.918,0a2.351,2.351,0,0,1,.424.022.778.778,0,0,1,.056,1.516,2.774,2.774,0,0,1-.633.044q-5.926,0-11.853,0" transform="translate(-38.982 -14.465)" fill="#34bc85"/>
        <path id="Trazado_728102" data-name="Trazado 728102" d="M72,67.936H60.248a5,5,0,0,1-.584-.016.776.776,0,0,1-.131-1.511,2.023,2.023,0,0,1,.576-.066q11.907,0,23.814,0a2.076,2.076,0,0,1,.577.063.778.778,0,0,1-.12,1.513,4.242,4.242,0,0,1-.584.017H72" transform="translate(-38.997 -43.861)" fill="#34bc85"/>
        <path id="Trazado_728103" data-name="Trazado 728103" d="M71.981,11.773H60.235a3.937,3.937,0,0,1-.583-.02.776.776,0,0,1-.046-1.527,2.635,2.635,0,0,1,.528-.036q11.879,0,23.758,0a2.449,2.449,0,0,1,.58.044.708.708,0,0,1,.578.78.708.708,0,0,1-.633.735,3.476,3.476,0,0,1-.583.024q-5.926,0-11.853,0" transform="translate(-39.001 -6.736)" fill="#34bc85"/>
        <path id="Trazado_728104" data-name="Trazado 728104" d="M71.985,135.811H60.239a4.031,4.031,0,0,1-.583-.02.776.776,0,0,1-.054-1.526,2.563,2.563,0,0,1,.528-.037q11.906,0,23.811,0a2.2,2.2,0,0,1,.527.041.778.778,0,0,1-.047,1.516,3.373,3.373,0,0,1-.583.025q-5.926,0-11.853,0" transform="translate(-39.001 -88.744)" fill="#34bc85"/>
        <path id="Trazado_728105" data-name="Trazado 728105" d="M71.969,79.638H60.424c-.16,0-.32,0-.479,0-.619-.014-.99-.317-.984-.8s.375-.78,1-.78q12.05,0,24.1,0c.644,0,.976.287.971.8s-.341.78-.989.78q-6.039.006-12.077,0" transform="translate(-38.982 -51.607)" fill="#34bc85"/>
        <path id="Trazado_728106" data-name="Trazado 728106" d="M68.085,33.542H76a3.171,3.171,0,0,1,.53.018.714.714,0,0,1,.637.678.7.7,0,0,1-.467.8,2.23,2.23,0,0,1-.729.092q-7.891.007-15.783,0a2.581,2.581,0,0,1-.58-.041.781.781,0,0,1,.131-1.546c.283-.015.567-.007.85-.007h7.493" transform="translate(-38.999 -22.176)" fill="#34bc85"/>
        <path id="Trazado_728107" data-name="Trazado 728107" d="M68.087,89.729h7.864a4.69,4.69,0,0,1,.531.013.778.778,0,0,1,.117,1.524,2.512,2.512,0,0,1-.631.057q-7.89,0-15.781,0a2.507,2.507,0,0,1-.63-.06.775.775,0,0,1,.135-1.52c.282-.023.567-.013.85-.013h7.545" transform="translate(-38.997 -59.323)" fill="#34bc85"/>
        <path id="Trazado_728108" data-name="Trazado 728108" d="M68.1,147.5H60.232a4.254,4.254,0,0,1-.53-.014.779.779,0,0,1-.734-.822.757.757,0,0,1,.76-.741c.141-.009.283-.007.425-.007H75.985a3.366,3.366,0,0,1,.53.021.777.777,0,0,1,.076,1.514,2.654,2.654,0,0,1-.632.048q-3.932,0-7.863,0" transform="translate(-38.984 -96.473)" fill="#34bc85"/>
      </g>
    </g>
    <rect id="Rect치ngulo_344173" data-name="Rect치ngulo 344173" width="73" height="73" transform="translate(297 741)" fill="none"/>
  </g>
</svg>
