<svg xmlns="http://www.w3.org/2000/svg" xmlns:xlink="http://www.w3.org/1999/xlink" width="88" height="88" viewBox="0 0 88 88">
  <defs>
    <clipPath id="clip-path">
      <rect id="Rectángulo_344247" data-name="Rectángulo 344247" width="52.939" height="53.009" fill="#fff"/>
    </clipPath>
  </defs>
  <g id="Grupo_983768" data-name="Grupo 983768" transform="translate(-756 -797)">
    <g id="Grupo_983747" data-name="Grupo 983747" transform="translate(470 -778)">
      <circle id="Elipse_4813" data-name="Elipse 4813" cx="44" cy="44" r="44" transform="translate(286 1575)" fill="#0e494d"/>
    </g>
    <g id="Grupo_983767" data-name="Grupo 983767" transform="translate(774 814)">
      <g id="Grupo_983766" data-name="Grupo 983766" clip-path="url(#clip-path)">
        <path id="Trazado_728138" data-name="Trazado 728138" d="M45.274,19.658V46.151H28.927a2.648,2.648,0,0,1-1.671,3.327A8.056,8.056,0,0,1,27.24,51,2.457,2.457,0,0,1,24.8,53q-8.335.015-16.67-.006a7.119,7.119,0,0,1-3.178-.82c-.445-.223-.887-.454-1.338-.665C2.47,50.976,1.422,50.13,0,50.492V35.962a.636.636,0,0,1,.228-.047,3,3,0,0,0,2.3-.729A25.341,25.341,0,0,1,5.189,33.5,8.754,8.754,0,0,1,9.4,32.492c1.1,0,2.206,0,3.368,0V1.731H31.541C31.883.384,32.38,0,33.745,0c3.188,0,6.376.011,9.564,0a9.7,9.7,0,0,1,5.675,1.729c.323.222.653.432.976.653.89.609,1.724,1.368,2.978.981V17.041c-.04.02-.072.052-.1.049a4.9,4.9,0,0,0-2.829.723c-1.271.622-2.6,1.132-3.909,1.672a4.741,4.741,0,0,1-.826.173M14.529,32.491h.561c1.478,0,2.956-.006,4.434,0A1.71,1.71,0,0,1,21.334,34.4a4.075,4.075,0,0,1-.737,2.2,4.184,4.184,0,0,1-3.479,1.872c-.864.023-1.728,0-2.586,0v5.953h29V8.568H41.86v1.662H36.771v-1.7h4.617a6.134,6.134,0,0,1-1.8-1.12,4,4,0,0,0-3.726-1.453,3.884,3.884,0,0,1-3.652-2.1.778.778,0,0,0-.786-.446q-8.173.021-16.347.009h-.544Zm1.71,15.388H26.1a2.635,2.635,0,0,0,.48-.013.848.848,0,0,0,0-1.682,2.98,2.98,0,0,0-.533-.014H12.781V39.679a6.124,6.124,0,0,1-4.227,1.343v-1.7a4.7,4.7,0,0,0,4.035-1.848,2,2,0,0,1,.419-.409,1.541,1.541,0,0,1,.689-.285c1.139-.03,2.279,0,3.418-.019A2.481,2.481,0,0,0,19.582,34.2h-.576c-3.1,0-6.2.016-9.294-.006a8.217,8.217,0,0,0-4.866,1.485c-1.03.712-2.084,1.39-3.153,2.1V48.644c1.273.635,2.531,1.249,3.777,1.889A6.906,6.906,0,0,0,8.7,51.3c5.217-.012,10.434-.005,15.651-.006a4.077,4.077,0,0,0,.48-.009.84.84,0,0,0,.776-.865.826.826,0,0,0-.761-.825,2.973,2.973,0,0,0-.48-.011H16.239ZM51.255,5.236c-.268-.157-.53-.293-.775-.455Q49.209,3.946,47.948,3.1A7.98,7.98,0,0,0,43.321,1.71c-3.151.014-6.3,0-9.453,0h-.523a2.456,2.456,0,0,0,1.82,2.447,6.146,6.146,0,0,0,1.321.114,6.855,6.855,0,0,1,2.271.083,5.849,5.849,0,0,1,1.658,1.548,2.872,2.872,0,0,0,2.287.944c.847-.026,1.7-.006,2.583-.006V17.922c2.229-.424,3.971-1.806,5.969-2.576Z" transform="translate(0 0)" fill="#fff"/>
        <path id="Trazado_728139" data-name="Trazado 728139" d="M98.567,108.178h15.322V121.79H98.567Zm1.709,11.9h11.9V109.888h-11.9Z" transform="translate(-72.057 -79.083)" fill="#fff"/>
        <path id="Trazado_728140" data-name="Trazado 728140" d="M75.711,31.148H60.39v-11.9H75.711ZM62.095,29.424H74V20.941h-11.9Z" transform="translate(-44.148 -14.07)" fill="#fff"/>
        <rect id="Rectángulo_344233" data-name="Rectángulo 344233" width="25.579" height="1.645" transform="translate(16.257 22.269)" fill="#fff"/>
        <rect id="Rectángulo_344234" data-name="Rectángulo 344234" width="22.154" height="1.65" transform="translate(19.674 18.847)" fill="#fff"/>
        <rect id="Rectángulo_344235" data-name="Rectángulo 344235" width="15.334" height="1.65" transform="translate(26.504 25.676)" fill="#fff"/>
        <rect id="Rectángulo_344236" data-name="Rectángulo 344236" width="8.481" height="1.644" transform="translate(33.356 12.01)" fill="#fff"/>
        <rect id="Rectángulo_344237" data-name="Rectángulo 344237" width="8.481" height="1.645" transform="translate(33.336 15.42)" fill="#fff"/>
        <rect id="Rectángulo_344238" data-name="Rectángulo 344238" width="8.5" height="1.626" transform="translate(16.249 29.115)" fill="#fff"/>
        <rect id="Rectángulo_344239" data-name="Rectángulo 344239" width="8.481" height="1.645" transform="translate(16.237 41.067)" fill="#fff"/>
        <rect id="Rectángulo_344240" data-name="Rectángulo 344240" width="1.641" height="1.65" transform="translate(33.341 8.578)" fill="#fff"/>
        <rect id="Rectángulo_344241" data-name="Rectángulo 344241" width="1.644" height="1.642" transform="translate(16.257 18.85)" fill="#fff"/>
        <rect id="Rectángulo_344242" data-name="Rectángulo 344242" width="1.65" height="1.659" transform="translate(16.239 25.672)" fill="#fff"/>
        <rect id="Rectángulo_344243" data-name="Rectángulo 344243" width="1.647" height="1.638" transform="translate(19.66 25.692)" fill="#fff"/>
        <rect id="Rectángulo_344244" data-name="Rectángulo 344244" width="1.662" height="1.634" transform="translate(23.062 25.694)" fill="#fff"/>
        <rect id="Rectángulo_344245" data-name="Rectángulo 344245" width="1.659" height="1.65" transform="translate(23.073 34.235)" fill="#fff"/>
        <rect id="Rectángulo_344246" data-name="Rectángulo 344246" width="1.647" height="1.638" transform="translate(23.088 37.651)" fill="#fff"/>
        <path id="Trazado_728141" data-name="Trazado 728141" d="M114.594,126.113l-2.225-2.231,1.216-1.148.888,1.168,5.436-5.471,1.113,1.253-6.429,6.429" transform="translate(-82.147 -86.579)" fill="#fff"/>
      </g>
    </g>
  </g>
</svg>
