<svg xmlns="http://www.w3.org/2000/svg" xmlns:xlink="http://www.w3.org/1999/xlink" width="131" height="131" viewBox="0 0 131 131">
  <defs>
    <clipPath id="clip-path">
      <rect id="Rect치ngulo_344218" data-name="Rect치ngulo 344218" width="97.516" height="97.534" fill="#fff"/>
    </clipPath>
  </defs>
  <g id="Grupo_983761" data-name="Grupo 983761" transform="translate(-1050 -909)">
    <g id="Rect치ngulo_344208" data-name="Rect치ngulo 344208" transform="translate(1050 909)" fill="none" stroke="#fff" stroke-width="3">
      <rect width="131" height="131" rx="13" stroke="none"/>
      <rect x="1.5" y="1.5" width="128" height="128" rx="11.5" fill="none"/>
    </g>
    <g id="Grupo_983760" data-name="Grupo 983760" transform="translate(1070.484 925.733)">
      <g id="Grupo_983759" data-name="Grupo 983759" clip-path="url(#clip-path)">
        <path id="Trazado_728136" data-name="Trazado 728136" d="M92.944,97.534H89.517a16.924,16.924,0,0,1-3.025-1.89c-3.342-3.21-6.578-6.529-9.86-9.8A3.384,3.384,0,0,1,75.557,83.1a1.144,1.144,0,0,0-.167-.779c-1.188-1.262-2.415-2.487-3.474-3.566-2.262,1.189-4.343,2.263-6.395,3.388a1.2,1.2,0,0,0-.5.849c-.063.98-.014,1.967-.027,2.951a4.851,4.851,0,0,1-5.086,5.092q-27.379.014-54.757,0A4.872,4.872,0,0,1,0,85.9Q0,45.515,0,5.133A4.857,4.857,0,0,1,5.156.009Q26.963,0,48.771,0a5.281,5.281,0,0,1,3.921,1.627Q58,6.958,63.334,12.265a5.362,5.362,0,0,1,1.672,4.094c-.042,2.412.058,4.828-.042,7.237a1.725,1.725,0,0,0,1.29,1.929A30.677,30.677,0,0,1,82.524,64.356c-1,2.577-2.424,4.991-3.721,7.62,1.029,1.014,2.215,2.2,3.432,3.362a1.071,1.071,0,0,0,.751.242,3.558,3.558,0,0,1,2.976,1.194c2.907,2.929,5.814,5.859,8.76,8.749a10.2,10.2,0,0,1,2.794,4.011v3.428c-.285.553-.553,1.115-.859,1.656a7.6,7.6,0,0,1-3.713,2.916M61.716,83.517a.916.916,0,0,0-.177-.027c-.124.022-.247.045-.369.075a30.434,30.434,0,0,1-23.617-3.578,2.916,2.916,0,0,0-1.432-.33q-13.568-.029-27.136-.014c-.318,0-.636.015-.952-.013A1.625,1.625,0,0,1,6.5,78.089a1.645,1.645,0,0,1,1.4-1.663,6.379,6.379,0,0,1,.951-.028H32.726c-.906-.963-1.7-1.738-2.41-2.586a1.787,1.787,0,0,0-1.55-.674c-6.665.024-13.331.015-20,.013a5.118,5.118,0,0,1-.949-.04,1.609,1.609,0,0,1,.106-3.182,7.535,7.535,0,0,1,.951-.02H27.363c-.505-.953-.969-1.712-1.317-2.523a1.117,1.117,0,0,0-1.236-.737c-5.269.024-10.537.014-15.806.013a7.621,7.621,0,0,1-1.046-.027A1.648,1.648,0,0,1,6.5,64.918a1.621,1.621,0,0,1,1.572-1.495c.284-.021.571-.01.857-.01H24.322a20.468,20.468,0,0,1-.644-2.388c-.11-.75-.476-.877-1.148-.874-4.571.025-9.141.016-13.712.008A4.19,4.19,0,0,1,7.6,60.023a1.46,1.46,0,0,1-1.081-1.6,1.5,1.5,0,0,1,1.364-1.475,6.537,6.537,0,0,1,.95-.033q6.475,0,12.95,0H22.9c-.057-1.148-.107-2.168-.162-3.254H16.609c-2.7,0-5.4.009-8.094,0C7.246,53.648,6.486,53,6.5,52c.016-.977.74-1.569,1.969-1.591.73-.014,1.46,0,2.19,0,3.809,0,7.618.012,11.426-.023.31,0,.826-.267.89-.505a25.515,25.515,0,0,0,.446-2.735H8.92c-1.639,0-2.422-.528-2.419-1.623s.8-1.634,2.421-1.634c4.856,0,9.712.006,14.568-.014.332,0,.854-.112.963-.332.437-.893.747-1.848,1.153-2.908H24.44q-8,0-16,0c-1.213,0-1.945-.63-1.942-1.61s.754-1.6,1.946-1.635c.254-.007.508,0,.762,0,5.776,0,11.553.006,17.329-.014a1.546,1.546,0,0,0,1.083-.332c1.134-1.429,2.193-2.919,3.36-4.5H29.92q-9.9,0-19.8,0a3.305,3.305,0,0,1-3.622-3.6q-.011-9.427,0-18.855A3.285,3.285,0,0,1,10.05,6.5Q26,6.49,41.947,6.5a3.282,3.282,0,0,1,3.563,3.559c.01,4.222,0,8.443,0,12.665v1.148A30.664,30.664,0,0,1,61.7,23.847v-7.6H60.632c-2.825,0-5.65.017-8.474-.007a3.2,3.2,0,0,1-3.4-3.405c-.015-2,0-4,0-6V3.252H5.739c-2.076,0-2.493.421-2.493,2.513V85.281c0,2.084.428,2.514,2.5,2.514H59.259a6.211,6.211,0,0,0,1.045-.031A1.481,1.481,0,0,0,61.7,86.42c.074-.968.017-1.945.017-2.9M26.02,53.659H62.469a7.885,7.885,0,0,1,1.14.036,1.588,1.588,0,0,1,.214,3.1,5.138,5.138,0,0,1-1.319.113q-17.521.009-35.042,0H26.224a19.469,19.469,0,0,1,.35,2.152c.05.977.551,1.121,1.422,1.118,9.364-.031,18.727-.019,28.091-.019,2.381,0,4.761-.011,7.142.007a1.56,1.56,0,0,1,1.752,1.58,1.62,1.62,0,0,1-1.707,1.657c-.285.017-.571.005-.857.005H27.794c.38.877.732,1.613,1.019,2.374a1.285,1.285,0,0,0,1.439.893q16.14-.043,32.28-.019c.318,0,.636-.015.952.013a1.551,1.551,0,0,1,1.5,1.547,1.58,1.58,0,0,1-1.389,1.657,7.088,7.088,0,0,1-1.045.028H31.3c.793.95,1.453,1.7,2.068,2.492a1.931,1.931,0,0,0,1.706.771c5.967-.032,11.935-.019,17.9-.017a5.4,5.4,0,0,1,.949.036,1.613,1.613,0,0,1-.079,3.185,6.283,6.283,0,0,1-.856.022q-6.9,0-13.808,0c-.292,0-.585.031-1.013.055.235.187.328.27.431.341,8.872,6.13,22.162,5.912,30.793-.532a1.421,1.421,0,0,0,.482-1q.036-21.619,0-43.236a1.393,1.393,0,0,0-.487-1,27.115,27.115,0,0,0-18.261-4.9c-.565.045-.754.275-.745.835.028,1.682.017,3.365.008,5.047-.02,3.42-1.965,5.357-5.391,5.362-4.285.006-8.57,0-12.855.013-.32,0-.78.051-.935.259-.674.9-1.259,1.866-1.99,2.981h33.16c.317,0,.636-.016.952.01a1.6,1.6,0,0,1,1.651,1.613,1.58,1.58,0,0,1-1.717,1.626c-.316.016-.635.005-.952.005H29.079a2.708,2.708,0,0,0-.757.017c-.235.071-.552.222-.624.415-.325.88-.577,1.788-.9,2.826h1.36q17.187,0,34.376,0a5.581,5.581,0,0,1,1.229.082,1.589,1.589,0,0,1,0,3.086,6.036,6.036,0,0,1-1.324.087q-17.426.006-34.852,0a2.026,2.026,0,0,0-.754.02c-.261.114-.628.345-.658.564-.113.84-.109,1.7-.155,2.673M42.267,9.8H9.79V29.278c.4,0,.771,0,1.142,0q11.688.094,23.377.178c.162,0,.33-.15.489-.242,2.325-1.348,4.653-2.689,6.964-4.059a1.011,1.011,0,0,0,.483-.676c.028-4.855.021-9.71.021-14.677M73.214,34.322v38.72c11.223-11.108,10.154-29.143,0-38.72M78.9,83.375c3.322,3.357,6.607,6.7,9.92,10.011a2.952,2.952,0,0,0,2.714.819,3.084,3.084,0,0,0,2.548-2.15,3.184,3.184,0,0,0-.914-3.467q-4.7-4.708-9.41-9.407a3.046,3.046,0,0,0-.388-.292L78.9,83.375M47.066,26.841a27.861,27.861,0,0,0-12.948,7.276c4.011,0,7.741.011,11.469-.01a1.329,1.329,0,0,0,1.452-1.237c.081-1.978.027-3.961.027-6.03M52.057,12.9h6.994l-6.994-7ZM74.416,76.5l3.212,3.233,2.04-2.047-3.151-3.145-2.1,1.959" transform="translate(0 0)" fill="#fff"/>
      </g>
    </g>
  </g>
</svg>
