<svg xmlns="http://www.w3.org/2000/svg" xmlns:xlink="http://www.w3.org/1999/xlink" width="73" height="73" viewBox="0 0 73 73">
  <defs>
    <clipPath id="clip-path">
      <rect id="Rect치ngulo_344174" data-name="Rect치ngulo 344174" width="69.248" height="37.614" fill="#34bc85"/>
    </clipPath>
  </defs>
  <g id="Grupo_960909" data-name="Grupo 960909" transform="translate(-300 -741)">
    <rect id="Rect치ngulo_344173" data-name="Rect치ngulo 344173" width="73" height="73" transform="translate(300 741)" fill="none"/>
    <g id="Grupo_960912" data-name="Grupo 960912" transform="translate(302 759)">
      <g id="Grupo_960912-2" data-name="Grupo 960912" clip-path="url(#clip-path)">
        <path id="Trazado_728109" data-name="Trazado 728109" d="M69.241,27.328c0-1.2-.518-1.739-1.732-1.714-.485.01-.585-.132-.581-.6q.036-3.718,0-7.437a4.059,4.059,0,0,0-3.763-4.046c-.717-.067-1.434-.143-2.153-.2-1.391-.118-2.782-.245-4.176-.333a.942.942,0,0,0-1.058.9.979.979,0,0,0,.822,1.075,4.071,4.071,0,0,0,.6.065L63,15.558a2.029,2.029,0,0,1,1.671,1.1c.222.391.112.5-.315.495-.923-.014-1.85-.032-2.77.024a3.081,3.081,0,0,0-2.776,2.295,5.834,5.834,0,0,0-.113,1.678,3.176,3.176,0,0,0,3.4,3.433c.789.011,1.579.026,2.366-.008.422-.018.466.169.463.514,0,.33,0,.533-.449.523-1.464-.031-2.93-.019-4.394-.005a.873.873,0,0,1-.639-.29,7.109,7.109,0,0,0-9.584-.012,1.047,1.047,0,0,1-.771.3q-10.817-.012-21.635,0a.716.716,0,0,1-.748-.4c-.748-1.359-1.547-2.689-2.3-4.043a8.823,8.823,0,0,1-1.153-4.387c0-.721.034-1.446-.024-2.163-.044-.554.157-.654.669-.652q10.344.025,20.688.014c.337,0,.674.032,1.011.062,2.221.194,4.442.4,6.664.582a1.024,1.024,0,0,0,1.225-.954c.029-.594-.367-1-1.056-1.064-2.019-.182-4.037-.381-6.059-.518a1.152,1.152,0,0,1-1.076-.706C43.775,8.536,42.23,5.719,40.7,2.893A4.857,4.857,0,0,0,36.717.115C33.932-.092,31.132.042,28.339.062a.919.919,0,0,0-.9,1.059.934.934,0,0,0,.953.94c.179.016.36.007.54.007,2.344,0,4.688-.008,7.031,0a3.164,3.164,0,0,1,2.739,1.45,1.218,1.218,0,0,1-.765.1q-8.012.009-16.023,0c-1.463,0-1.785.289-2.044,1.747q-.537,3.023-1.114,6.039c-.043.224.018.56-.424.54-.694-.031-1.391-.008-2.153-.008C16.9,9,17.593,6.119,18.328,3.248a1.629,1.629,0,0,1,1.705-1.177c1.149-.013,2.3,0,3.448-.006.756-.007,1.16-.374,1.155-1.017s-.419-1-1.175-1.006c-1.059-.011-2.119,0-3.178,0a3.791,3.791,0,0,0-4.062,3.193c-.667,2.752-1.352,5.5-2.006,8.256-.094.4-.235.554-.659.576-1.439.072-2.879.163-4.312.31-.525.054-.624-.069-.631-.579A3.419,3.419,0,0,0,5.649,8.321a11.658,11.658,0,0,0-1.62-.037C2.6,8.284,2.006,8.871,2,10.278Q2,14.335,2,18.391q0,3.347,0,6.694c0,.266.069.555-.379.52A1.571,1.571,0,0,0,0,26.671v4.057A1.955,1.955,0,0,0,1.96,31.7c1.35-.062,2.7,0,4.056-.028.432-.01.616.1.728.533a6.935,6.935,0,0,0,6.86,5.408,6.9,6.9,0,0,0,6.856-5.326c.13-.5.322-.615.8-.614,5.364.017,10.727.011,16.091.01a3.7,3.7,0,0,0,.674-.022.907.907,0,0,0,.808-.863.946.946,0,0,0-.636-1.066,1.885,1.885,0,0,0-.733-.076q-3.583,0-7.166,0-4.53,0-9.06-.005c-.238,0-.583.146-.634-.283a12.568,12.568,0,0,0-.466-1.713H48.093c-.136.492-.312.979-.4,1.482-.069.4-.214.541-.639.531-1.351-.031-2.7-.018-4.056-.009-.791.005-1.227.392-1.212,1.043.014.62.438.977,1.2.981,1.352.008,2.7.016,4.056-.006.42-.007.611.076.723.544a7.074,7.074,0,0,0,13.712.123c.148-.585.378-.677.9-.669,1.78.028,3.56.02,5.341.007a1.407,1.407,0,0,0,1.524-1.514c.015-.946.007-1.893,0-2.84M21.786,6.11c.063-.359.216-.469.58-.468q8.543.017,17.087.007c.229,0,.436-.007.571.246,1.07,1.991,2.15,3.977,3.255,6.016H20.734c.357-1.955.714-3.876,1.052-5.8M4.022,16.524c.029-.967.009-1.935.009-2.9,0-.945.019-1.891-.008-2.835-.011-.388.114-.479.489-.484,1.626-.02,2.089.421,2.089,2.056,0,.653.02,1.306-.007,1.958A2.674,2.674,0,0,1,4.5,16.886c-.332.073-.493.053-.48-.363m2.61,12.82c-.052.272-.177.317-.407.316-1.285-.005-2.57-.008-3.854,0-.259,0-.381-.072-.343-.341a.349.349,0,0,0,0-.067c-.084-1.625-.084-1.625,1.561-1.625H7.065c-.163.631-.329,1.167-.433,1.715M13.62,35.6a5.092,5.092,0,0,1-5.083-4.989A5.068,5.068,0,1,1,13.62,35.6m5.332-10a.754.754,0,0,1-.518-.262,7.025,7.025,0,0,0-9.623,0,.908.908,0,0,1-.655.267c-1.217-.012-2.434-.021-3.651,0-.386.008-.486-.109-.483-.488q.028-2.839,0-5.679c0-.375.108-.462.474-.514a4.576,4.576,0,0,0,4.054-4c.067-.395.223-.507.6-.539a110.177,110.177,0,0,1,11.543-.435c.426.008.52.132.524.537a29.288,29.288,0,0,0,.108,3.78,11.434,11.434,0,0,0,1.468,4.169c.584,1.01,1.159,2.024,1.806,3.156-1.956,0-3.8,0-5.644,0m35.668,10a5.057,5.057,0,0,1-5.046-5.01,5.061,5.061,0,1,1,10.122.03A5.055,5.055,0,0,1,54.621,35.6M64.787,22.455c-.318.272-1.029.092-1.566.1-.473.005-.948.021-1.418-.02a1.092,1.092,0,0,1-1.078-1.154c-.061-1.958.037-2.311,2.7-2.2.373.04,1.1-.242,1.385.1.27.328.114,1.029.1,1.565-.017.553.256,1.287-.118,1.607m.918,7.2c-1.194,0-2.387-.011-3.581.007-.324.005-.458-.075-.518-.419-.092-.525-.276-1.035-.439-1.616,1.895,0,3.741.007,5.587-.007.332,0,.461.057.471.433.045,1.6.06,1.6-1.52,1.6" transform="translate(0.001 -0.001)" fill="#34bc85"/>
        <path id="Trazado_728110" data-name="Trazado 728110" d="M72.058,45.78a.893.893,0,0,0-.822,1.046.905.905,0,0,0,.959.925c.336.017.674,0,1.012,0v0c.36,0,.721.018,1.079,0a.99.99,0,0,0,.125-1.958,8.693,8.693,0,0,0-2.353-.007" transform="translate(-45.446 -29.159)" fill="#34bc85"/>
        <path id="Trazado_728111" data-name="Trazado 728111" d="M145.339,75.571a3.184,3.184,0,0,0-3.169,3.114,3.169,3.169,0,1,0,6.337,0,3.181,3.181,0,0,0-3.168-3.115m.067,4.321a1.144,1.144,0,1,1,1.07-1.156,1.122,1.122,0,0,1-1.07,1.156" transform="translate(-90.703 -48.213)" fill="#34bc85"/>
        <path id="Trazado_728112" data-name="Trazado 728112" d="M31.975,75.572A3.22,3.22,0,0,0,28.809,78.7a3.148,3.148,0,0,0,3.2,3.213,3.116,3.116,0,0,0,3.15-3.246,3.178,3.178,0,0,0-3.183-3.1m-.041,4.321a1.143,1.143,0,0,1,.081-2.285,1.143,1.143,0,1,1-.081,2.285" transform="translate(-18.38 -48.214)" fill="#34bc85"/>
      </g>
    </g>
  </g>
</svg>
