<svg xmlns="http://www.w3.org/2000/svg" xmlns:xlink="http://www.w3.org/1999/xlink" width="88" height="88" viewBox="0 0 88 88">
  <defs>
    <clipPath id="clip-path">
      <path id="path2565" d="M0-682.665H60v60H0Z" transform="translate(0 682.665)" fill="#fff"/>
    </clipPath>
  </defs>
  <g id="Grupo_983791" data-name="Grupo 983791" transform="translate(-756 -1417)">
    <g id="Grupo_960922" data-name="Grupo 960922" transform="translate(470 -158)">
      <circle id="Elipse_4813" data-name="Elipse 4813" cx="44" cy="44" r="44" transform="translate(286 1575)" fill="#0e494d"/>
    </g>
    <g id="g2559" transform="translate(770 2113.665)">
      <g id="g2561" transform="translate(0 -682.665)">
        <g id="g2563" clip-path="url(#clip-path)">
          <g id="g2569" transform="translate(47.602 10.274)">
            <path id="path2571" d="M-11.238,15.015a1.166,1.166,0,0,1-.585-.157,1.172,1.172,0,0,1-.429-1.6l8.431-14.6a4,4,0,0,0,.4-3.054A4,4,0,0,0-5.294-6.844l-7.455-4.3a1.172,1.172,0,0,1-.429-1.6,1.172,1.172,0,0,1,1.6-.429l7.455,4.3A6.327,6.327,0,0,1-1.155-5.007,6.327,6.327,0,0,1-1.791-.174l-8.431,14.6A1.171,1.171,0,0,1-11.238,15.015Z" transform="translate(13.336 13.336)" fill="#fff"/>
          </g>
          <g id="g2573" transform="translate(9.334 0.002)">
            <path id="path2575" d="M-165.883-434.3a1.166,1.166,0,0,1-.585-.157l-12.211-7.05a6.327,6.327,0,0,1-2.968-3.867,6.327,6.327,0,0,1,.636-4.833l13.881-24.043a6.376,6.376,0,0,1,8.7-2.331l7.455,4.3a1.172,1.172,0,0,1,.429,1.6,1.172,1.172,0,0,1-1.6.429l-7.455-4.3a4.03,4.03,0,0,0-5.5,1.473l-13.881,24.043a4,4,0,0,0-.4,3.055,4,4,0,0,0,1.876,2.444l12.211,7.05a1.172,1.172,0,0,1,.429,1.6A1.172,1.172,0,0,1-165.883-434.3Z" transform="translate(181.867 477.431)" fill="#fff"/>
          </g>
          <g id="g2577" transform="translate(19.433 10.999)">
            <path id="path2579" d="M-260.71-495.187a1.172,1.172,0,0,1-1.172-1.172v-11.88a1.172,1.172,0,0,1,.344-.83,17.334,17.334,0,0,0,5.129-12.357v-9.606a1.382,1.382,0,0,0-1.381-1.381,1.382,1.382,0,0,0-1.381,1.37v4.375a1.172,1.172,0,0,1-1.172,1.172h0a1.172,1.172,0,0,1-1.172-1.172v-4.364c0-.006,0-.012,0-.019v-6.623a1.382,1.382,0,0,0-1.381-1.381,1.382,1.382,0,0,0-1.381,1.381v11.006a1.172,1.172,0,0,1-1.172,1.172,1.172,1.172,0,0,1-1.172-1.172v-13.8A1.382,1.382,0,0,0-268-541.844a1.382,1.382,0,0,0-1.381,1.381v13.8a1.172,1.172,0,0,1-1.172,1.172,1.172,1.172,0,0,1-1.172-1.172v-11.006a1.382,1.382,0,0,0-1.381-1.381,1.382,1.382,0,0,0-1.381,1.381v13.307h0c0,.008,0,.016,0,.024v4.853a1.172,1.172,0,0,1-.842,1.125,1.172,1.172,0,0,1-1.316-.493l-3.459-5.4a1.836,1.836,0,0,0-2.109-.757,1.828,1.828,0,0,0-1.2,2.251l.1.341a24.707,24.707,0,0,0,9.353,13.259,1.172,1.172,0,0,1,.49.953v11.851a1.172,1.172,0,0,1-1.172,1.172,1.172,1.172,0,0,1-1.172-1.172v-11.257a27.065,27.065,0,0,1-9.753-14.163l-.1-.341a4.162,4.162,0,0,1,2.735-5.125,4.182,4.182,0,0,1,4.8,1.723l1.3,2.03v-9.659h0c0-.008,0-.016,0-.024v-4.5a3.729,3.729,0,0,1,3.725-3.724,3.7,3.7,0,0,1,1.437.288A3.731,3.731,0,0,1-268-544.188a3.731,3.731,0,0,1,3.669,3.079,3.7,3.7,0,0,1,1.437-.288,3.729,3.729,0,0,1,3.725,3.724v3.182a3.7,3.7,0,0,1,1.381-.265,3.729,3.729,0,0,1,3.725,3.725v9.606a19.653,19.653,0,0,1-5.473,13.665v11.4A1.172,1.172,0,0,1-260.71-495.187Z" transform="translate(285.832 544.188)" fill="#fff"/>
          </g>
          <g id="g2581" transform="translate(0 3.505)">
            <path id="path2583" d="M-99.056-8.859a1.172,1.172,0,0,1-1.083-.723,1.172,1.172,0,0,1,.634-1.531A34.162,34.162,0,0,1-91.6-13.322a1.172,1.172,0,0,1,1.336.981A1.172,1.172,0,0,1-91.242-11a31.816,31.816,0,0,0-7.365,2.056A1.168,1.168,0,0,1-99.056-8.859Z" transform="translate(100.229 13.335)" fill="#fff"/>
          </g>
          <g id="g2585" transform="translate(13.32 3.13)">
            <path id="path2587" d="M-109.606-27.142a1.171,1.171,0,0,1-.357-.056,31.885,31.885,0,0,0-9.057-1.5,1.172,1.172,0,0,1-1.148-1.2,1.172,1.172,0,0,1,1.2-1.148,34.227,34.227,0,0,1,9.722,1.612,1.172,1.172,0,0,1,.76,1.473A1.172,1.172,0,0,1-109.606-27.142Z" transform="translate(120.168 31.043)" fill="#fff"/>
          </g>
          <g id="g2589" transform="translate(0 11.457)">
            <path id="path2591" d="M-151.019-11.233a1.172,1.172,0,0,1-1.084-.726,1.172,1.172,0,0,1,.638-1.53,25.5,25.5,0,0,1,12.793-1.719,1.172,1.172,0,0,1,1.02,1.306,1.172,1.172,0,0,1-1.306,1.02,23.155,23.155,0,0,0-11.615,1.56A1.169,1.169,0,0,1-151.019-11.233Z" transform="translate(152.191 15.398)" fill="#fff"/>
          </g>
          <g id="g2593" transform="translate(0 20.061)">
            <path id="path2595" d="M-36.587-10.013a1.172,1.172,0,0,1-1.028-.607,1.172,1.172,0,0,1,.462-1.592,17.014,17.014,0,0,1,2.306-1.052,1.172,1.172,0,0,1,1.5.694,1.172,1.172,0,0,1-.694,1.5,14.663,14.663,0,0,0-1.987.907A1.167,1.167,0,0,1-36.587-10.013Z" transform="translate(37.76 13.337)" fill="#fff"/>
          </g>
          <g id="g2597" transform="translate(7.93 19.085)">
            <path id="path2599" d="M-71.152-23.017a1.168,1.168,0,0,1-.44-.086,14.658,14.658,0,0,0-5.265-1.073,1.172,1.172,0,0,1-1.151-1.193,1.172,1.172,0,0,1,1.193-1.151,16.993,16.993,0,0,1,6.1,1.245,1.172,1.172,0,0,1,.646,1.526A1.172,1.172,0,0,1-71.152-23.017Z" transform="translate(78.008 26.52)" fill="#fff"/>
          </g>
          <g id="g2601" transform="translate(44.207 8.81)">
            <path id="path2603" transform="translate(0)" fill="#fff"/>
          </g>
        </g>
      </g>
    </g>
  </g>
</svg>
