<svg xmlns="http://www.w3.org/2000/svg" width="88" height="88" viewBox="0 0 88 88">
  <g id="Grupo_983824" data-name="Grupo 983824" transform="translate(-1071 -1364)">
    <g id="Grupo_960924" data-name="Grupo 960924" transform="translate(785 -211)">
      <circle id="Elipse_4813" data-name="Elipse 4813" cx="44" cy="44" r="44" transform="translate(286 1575)" fill="#0e494d"/>
    </g>
    <g id="plancha-de-vapor" transform="translate(1055.214 1378)">
      <path id="Trazado_728162" data-name="Trazado 728162" d="M346.247,71.761a1.191,1.191,0,0,1-1.191-1.191V58.039a8.364,8.364,0,0,1,1.111-4.162l2.236-3.891V26.933c0-4.9-1.968-8.213-6.908-11.377V65.344a1.191,1.191,0,0,1-2.381,0V13.457a1.191,1.191,0,0,1,1.773-1.038c4.894,2.744,9.9,6.613,9.9,14.514V50.3a1.191,1.191,0,0,1-.158.593l-2.395,4.166a5.979,5.979,0,0,0-.794,2.975V70.57A1.191,1.191,0,0,1,346.247,71.761Z" transform="translate(-268.979 -10.807)" fill="#fff"/>
      <path id="Trazado_728163" data-name="Trazado 728163" d="M299.132,51.5h-3.219a3.54,3.54,0,0,1-3.536-3.536V15.8a3.54,3.54,0,0,1,3.536-3.536h3.219a1.191,1.191,0,0,1,1.19,1.191V50.3A1.191,1.191,0,0,1,299.132,51.5Zm-3.219-36.847a1.156,1.156,0,0,0-1.155,1.155V47.959a1.156,1.156,0,0,0,1.155,1.155h2.028V14.648Z" transform="translate(-227.805 -10.807)" fill="#fff"/>
      <path id="Trazado_728164" data-name="Trazado 728164" d="M421.07,270.926h-2.739a1.191,1.191,0,0,1-1.19-1.191v-7.194a1.191,1.191,0,0,1,1.19-1.191h2.739a3.345,3.345,0,0,1,3.342,3.342v2.892A3.345,3.345,0,0,1,421.07,270.926Zm-1.548-2.381h1.548a.962.962,0,0,0,.961-.961v-2.892a.962.962,0,0,0-.961-.961h-1.548Z" transform="translate(-337.716 -230.237)" fill="#fff"/>
      <path id="Trazado_728165" data-name="Trazado 728165" d="M57.434,17.251a5.648,5.648,0,0,1-4.967-2.986,4.8,4.8,0,0,1-1.829-9.424,6.153,6.153,0,0,1,12-.116h6.846a1.191,1.191,0,1,1,0,2.381H61.6a1.191,1.191,0,0,1-1.189-1.135,3.77,3.77,0,0,0-7.531,0A1.191,1.191,0,0,1,51.7,7.106a2.42,2.42,0,1,0-.006,4.84,2.4,2.4,0,0,0,.988-.211,1.191,1.191,0,0,1,1.633.766,3.245,3.245,0,0,0,6.175.23,1.191,1.191,0,0,1,1.119-.785h7.877a1.191,1.191,0,0,1,0,2.381H62.369A5.647,5.647,0,0,1,57.434,17.251Z" transform="translate(-11.542 0)" fill="#fff"/>
      <path id="Trazado_728166" data-name="Trazado 728166" d="M46.642,197.83a7.024,7.024,0,0,1-6.483-4.248,5.309,5.309,0,1,1-1.065-10.509q.093,0,.185,0a6.387,6.387,0,0,1,12.279,0H57.94a1.191,1.191,0,0,1,0,2.381H50.582a1.191,1.191,0,0,1-1.183-1.061,4,4,0,0,0-7.973.125,1.191,1.191,0,0,1-1.517,1.052,2.927,2.927,0,1,0-.814,5.738,2.9,2.9,0,0,0,1.293-.3,1.191,1.191,0,0,1,1.688.8,4.684,4.684,0,0,0,9.216-.473,1.191,1.191,0,0,1,1.182-1.047H57.94a1.191,1.191,0,1,1,0,2.381H53.446A7.073,7.073,0,0,1,46.642,197.83Z" transform="translate(0 -157.203)" fill="#fff"/>
      <path id="Trazado_728167" data-name="Trazado 728167" d="M81.376,222.661a1.19,1.19,0,0,1-1.029-.591,2.416,2.416,0,0,0-1.407-1.043,1.191,1.191,0,0,1,.471-2.334A4.754,4.754,0,0,1,82.4,220.87a1.191,1.191,0,0,1-1.027,1.791Z" transform="translate(-38.936 -192.636)" fill="#fff"/>
      <path id="Trazado_728168" data-name="Trazado 728168" d="M154.143,44.8a1.191,1.191,0,0,1-.912-1.955,3.544,3.544,0,0,0,.621-1.951,1.191,1.191,0,0,1,2.381.006,5.89,5.89,0,0,1-1.177,3.474A1.188,1.188,0,0,1,154.143,44.8Z" transform="translate(-104.98 -34.988)" fill="#fff"/>
      <path id="Línea_222" data-name="Línea 222" transform="translate(71.326 59.764)" fill="#fff"/>
    </g>
  </g>
</svg>
