<svg xmlns="http://www.w3.org/2000/svg" xmlns:xlink="http://www.w3.org/1999/xlink" width="73" height="73" viewBox="0 0 73 73">
  <defs>
    <clipPath id="clip-path">
      <rect id="Rect치ngulo_344175" data-name="Rect치ngulo 344175" width="61.009" height="61.02" fill="#34bc85"/>
    </clipPath>
  </defs>
  <g id="Grupo_960910" data-name="Grupo 960910" transform="translate(-297 -741)">
    <rect id="Rect치ngulo_344173" data-name="Rect치ngulo 344173" width="73" height="73" transform="translate(297 741)" fill="none"/>
    <g id="Grupo_960913" data-name="Grupo 960913" transform="translate(303 747)">
      <g id="Grupo_960913-2" data-name="Grupo 960913" clip-path="url(#clip-path)">
        <path id="Trazado_728113" data-name="Trazado 728113" d="M58.149,61.02H56a10.588,10.588,0,0,1-1.892-1.183c-2.091-2.008-4.115-4.085-6.169-6.132a2.117,2.117,0,0,1-.672-1.714.716.716,0,0,0-.1-.487c-.743-.789-1.511-1.556-2.174-2.231-1.415.744-2.717,1.416-4,2.12a.75.75,0,0,0-.315.531c-.04.613-.009,1.231-.017,1.846a3.035,3.035,0,0,1-3.182,3.186q-17.129.009-34.258,0A3.048,3.048,0,0,1,0,53.74Q0,28.476,0,3.211A3.039,3.039,0,0,1,3.226.006Q16.869,0,30.513,0a3.3,3.3,0,0,1,2.453,1.018q3.321,3.335,6.658,6.655a3.355,3.355,0,0,1,1.046,2.561c-.027,1.509.036,3.021-.027,4.528a1.079,1.079,0,0,0,.807,1.207A19.192,19.192,0,0,1,51.63,40.263C51,41.875,50.113,43.386,49.3,45.03c.644.635,1.386,1.379,2.147,2.1a.67.67,0,0,0,.47.151,2.226,2.226,0,0,1,1.862.747c1.818,1.833,3.638,3.665,5.48,5.474a6.38,6.38,0,0,1,1.748,2.509V58.16c-.179.346-.346.7-.537,1.036a4.754,4.754,0,0,1-2.323,1.824M38.612,52.251a.573.573,0,0,0-.111-.017c-.077.014-.155.028-.231.047a19.041,19.041,0,0,1-14.776-2.238,1.824,1.824,0,0,0-.9-.207q-8.489-.018-16.977-.009c-.2,0-.4.009-.6-.008a1.016,1.016,0,0,1-.957-.964,1.029,1.029,0,0,1,.879-1.041,3.991,3.991,0,0,1,.595-.018H20.475c-.567-.6-1.065-1.087-1.508-1.618a1.118,1.118,0,0,0-.97-.421c-4.17.015-8.34.009-12.51.008a3.2,3.2,0,0,1-.594-.025,1.007,1.007,0,0,1,.066-1.991,4.714,4.714,0,0,1,.6-.013H17.119c-.316-.6-.606-1.071-.824-1.578a.7.7,0,0,0-.773-.461c-3.3.015-6.593.009-9.889.008a4.767,4.767,0,0,1-.654-.017,1.031,1.031,0,0,1-.91-1.073,1.014,1.014,0,0,1,.984-.935c.178-.013.357-.006.536-.006h9.628a12.806,12.806,0,0,1-.4-1.494c-.069-.469-.3-.549-.718-.547-2.86.016-5.719.01-8.578,0a2.621,2.621,0,0,1-.762-.085.914.914,0,0,1-.677-1,.935.935,0,0,1,.854-.923,4.089,4.089,0,0,1,.594-.021h8.8c-.036-.718-.067-1.356-.1-2.036H10.391c-1.688,0-3.376.006-5.064,0-.795,0-1.27-.409-1.26-1.037.01-.611.463-.981,1.232-1,.457-.009.914,0,1.37,0,2.383,0,4.766.007,7.148-.014.194,0,.517-.167.557-.316a15.962,15.962,0,0,0,.279-1.711H5.581c-1.025,0-1.515-.33-1.513-1.015s.5-1.022,1.515-1.022c3.038,0,6.076,0,9.114-.009.208,0,.535-.07.6-.208.273-.558.467-1.156.721-1.819h-.73q-5,0-10.008,0c-.759,0-1.217-.394-1.215-1.007s.471-1,1.217-1.023c.159,0,.318,0,.477,0,3.614,0,7.228,0,10.842-.009a.967.967,0,0,0,.678-.208c.71-.894,1.372-1.826,2.1-2.814h-.664q-6.2,0-12.391,0A2.068,2.068,0,0,1,4.062,18.1q-.007-5.9,0-11.8A2.055,2.055,0,0,1,6.287,4.067q9.978-.007,19.956,0a2.053,2.053,0,0,1,2.229,2.226c.006,2.641,0,5.282,0,7.924v.718A19.184,19.184,0,0,1,38.6,14.92V10.163h-.666c-1.767,0-3.535.01-5.3,0a2,2,0,0,1-2.124-2.13c-.009-1.251,0-2.5,0-3.754V2.034H3.59c-1.3,0-1.56.263-1.56,1.572V53.354c0,1.3.267,1.573,1.566,1.573H37.074a3.886,3.886,0,0,0,.654-.019.927.927,0,0,0,.873-.84c.046-.606.011-1.217.011-1.816M16.279,33.571h22.8a4.932,4.932,0,0,1,.713.022.993.993,0,0,1,.134,1.939,3.214,3.214,0,0,1-.825.071q-10.962.006-21.923,0h-.775a12.181,12.181,0,0,1,.219,1.347c.031.612.344.7.889.7,5.858-.019,11.716-.012,17.574-.012,1.489,0,2.979-.007,4.468,0a.976.976,0,0,1,1.1.988,1.014,1.014,0,0,1-1.068,1.037c-.178.011-.357,0-.536,0H17.389c.238.548.458,1.009.637,1.485a.8.8,0,0,0,.9.559q10.1-.027,20.2-.012c.2,0,.4-.009.6.008a.971.971,0,0,1,.936.968.989.989,0,0,1-.869,1.037,4.435,4.435,0,0,1-.654.018H19.58c.5.594.909,1.065,1.294,1.559a1.208,1.208,0,0,0,1.067.483c3.733-.02,7.467-.012,11.2-.01a3.379,3.379,0,0,1,.594.023,1.009,1.009,0,0,1-.049,1.993,3.929,3.929,0,0,1-.535.014q-4.319,0-8.639,0c-.183,0-.366.019-.634.034.147.117.205.169.269.213a17.2,17.2,0,0,0,19.265-.333.889.889,0,0,0,.3-.626q.022-13.525,0-27.05a.871.871,0,0,0-.3-.625,16.964,16.964,0,0,0-11.425-3.064c-.354.028-.472.172-.466.522.018,1.052.011,2.1,0,3.158a3.065,3.065,0,0,1-3.372,3.355c-2.681,0-5.362,0-8.043.008-.2,0-.488.032-.585.162-.422.563-.787,1.167-1.245,1.865H39.026c.2,0,.4-.01.6.006a1,1,0,0,1,1.033,1.009A.988.988,0,0,1,39.58,27.45c-.2.01-.4,0-.6,0H18.193a1.694,1.694,0,0,0-.474.01c-.147.044-.346.139-.39.26-.2.551-.361,1.118-.562,1.768h.851q10.753,0,21.506,0a3.491,3.491,0,0,1,.769.052.994.994,0,0,1,0,1.931,3.776,3.776,0,0,1-.829.055q-10.9,0-21.8,0a1.267,1.267,0,0,0-.471.013c-.163.071-.393.216-.412.353-.071.526-.068,1.061-.1,1.672M26.444,6.132H6.125V18.317c.251,0,.483,0,.715,0q7.312.059,14.626.111c.1,0,.207-.094.306-.151,1.455-.843,2.911-1.683,4.357-2.539a.632.632,0,0,0,.3-.423c.018-3.037.013-6.075.013-9.182M45.8,21.473V45.7a17.124,17.124,0,0,0,0-24.224m3.56,30.689c2.078,2.1,4.134,4.19,6.206,6.263a1.847,1.847,0,0,0,1.7.512,1.929,1.929,0,0,0,1.594-1.345,1.992,1.992,0,0,0-.572-2.169q-2.941-2.946-5.887-5.885a1.906,1.906,0,0,0-.243-.183l-2.8,2.806M29.446,16.793a17.431,17.431,0,0,0-8.1,4.552c2.51,0,4.843.007,7.176-.006a.832.832,0,0,0,.908-.774c.051-1.237.017-2.478.017-3.773m3.123-8.724h4.376L32.569,3.692ZM46.557,47.864l2.01,2.023,1.276-1.281-1.971-1.968-1.315,1.226" transform="translate(0 0)" fill="#34bc85"/>
      </g>
    </g>
  </g>
</svg>
