<svg xmlns="http://www.w3.org/2000/svg" xmlns:xlink="http://www.w3.org/1999/xlink" width="88" height="88" viewBox="0 0 88 88">
  <defs>
    <clipPath id="clip-path">
      <rect id="Rectángulo_344258" data-name="Rectángulo 344258" width="64.176" height="64.015" fill="#fff"/>
    </clipPath>
  </defs>
  <g id="Grupo_983771" data-name="Grupo 983771" transform="translate(-1071 -762)">
    <g id="Grupo_983748" data-name="Grupo 983748" transform="translate(785 -813)">
      <circle id="Elipse_4813" data-name="Elipse 4813" cx="44" cy="44" r="44" transform="translate(286 1575)" fill="#0e494d"/>
    </g>
    <g id="Grupo_983770" data-name="Grupo 983770" transform="translate(1083 774)">
      <g id="Grupo_983769" data-name="Grupo 983769" clip-path="url(#clip-path)">
        <path id="Trazado_728142" data-name="Trazado 728142" d="M6.241,22.607c-1.2-1.188-2.363-2.351-3.538-3.5-.405-.4-.709-.815-.444-1.413a1.191,1.191,0,0,1,1.271-.652c4.076.008,8.152,0,12.228.006,1,0,1.367.365,1.367,1.371,0,4.077,0,8.154.006,12.23a1.19,1.19,0,0,1-.657,1.269c-.6.263-1.014-.044-1.413-.447-.97-.983-1.95-1.956-2.929-2.931-.153-.153-.319-.295-.641-.591-.817,1.682-1.706,3.226-2.343,4.867A24.593,24.593,0,0,0,20.676,63.421c1.157.6,1.282,1,.695,2.175-.674,1.354-1.344,2.711-2.025,4.061-.424.84-.929,1.029-1.734.6C8.04,65.164,2.2,57.3.445,46.591A31.024,31.024,0,0,1,6.009,22.977c.063-.09.117-.186.232-.37M5.78,19.213c.8.777,1.476,1.419,2.137,2.075,1.069,1.06,1.067,1.256.173,2.47A29.216,29.216,0,0,0,2.34,44.815a29.368,29.368,0,0,0,9.568,18.932,28.4,28.4,0,0,0,5.9,4.2l1.42-2.848c-.237-.143-.424-.259-.613-.37a26.758,26.758,0,0,1-8.607-38.137c1.157-1.7,1.485-1.729,2.93-.283l2.018,2.018V19.213Z" transform="translate(0 -9.568)" fill="#fff"/>
        <path id="Trazado_728143" data-name="Trazado 728143" d="M112.369,55.217c1.2,1.195,2.342,2.346,3.5,3.489.4.394.733.8.489,1.406-.254.63-.787.693-1.379.692-4.009-.009-8.018,0-12.027,0-1.142,0-1.477-.331-1.477-1.463q0-6.048-.005-12.1c0-.572.083-1.073.677-1.322s1.013.073,1.407.473c1.109,1.124,2.226,2.239,3.408,3.427.192-.282.357-.5.5-.74a24.627,24.627,0,0,0-9.614-34.7c-1.047-.544-1.189-.971-.665-2.028.691-1.4,1.379-2.792,2.08-4.182.419-.831.927-1.013,1.738-.578,9.913,5.31,15.79,13.51,17.291,24.665a31.13,31.13,0,0,1-5.639,22.518c-.087.125-.165.257-.284.442M99.38,12.738c.254.159.475.3.7.438A26.738,26.738,0,0,1,108.26,51.73c-.748,1.047-1.31,1.106-2.2.194-.768-.784-1.512-1.592-2.266-2.389l-.132.132v8.956h8.958l.1-.138c-.719-.684-1.446-1.36-2.155-2.055-.911-.894-.918-1.179-.15-2.215a29.008,29.008,0,0,0,5.764-21.688C114.9,22.769,109.9,15.383,101.5,10.287c-.22-.133-.456-.237-.72-.373l-1.4,2.824" transform="translate(-54.41 -4.136)" fill="#fff"/>
        <path id="Trazado_728144" data-name="Trazado 728144" d="M43.943,49.855q0-6.781,0-13.562a4.292,4.292,0,0,1,4.628-4.62c4.386,0,8.772.007,13.158-.009a1.837,1.837,0,0,1,1.42.583q2.932,2.972,5.9,5.905a1.773,1.773,0,0,1,.556,1.363Q69.591,51.507,69.6,63.5a4.282,4.282,0,0,1-4.52,4.529q-8.282.007-16.565,0a4.288,4.288,0,0,1-4.571-4.545q-.006-6.814,0-13.629M61.048,33.81h-.735q-5.879,0-11.758,0a2.191,2.191,0,0,0-2.473,2.458q0,13.565,0,27.131a2.2,2.2,0,0,0,2.508,2.491h16.3c1.78,0,2.572-.789,2.572-2.562q0-11.16,0-22.32v-.783c-1.727,0-3.391,0-5.054,0-.995,0-1.357-.371-1.359-1.379,0-1.646,0-3.292,0-5.036m2.167,4.218h2.434l-2.434-2.5Z" transform="translate(-24.677 -17.781)" fill="#fff"/>
        <path id="Trazado_728145" data-name="Trazado 728145" d="M58.666,6.011c.1,1.374-.161,1.663-1.157,1.846q-2,.367-3.978.808c-.883.2-1.323,0-1.584-.839Q51.2,5.409,50.494,2.979a1.015,1.015,0,0,1,.769-1.435Q54.087.915,56.935.4a1.023,1.023,0,0,1,1.218,1.019c.2,1.655.371,3.313.513,4.6M52.809,3.283l.934,3.09L56.489,5.8l-.357-3.189-3.323.671" transform="translate(-28.317 -0.211)" fill="#fff"/>
        <path id="Trazado_728146" data-name="Trazado 728146" d="M77.9,0c1.886.4,3.777.772,5.657,1.2a.978.978,0,0,1,.8,1.314C83.9,4.249,83.4,5.977,82.883,7.7a1.037,1.037,0,0,1-1.332.7c-1.46-.268-2.92-.54-4.381-.807a1.047,1.047,0,0,1-.991-1.193q.2-2.625.458-5.245C76.706.456,77.17.1,77.9,0m.772,2.335-.278,3.211,2.756.494.868-3.082-3.346-.623" transform="translate(-42.778)" fill="#fff"/>
        <path id="Trazado_728147" data-name="Trazado 728147" d="M77.161,129.568c-.1-1.345.178-1.659,1.109-1.832q2.027-.375,4.043-.82c.872-.192,1.311.01,1.573.86q.736,2.386,1.436,4.783c.227.775-.013,1.317-.775,1.489-1.881.424-3.775.8-5.673,1.143-.656.119-1.116-.317-1.2-1.039-.2-1.655-.371-3.313-.512-4.584m2.179.212.351,3.2,3.331-.679-.937-3.075-2.744.558" transform="translate(-43.322 -71.236)" fill="#fff"/>
        <path id="Trazado_728148" data-name="Trazado 728148" d="M59.662,129.659c-.129,1.434-.265,3-.413,4.575-.076.809-.541,1.252-1.332,1.121-1.858-.306-3.71-.658-5.554-1.043a1.015,1.015,0,0,1-.834-1.406c.449-1.671.929-3.334,1.423-4.993a1.061,1.061,0,0,1,1.384-.806l4.382.807c.78.143,1.018.544.946,1.744m-2.176.293-2.764-.5-.865,3.09,3.336.613c.1-1.113.194-2.124.293-3.2" transform="translate(-28.903 -71.363)" fill="#fff"/>
        <rect id="Rectángulo_344248" data-name="Rectángulo 344248" width="10.63" height="2.049" transform="translate(25.727 24.623)" fill="#fff"/>
        <rect id="Rectángulo_344249" data-name="Rectángulo 344249" width="10.606" height="2.058" transform="translate(23.573 33.173)" fill="#fff"/>
        <rect id="Rectángulo_344250" data-name="Rectángulo 344250" width="8.468" height="2.061" transform="translate(32.146 28.906)" fill="#fff"/>
        <rect id="Rectángulo_344251" data-name="Rectángulo 344251" width="8.468" height="2.059" transform="translate(23.573 37.45)" fill="#fff"/>
        <rect id="Rectángulo_344252" data-name="Rectángulo 344252" width="6.33" height="2.057" transform="translate(23.596 28.908)" fill="#fff"/>
        <rect id="Rectángulo_344253" data-name="Rectángulo 344253" width="4.193" height="2.058" transform="translate(23.572 18.202)" fill="#fff"/>
        <rect id="Rectángulo_344254" data-name="Rectángulo 344254" width="4.204" height="2.057" transform="translate(36.401 33.185)" fill="#fff"/>
        <rect id="Rectángulo_344255" data-name="Rectángulo 344255" width="4.078" height="2.076" transform="translate(34.398 37.454)" fill="#fff"/>
        <rect id="Rectángulo_344256" data-name="Rectángulo 344256" width="4.074" height="2.072" transform="translate(35.469 41.733)" fill="#fff"/>
        <rect id="Rectángulo_344257" data-name="Rectángulo 344257" width="2.079" height="2.032" transform="translate(38.554 24.64)" fill="#fff"/>
      </g>
    </g>
  </g>
</svg>
