<svg xmlns="http://www.w3.org/2000/svg" xmlns:xlink="http://www.w3.org/1999/xlink" width="88" height="88" viewBox="0 0 88 88">
  <defs>
    <clipPath id="clip-path">
      <rect id="Rectángulo_344259" data-name="Rectángulo 344259" width="49.488" height="47.839" fill="#fff"/>
    </clipPath>
  </defs>
  <g id="Grupo_983774" data-name="Grupo 983774" transform="translate(-20855 10916)">
    <g id="Grupo_983754" data-name="Grupo 983754" transform="translate(20569 -12491)">
      <circle id="Elipse_4813" data-name="Elipse 4813" cx="44" cy="44" r="44" transform="translate(286 1575)" fill="#0e494d"/>
    </g>
    <g id="Grupo_983773" data-name="Grupo 983773" transform="translate(20874 -10896)">
      <g id="Grupo_983772" data-name="Grupo 983772" clip-path="url(#clip-path)">
        <path id="Trazado_728149" data-name="Trazado 728149" d="M0,43.489V5.886c.034-.1.078-.2.1-.309A4.978,4.978,0,0,1,6.294,1.828a4.977,4.977,0,0,1,3.6,4.827c.011.511,0,1.022,0,1.546H29.629a.427.427,0,0,0,.045-.116c.005-1.224.005-2.448.012-3.671a4.733,4.733,0,0,1,.622-2.445A4.167,4.167,0,0,1,34.723.1a4.053,4.053,0,0,1,3.161,3.585c.068,1.317.044,2.639.06,3.958,0,.185,0,.37,0,.592h.6c1.949,0,3.9-.009,5.845,0a4.989,4.989,0,0,1,4.065,1.959,6.485,6.485,0,0,1,1.032,2.363V43.489a12.422,12.422,0,0,1-.98,2.273,4.805,4.805,0,0,1-4.23,2.077q-19.535-.01-39.069,0c-.161,0-.322,0-.483-.009A4.949,4.949,0,0,1,1.2,46.08,5.656,5.656,0,0,1,0,43.489M21.452,27.642v-.584c0-1.756.017-3.512-.01-5.268a1.357,1.357,0,0,1,.646-1.247c2.434-1.717,4.849-3.46,7.28-5.182a.675.675,0,0,0,.325-.632c-.014-1.466-.006-2.932-.008-4.4,0-.138-.022-.275-.037-.449H10.529c-.636,0-.637,0-.637.663q0,14.258,0,28.515a4.951,4.951,0,0,1-.025.627.743.743,0,0,1-.736.7A.743.743,0,0,1,8.3,39.8c-.048-.168-.032-.358-.091-.521a7.037,7.037,0,0,0-.667-1.674,3.168,3.168,0,0,0-3.607-1.151A3.3,3.3,0,0,0,1.653,39.6c-.025.982-.007,1.965-.006,2.948a3.357,3.357,0,0,0,3.638,3.644h38.9a3.362,3.362,0,0,0,3.655-3.675q0-14.475,0-28.949a3.359,3.359,0,0,0-3.649-3.68q-2.851-.007-5.7,0c-.169,0-.338.017-.547.029v.53c0,1.4.01,2.8-.007,4.2a.8.8,0,0,0,.384.753c2.433,1.719,4.85,3.459,7.28,5.182a1.228,1.228,0,0,1,.6,1.077q-.014,6.356,0,12.711a1.241,1.241,0,0,1-.57,1.1Q40.061,39.43,34.5,43.408a.955.955,0,0,1-1.36.008q-5.563-3.971-11.125-7.942a1.259,1.259,0,0,1-.573-1.142c.02-1.353-.007-2.707.016-4.06a.948.948,0,0,0-.408-.847c-2.964-2.354-5.911-4.727-8.878-7.078a1.523,1.523,0,0,1-.638-1.315c.019-2.207.006-4.414.01-6.621a2.5,2.5,0,0,1,.056-.623.8.8,0,0,1,1.535-.009,2.554,2.554,0,0,1,.059.67c0,2.046.008,4.092,0,6.138a.808.808,0,0,0,.341.735c.669.5,1.312,1.04,1.966,1.563l5.95,4.757m-13.21,8.21V35.3q0-14.179,0-28.359c0-.257-.008-.516-.032-.772a3.3,3.3,0,0,0-6.559.64q-.006,14.324,0,28.648c0,.119.018.238.029.382a5.12,5.12,0,0,1,6.564.013m14.93-12.741c-.035.053-.064.077-.064.1,0,1.836-.013,3.673,0,5.509a.725.725,0,0,0,.269.457c.579.488,1.183.945,1.766,1.428a.859.859,0,0,1,.241,1.229c-.307.4-.787.424-1.279.049-.315-.24-.621-.489-1.01-.8,0,.961.017,1.824-.009,2.686a.749.749,0,0,0,.373.707q5,3.554,9.982,7.132a.532.532,0,0,0,.744,0q5-3.6,10.02-7.162a.721.721,0,0,0,.346-.672c-.011-3.415-.006-6.83-.008-10.245,0-.135-.018-.27-.03-.44a2.138,2.138,0,0,0-.21.11c-2.032,1.448-4.067,2.893-6.087,4.358a.859.859,0,0,0-.266.555,12.47,12.47,0,0,1-.2,2.193c-.718,2.386-1.532,4.743-2.31,7.11a1.661,1.661,0,0,1-3.256-.011c-.651-1.986-1.276-3.982-1.964-5.955a7.531,7.531,0,0,1-.535-3.3.662.662,0,0,0-.35-.669c-1.946-1.375-3.882-2.764-5.821-4.148-.113-.081-.232-.154-.347-.231m9.814,5.725V28.22q0-4.832,0-9.663c0-.824.276-1.235.826-1.24s.825.4.825,1.229q0,4.856,0,9.712v.579h1.618V11.582H34.637c0,.351,0,.656,0,.961,0,.789.007,1.579-.025,2.366a.739.739,0,0,1-.752.736.768.768,0,0,1-.824-.655,3.548,3.548,0,0,1-.048-.671c0-.912,0-1.824,0-2.741H31.361V28.836Zm-9.295-7.4,5.963,4.26V17.177l-5.963,4.261M37.97,25.706l5.975-4.269L37.97,17.17ZM36.258,6.552c0-.921.043-1.82-.011-2.712a2.406,2.406,0,0,0-2.305-2.194,2.378,2.378,0,0,0-2.51,1.95,25.385,25.385,0,0,0-.023,2.956Zm-.292,24H31.673l2.094,6.375.1.008,2.1-6.382m-4.6-20.712h4.927c0-.429-.016-.814,0-1.2.017-.313-.094-.417-.412-.414-1.412.015-2.826.006-4.239.009a1.713,1.713,0,0,0-.281.048Z" transform="translate(-0.001 0)" fill="#fff"/>
        <path id="Trazado_728150" data-name="Trazado 728150" d="M42.614,45.312c-.788,0-1.576.017-2.363-.005-.691-.02-1.1-.553-.876-1.119a.822.822,0,0,1,.841-.526c1.592,0,3.184-.007,4.776,0a.824.824,0,0,1,.91.8.84.84,0,0,1-.876.841c-.8.026-1.608.007-2.412.007v0" transform="translate(-24.462 -27.166)" fill="#fff"/>
        <path id="Trazado_728151" data-name="Trazado 728151" d="M55.732,34.927c.836,0,1.672-.021,2.507.008a.774.774,0,0,1,.776.768.814.814,0,0,1-.717.828,1.279,1.279,0,0,1-.238.03c-1.559,0-3.118.011-4.678,0-.591-.006-.935-.333-.939-.817,0-.5.348-.815.975-.825.771-.013,1.543,0,2.315,0v.015" transform="translate(-32.632 -21.721)" fill="#fff"/>
        <path id="Trazado_728152" data-name="Trazado 728152" d="M40.991,36.609a9.741,9.741,0,0,1-.975-.068.745.745,0,0,1-.656-.816.707.707,0,0,1,.675-.748,15.736,15.736,0,0,1,1.925,0,.7.7,0,0,1,.658.765.725.725,0,0,1-.633.79c-.331.053-.671.051-.994.073" transform="translate(-24.49 -21.747)" fill="#fff"/>
      </g>
    </g>
  </g>
</svg>
