<svg xmlns="http://www.w3.org/2000/svg" xmlns:xlink="http://www.w3.org/1999/xlink" width="73" height="73" viewBox="0 0 73 73">
  <defs>
    <clipPath id="clip-path">
      <rect id="Rect치ngulo_344176" data-name="Rect치ngulo 344176" width="61.688" height="54.441" fill="#34bc85"/>
    </clipPath>
  </defs>
  <g id="Grupo_960911" data-name="Grupo 960911" transform="translate(-297 -741)">
    <rect id="Rect치ngulo_344173" data-name="Rect치ngulo 344173" width="73" height="73" transform="translate(297 741)" fill="none"/>
    <g id="Grupo_960914" data-name="Grupo 960914" transform="translate(303 750)">
      <g id="Grupo_960914-2" data-name="Grupo 960914" transform="translate(0 0)" clip-path="url(#clip-path)">
        <path id="Trazado_728114" data-name="Trazado 728114" d="M61.1,4.129A6.731,6.731,0,0,0,55.139.015c-.2-.016-.4-.014-.6-.014Q30.845,0,7.152,0A6.864,6.864,0,0,0,.326,4.8C.2,5.2.108,5.607,0,6.011V48.422c.092.367.172.737.278,1.1a6.881,6.881,0,0,0,6.2,4.9c.221.012.442.013.662.013q23.7,0,47.4,0a6.857,6.857,0,0,0,6.821-4.8c.127-.4.215-.809.321-1.213V6.011A14.779,14.779,0,0,0,61.1,4.129m-59,2.3A4.7,4.7,0,0,1,6.9,2.043c.12,0,.241,0,.361,0q23.584,0,47.167,0a4.827,4.827,0,0,1,4.712,2.724A4.045,4.045,0,0,1,59.6,6.427c.048,2.588.021,5.177.021,7.813H2.071c0-2.634-.1-5.227.028-7.81M59.645,47.273a4.776,4.776,0,0,1-3.587,4.943,5.752,5.752,0,0,1-1.488.174Q30.841,52.4,7.112,52.4a4.807,4.807,0,0,1-5.067-5.069q-.009-15.207,0-30.414c0-.176.018-.352.03-.556H59.646v.623q0,15.147,0,30.294" transform="translate(0 0)" fill="#34bc85"/>
        <path id="Trazado_728115" data-name="Trazado 728115" d="M57.842,42.511c-.653-.257-1.22.129-1.4.97q-1.571,7.441-3.136,14.882c-.3,1.432-.612,2.861-.9,4.3a1.025,1.025,0,0,0,.8,1.279,1.042,1.042,0,0,0,1.188-.853c.043-.154.075-.312.108-.469q1.672-7.941,3.344-15.882c.227-1.078.448-2.156.653-3.143a1.038,1.038,0,0,0-.656-1.079" transform="translate(-24.875 -20.15)" fill="#34bc85"/>
        <path id="Trazado_728116" data-name="Trazado 728116" d="M39.689,61.261c-1.722-1.47-3.447-2.937-5.234-4.458,1.839-1.567,3.611-3.076,5.379-4.588a2.408,2.408,0,0,0,.46-.471.939.939,0,0,0-.081-1.218.912.912,0,0,0-1.145-.239,2.457,2.457,0,0,0-.541.374q-3.006,2.552-6,5.114c-.879.751-.869,1.318.009,2.066q2.727,2.323,5.454,4.645a9.469,9.469,0,0,0,.987.786.906.906,0,0,0,1.246-.206.929.929,0,0,0,.034-1.266,3.628,3.628,0,0,0-.564-.538" transform="translate(-15.133 -23.829)" fill="#34bc85"/>
        <path id="Trazado_728117" data-name="Trazado 728117" d="M77.283,55.882c-.571-.506-1.158-.992-1.739-1.487-1.512-1.288-3.02-2.582-4.541-3.859a1.033,1.033,0,0,0-1.548.016,1.062,1.062,0,0,0,.242,1.535c.268.242.549.469.824.7l4.7,4.007c-.184.167-.326.3-.474.43q-2.5,2.128-5,4.256a1.082,1.082,0,0,0-.305,1.574c.416.5,1.017.49,1.64-.038q3.1-2.63,6.188-5.269a1.075,1.075,0,0,0,.008-1.868" transform="translate(-32.871 -23.837)" fill="#34bc85"/>
        <path id="Trazado_728118" data-name="Trazado 728118" d="M11.468,15.907a3.222,3.222,0,0,0-.111-6.442,3.222,3.222,0,1,0,.111,6.442m-.086-4.4a1.178,1.178,0,0,1,0,2.356,1.178,1.178,0,0,1,0-2.356" transform="translate(-3.883 -4.494)" fill="#34bc85"/>
        <path id="Trazado_728119" data-name="Trazado 728119" d="M49.1,16.015a3.208,3.208,0,1,0-3.222-3.193A3.194,3.194,0,0,0,49.1,16.015m-.04-4.37a1.163,1.163,0,1,1-1.136,1.165,1.166,1.166,0,0,1,1.136-1.165" transform="translate(-21.787 -4.558)" fill="#34bc85"/>
        <path id="Trazado_728120" data-name="Trazado 728120" d="M30.255,15.972a3.21,3.21,0,1,0-3.221-3.2,3.218,3.218,0,0,0,3.221,3.2M30.218,11.6A1.159,1.159,0,0,1,31.4,12.768a1.17,1.17,0,0,1-1.145,1.158,1.156,1.156,0,0,1-1.178-1.118A1.144,1.144,0,0,1,30.218,11.6" transform="translate(-12.838 -4.536)" fill="#34bc85"/>
      </g>
    </g>
  </g>
</svg>
