<svg xmlns="http://www.w3.org/2000/svg" xmlns:xlink="http://www.w3.org/1999/xlink" width="88" height="88" viewBox="0 0 88 88">
  <defs>
    <clipPath id="clip-path">
      <path id="path41" d="M0-682.665H57.335v57.335H0Z" transform="translate(0 682.665)" fill="#fff"/>
    </clipPath>
  </defs>
  <g id="Grupo_983793" data-name="Grupo 983793" transform="translate(-8573 10304)">
    <circle id="Elipse_4813" data-name="Elipse 4813" cx="44" cy="44" r="44" transform="translate(8573 -10304)" fill="#0e494d"/>
    <g id="g15" transform="translate(8589 -9606.335)">
      <g id="g17" transform="translate(21.718 -675.225)">
        <path id="path19" d="M-9.16,17.334a.84.84,0,0,1-.84-.84V-9.16A.84.84,0,0,1-9.16-10a.84.84,0,0,1,.84.84V16.494A.84.84,0,0,1-9.16,17.334Z" transform="translate(10 10)" fill="#fff"/>
      </g>
      <g id="g21" transform="translate(12.878 -675.225)">
        <path id="path23" d="M-9.16-288.124a.84.84,0,0,1-.84-.84v-25.655a.84.84,0,0,1,.84-.84.84.84,0,0,1,.84.84v25.655A.84.84,0,0,1-9.16-288.124Z" transform="translate(10 315.458)" fill="#fff"/>
      </g>
      <g id="g25" transform="translate(12.878 -669.077)">
        <path id="path27" d="M-.317-8.32H-9.16A.84.84,0,0,1-10-9.16.84.84,0,0,1-9.16-10H-.317a.84.84,0,0,1,.84.84A.84.84,0,0,1-.317-8.32Z" transform="translate(10 10)" fill="#fff"/>
      </g>
      <g id="g29" transform="translate(12.878 -661.793)">
        <path id="path31" d="M-.317-8.32H-9.16A.84.84,0,0,1-10-9.16.84.84,0,0,1-9.16-10H-.317a.84.84,0,0,1,.84.84A.84.84,0,0,1-.317-8.32Z" transform="translate(10 10)" fill="#fff"/>
      </g>
      <g id="g33" transform="translate(12.878 -654.509)">
        <path id="path35" d="M-.317-8.32H-9.16A.84.84,0,0,1-10-9.16.84.84,0,0,1-9.16-10H-.317a.84.84,0,0,1,.84.84A.84.84,0,0,1-.317-8.32Z" transform="translate(10 10)" fill="#fff"/>
      </g>
      <g id="g37" transform="translate(0 -682.665)">
        <g id="g39" clip-path="url(#clip-path)">
          <g id="g45" transform="translate(5.498 3.794)">
            <path id="path47" d="M-401.136-48.07h-6.318a.84.84,0,0,1-.84-.84.84.84,0,0,1,.84-.84h6.318a.984.984,0,0,0,.982-.982.984.984,0,0,0-.982-.982H-442.15a.984.984,0,0,0-.982.982.984.984,0,0,0,.982.982h31.314a.84.84,0,0,1,.84.84.84.84,0,0,1-.84.84H-442.15a2.665,2.665,0,0,1-2.662-2.662,2.665,2.665,0,0,1,2.662-2.662h41.014a2.665,2.665,0,0,1,2.662,2.662A2.665,2.665,0,0,1-401.136-48.07Z" transform="translate(444.812 53.395)" fill="#fff"/>
          </g>
          <g id="g49" transform="translate(9.449 37.322)">
            <path id="path51" d="M-410.053-8.32H-446.81a.84.84,0,0,1-.84-.84.84.84,0,0,1,.84-.84h36.757a.84.84,0,0,1,.84.84A.84.84,0,0,1-410.053-8.32Z" transform="translate(447.65 10)" fill="#fff"/>
          </g>
          <g id="g53" transform="translate(8.238 0)">
            <path id="path55" d="M-436.47-49.7a.84.84,0,0,1-.839-.821,3.057,3.057,0,0,0-3.039-2.973H-471.77a3.057,3.057,0,0,0-3.039,2.973.84.84,0,0,1-.858.821.84.84,0,0,1-.821-.858,4.747,4.747,0,0,1,4.719-4.615h31.421a4.747,4.747,0,0,1,4.719,4.615.84.84,0,0,1-.821.858Z" transform="translate(476.488 55.173)" fill="#fff"/>
          </g>
          <g id="g57" transform="translate(8.236 7.439)">
            <path id="path59" d="M14.168-268.544H6.7a.84.84,0,0,1-.515-.176L-8.461-280.083A4.29,4.29,0,0,1-10-283.369v-1.942a.84.84,0,0,1,.84-.84.84.84,0,0,1,.84.84v1.942a2.6,2.6,0,0,0,.917,1.982l14.39,11.163H13.88L28.3-281.41a2.581,2.581,0,0,0,.888-1.958V-310.63a.84.84,0,0,1,.84-.84.84.84,0,0,1,.84.84v27.262a4.273,4.273,0,0,1-1.509,3.262L14.683-268.72A.84.84,0,0,1,14.168-268.544Z" transform="translate(10 311.47)" fill="#fff"/>
          </g>
          <g id="g61" transform="translate(8.236 7.439)">
            <path id="path63" d="M-9.16,13.6a.84.84,0,0,1-.84-.84V-9.16A.84.84,0,0,1-9.16-10a.84.84,0,0,1,.84.84V12.76A.84.84,0,0,1-9.16,13.6Z" transform="translate(10 10)" fill="#fff"/>
          </g>
          <g id="g65" transform="translate(24.093 48.683)">
            <path id="path67" d="M-3.46-5H-7.448a2.583,2.583,0,0,1-2.58-2.58v-1.6a.84.84,0,0,1,.467-.753.84.84,0,0,1,.882.085.841.841,0,0,1,.331.707v1.558a.9.9,0,0,0,.9.9H-3.46a.9.9,0,0,0,.9-.9v-1.6a.84.84,0,0,1,.84-.84.84.84,0,0,1,.84.84v1.6A2.583,2.583,0,0,1-3.46-5Z" transform="translate(10.028 10.021)" fill="#fff"/>
          </g>
          <g id="g69" transform="translate(39.963 37.894)">
            <path id="path71" d="M-2.628-41.436H-4.9A1.649,1.649,0,0,1-6.49-42.652L-9.973-55.545a.84.84,0,0,1,.592-1.03.84.84,0,0,1,1.03.592L-4.869-43.09l2.24-.025L-4.491-59.946a.84.84,0,0,1,.744-.925.84.84,0,0,1,.925.744L-.992-43.259A1.648,1.648,0,0,1-1.4-41.982,1.648,1.648,0,0,1-2.628-41.436Z" transform="translate(10.002 60.877)" fill="#fff"/>
          </g>
          <g id="g73" transform="translate(8.65 38.107)">
            <path id="path75" d="M-27.637,9.228H-29.91a1.648,1.648,0,0,1-1.225-.547A1.648,1.648,0,0,1-31.546,7.4L-29.74-9.251A.84.84,0,0,1-28.815-10a.84.84,0,0,1,.744.926L-29.876,7.586l2.239-.038,3.4-12.678a.84.84,0,0,1,1.03-.592.84.84,0,0,1,.592,1.03l-3.432,12.7A1.648,1.648,0,0,1-27.637,9.228Z" transform="translate(31.556 10.001)" fill="#fff"/>
          </g>
        </g>
      </g>
    </g>
  </g>
</svg>
