<svg xmlns="http://www.w3.org/2000/svg" xmlns:xlink="http://www.w3.org/1999/xlink" width="88" height="88" viewBox="0 0 88 88">
  <defs>
    <clipPath id="clip-path">
      <rect id="Rectángulo_344265" data-name="Rectángulo 344265" width="51.06" height="51.038" fill="#fff"/>
    </clipPath>
  </defs>
  <g id="Grupo_983777" data-name="Grupo 983777" transform="translate(-21170 10916)">
    <g id="Grupo_983752" data-name="Grupo 983752" transform="translate(20884 -12491)">
      <circle id="Elipse_4813" data-name="Elipse 4813" cx="44" cy="44" r="44" transform="translate(286 1575)" fill="#0e494d"/>
    </g>
    <g id="Grupo_983776" data-name="Grupo 983776" transform="translate(21188 -10898)">
      <g id="Grupo_983775" data-name="Grupo 983775" clip-path="url(#clip-path)">
        <path id="Trazado_728153" data-name="Trazado 728153" d="M49.313,79.2h1.674v1.664H23.813v2.319a2.569,2.569,0,0,1-2.314,2.8,2.54,2.54,0,0,1-.5,0H2.837A2.577,2.577,0,0,1,.015,83.145q0-9.561-.008-19.121a3.012,3.012,0,0,1,.935-2.277q2.74-2.705,5.447-5.445a2.956,2.956,0,0,1,2.229-.92c4.018.015,8.039.071,12.057-.02a2.793,2.793,0,0,1,3.111,3.386H22.138c-.008-.163-.022-.333-.024-.5-.009-.9-.27-1.155-1.183-1.156H8.515v3.855a2.605,2.605,0,0,1-2.933,2.945q-1.859,0-3.718.009a.661.661,0,0,0-.149.059V83.039c0,1.012.237,1.248,1.249,1.248h17.9c1.011,0,1.249-.237,1.25-1.249v-2.1c-.517-.074-.938-.181-1.27.443A2.421,2.421,0,0,1,18,82.477a2.542,2.542,0,0,1,.078-4.9A2.477,2.477,0,0,1,20.9,78.747a.738.738,0,0,0,.777.444c1.821-.022,3.644-.01,5.546-.01V74.294c0-.764.3-1.059,1.06-1.061h4.038V69.868c0-1.68.054-1.735,1.717-1.736q1.62,0,3.24-.01c.031,0,.061-.025.144-.061V64.274c0-1.007.236-1.24,1.256-1.24h3.843V62.5c0-1.2-.007-2.408,0-3.612a.85.85,0,0,1,.952-.954q2.44-.014,4.887,0c.679,0,.957.339.957,1.109V79.2ZM44.252,59.666V79.172H47.58V59.666Zm-5.1,5.089v14.4h3.327v-14.4ZM37.4,69.882H34.06v9.283H37.4Zm-5.1,9.289v-4.2H28.956v4.2ZM6.818,58.459,3.095,62.185c.969,0,1.971.028,2.969-.012a.764.764,0,0,0,.751-.778c0-.014,0-.027,0-.041.012-.969,0-1.939,0-2.9ZM18.731,79.2a.847.847,0,1,0,.836.858v-.014a.856.856,0,0,0-.847-.848Z" transform="translate(0 -34.961)" fill="#fff"/>
        <path id="Trazado_728154" data-name="Trazado 728154" d="M61.047,20.867l-3.364,3.372c-.563.563-1.12,1.134-1.691,1.689-1.642,1.6-.87,1.265-3.166,1.3-.887.013-1.775,0-2.712,0V42.5H48.407V27.236c-.595,0-1.155-.026-1.709.019-.127.01-.256.247-.347.4a2.551,2.551,0,1,1-3.148-3.64,2.5,2.5,0,0,1,3.15,1.127.627.627,0,0,0,.641.4c2.2-.018,4.391,0,6.586-.018a.942.942,0,0,0,.607-.211c1.766-1.739,3.514-3.5,5.265-5.251a1.294,1.294,0,0,0,.111-.156A11.018,11.018,0,0,1,55.2,11.1a10.766,10.766,0,0,1,2.809-7.422,11.083,11.083,0,1,1,3.037,17.192ZM65.388,1.834c-3.371-.1-7.111,3-8.155,6.72a9.388,9.388,0,0,0,4.39,10.655,9.155,9.155,0,0,0,10.116-.665c-1.951-2.2-3.893-4.4-5.859-6.579a1.828,1.828,0,0,1-.5-1.331c.02-2.743.009-5.485.009-8.228ZM67.109,10.2h8.4A9.175,9.175,0,0,0,67.1,1.839Zm5.937,7.26c1.457-1.525,2.566-4.078,2.418-5.48h-7.29Zm-28.062,8.92a.846.846,0,1,0-.844.849h.011a.856.856,0,0,0,.833-.844Z" transform="translate(-26.274 0)" fill="#fff"/>
        <path id="Trazado_728155" data-name="Trazado 728155" d="M19.152,18.683c1.295-1.109,2.563-2.182,3.807-3.285a.725.725,0,0,0,.1-.587,2.54,2.54,0,1,1,4.64.737,2.462,2.462,0,0,1-2.8,1.109.978.978,0,0,0-1.073.245c-1.3,1.149-2.631,2.259-3.936,3.4a1.663,1.663,0,0,0-.419.638,2.513,2.513,0,0,1-2.2,1.752,2.4,2.4,0,0,1-2.465-1.317.587.587,0,0,0-.6-.37q-1.433.029-2.866,0a.544.544,0,0,0-.566.344A2.458,2.458,0,0,1,7.8,22.588a.581.581,0,0,0-.684.186c-.616.635-1.237,1.266-1.879,1.874a.7.7,0,0,0-.214.823,2.35,2.35,0,0,1-.847,2.609,2.376,2.376,0,0,1-2.733.3A2.429,2.429,0,0,1,.039,26.01a2.513,2.513,0,0,1,3.192-2.34.706.706,0,0,0,.821-.222c.623-.652,1.283-1.27,1.9-1.93a.722.722,0,0,0,.14-.578A2.562,2.562,0,0,1,10.809,19a.72.72,0,0,0,.514.3c.973.029,1.947.023,2.919,0a.637.637,0,0,0,.464-.211c1.158-1.814,2.877-1.989,4.447-.4m7.23-4.486a.846.846,0,1,0-.834.859h.013a.852.852,0,0,0,.821-.86ZM7.691,20.119a.846.846,0,1,0,.886-.8H8.564a.855.855,0,0,0-.873.8Zm9.356-.8a.846.846,0,1,0,.836.856v-.013a.852.852,0,0,0-.836-.84ZM2.583,25.263a.846.846,0,1,0,.851.842v-.013a.852.852,0,0,0-.851-.83Z" transform="translate(-0.021 -7.376)" fill="#fff"/>
        <rect id="Rectángulo_344260" data-name="Rectángulo 344260" width="10.132" height="1.635" transform="translate(9.409 34.919)" fill="#fff"/>
        <rect id="Rectángulo_344261" data-name="Rectángulo 344261" width="8.43" height="1.634" transform="translate(4.289 39.16)" fill="#fff"/>
        <rect id="Rectángulo_344262" data-name="Rectángulo 344262" width="5.04" height="1.633" transform="translate(14.499 39.161)" fill="#fff"/>
        <rect id="Rectángulo_344263" data-name="Rectángulo 344263" width="3.335" height="1.642" transform="translate(4.302 34.918)" fill="#fff"/>
        <rect id="Rectángulo_344264" data-name="Rectángulo 344264" width="3.327" height="1.654" transform="translate(4.307 43.401)" fill="#fff"/>
      </g>
    </g>
  </g>
</svg>
