<svg xmlns="http://www.w3.org/2000/svg" width="88" height="88" viewBox="0 0 88 88">
  <g id="Grupo_983794" data-name="Grupo 983794" transform="translate(-8888 10283)">
    <g id="Grupo_960927" data-name="Grupo 960927" transform="translate(8602 -11858)">
      <circle id="Elipse_4813" data-name="Elipse 4813" cx="44" cy="44" r="44" transform="translate(286 1575)" fill="#0e494d"/>
    </g>
    <g id="sello" transform="translate(8898.999 -10272.435)">
      <path id="Trazado_728162" data-name="Trazado 728162" d="M175.394,142.193a1.1,1.1,0,0,1-.1-1.269,6.65,6.65,0,0,0,.8-5.185,6.437,6.437,0,0,0-3.237-4.115,1.064,1.064,0,0,1-.523-1.148,7.522,7.522,0,0,0,.12-.759,1.1,1.1,0,0,0-1.865-.893l-5.218,5.217L133.614,165.8l-5.222,5.222a1.1,1.1,0,0,0,.9,1.865,7.6,7.6,0,0,0,.757-.119,1.064,1.064,0,0,1,1.149.522,6.437,6.437,0,0,0,4.114,3.238,6.659,6.659,0,0,0,5.177-.794,1.1,1.1,0,0,1,1.291.1,6.607,6.607,0,0,0,4.373,1.656c.2,0,.406-.009.61-.029a6.728,6.728,0,0,0,4.624-2.531,1.116,1.116,0,0,1,1.241-.349,6.624,6.624,0,0,0,5.249-.168,6.748,6.748,0,0,0,3.51-3.949,1.128,1.128,0,0,1,1.075-.75,6.808,6.808,0,0,0,4.872-1.958,6.713,6.713,0,0,0,1.962-4.861,1.147,1.147,0,0,1,.756-1.083,6.754,6.754,0,0,0,3.942-3.51,6.619,6.619,0,0,0,.171-5.236,1.121,1.121,0,0,1,.352-1.256,6.741,6.741,0,0,0,2.523-4.624A6.614,6.614,0,0,0,175.394,142.193ZM160.351,160.78a22.886,22.886,0,0,1-24.024,5.411l1.763-1.764A20.791,20.791,0,0,0,164,138.513l1.755-1.755A22.892,22.892,0,0,1,160.351,160.78Zm1.865-20.478a18.6,18.6,0,0,1-22.342,22.339Zm10.948,9.774a3.307,3.307,0,0,0-1.045,3.787,4.362,4.362,0,0,1-.11,3.5,4.548,4.548,0,0,1-2.646,2.368,3.332,3.332,0,0,0-2.265,3.206,4.5,4.5,0,0,1-4.5,4.591h-.147a3.33,3.33,0,0,0-3.148,2.256,4.539,4.539,0,0,1-2.366,2.65,4.366,4.366,0,0,1-3.51.11,3.3,3.3,0,0,0-3.77,1.044,4.518,4.518,0,0,1-3.1,1.7,4.374,4.374,0,0,1-3.309-1.076,3.218,3.218,0,0,0-2.17-.829,3.324,3.324,0,0,0-1.743.493,4.4,4.4,0,0,1-3.471.535,4.267,4.267,0,0,1-2.727-2.146,3.22,3.22,0,0,0-1.475-1.4l2.965-2.974a25.22,25.22,0,0,0,32.825-32.826l2.977-2.977a3.208,3.208,0,0,0,1.4,1.474,4.279,4.279,0,0,1,2.146,2.728,4.4,4.4,0,0,1-.54,3.478,3.269,3.269,0,0,0,.329,3.894,4.4,4.4,0,0,1,1.087,3.315,4.518,4.518,0,0,1-1.69,3.1Zm0,0" transform="translate(-111.059 -111.057)" fill="#fff"/>
      <path id="Trazado_728163" data-name="Trazado 728163" d="M1.766,37a6.649,6.649,0,0,0-.8,5.185A6.436,6.436,0,0,0,4.2,46.3a1.063,1.063,0,0,1,.522,1.148,7.376,7.376,0,0,0-.119.759,1.1,1.1,0,0,0,1.865.893l5.217-5.217L43.452,12.124l5.215-5.216a1.1,1.1,0,0,0-.9-1.865,7.605,7.605,0,0,0-.757.119,1.063,1.063,0,0,1-1.149-.522A6.438,6.438,0,0,0,41.754,1.4a6.644,6.644,0,0,0-5.177.794,1.1,1.1,0,0,1-1.29-.1A6.59,6.59,0,0,0,30.3.463,6.728,6.728,0,0,0,25.68,2.993a1.118,1.118,0,0,1-1.241.349,6.619,6.619,0,0,0-5.249.168,6.752,6.752,0,0,0-3.51,3.949,1.073,1.073,0,0,1-1.075.75,6.785,6.785,0,0,0-4.873,1.955,6.712,6.712,0,0,0-1.96,4.865,1.149,1.149,0,0,1-.756,1.083,6.755,6.755,0,0,0-3.942,3.51A6.621,6.621,0,0,0,2.9,24.858a1.122,1.122,0,0,1-.352,1.256A6.741,6.741,0,0,0,.028,30.738,6.615,6.615,0,0,0,1.673,35.73,1.1,1.1,0,0,1,1.766,37ZM16.711,17.146a22.89,22.89,0,0,1,24.024-5.411L38.98,13.5A20.793,20.793,0,0,0,13.062,39.412L11.3,41.173a22.893,22.893,0,0,1,5.41-24.028ZM14.847,37.624A18.6,18.6,0,0,1,37.19,15.284ZM3.9,27.85a3.305,3.305,0,0,0,1.046-3.786,4.363,4.363,0,0,1,.109-3.5A4.551,4.551,0,0,1,7.7,18.2a3.332,3.332,0,0,0,2.266-3.207,4.5,4.5,0,0,1,4.5-4.591h.147a3.33,3.33,0,0,0,3.147-2.256,4.543,4.543,0,0,1,2.371-2.648,4.366,4.366,0,0,1,3.51-.11,3.3,3.3,0,0,0,3.769-1.043,4.519,4.519,0,0,1,3.1-1.695,4.37,4.37,0,0,1,3.308,1.076,3.278,3.278,0,0,0,3.913.335A4.4,4.4,0,0,1,41.2,3.523a4.269,4.269,0,0,1,2.727,2.146,3.218,3.218,0,0,0,1.475,1.4l-2.975,2.977A25.212,25.212,0,0,0,9.611,42.869L6.634,45.84a3.209,3.209,0,0,0-1.4-1.474A4.28,4.28,0,0,1,3.09,41.638a4.4,4.4,0,0,1,.54-3.478A3.271,3.271,0,0,0,3.3,34.266a4.394,4.394,0,0,1-1.087-3.315,4.518,4.518,0,0,1,1.69-3.1Zm0,0" fill="#fff"/>
      <path id="Trazado_728164" data-name="Trazado 728164" d="M62.5,386.727a1.1,1.1,0,1,0,.909-2l-8.531-3.878a1.1,1.1,0,0,0-1.452,1.451l3.88,8.532a1.1,1.1,0,1,0,2-.907l-.658-1.442,2.413-2.413Zm-4.827-.372-1.043-2.3,2.295,1.043Zm0,0" transform="translate(-46.243 -329.799)" fill="#fff"/>
      <path id="Trazado_728165" data-name="Trazado 728165" d="M104.454,333.948a1.1,1.1,0,0,0,.777-1.872l-2.328-2.328.777-.776a3.291,3.291,0,0,0-4.656-4.654l-.776.776a2.194,2.194,0,0,0,0,3.1l2.315,2.313.012.013.013.013,3.09,3.09A1.1,1.1,0,0,0,104.454,333.948Zm-2.327-6.527-.777.775L99.8,326.645l.776-.776a1.1,1.1,0,1,1,1.552,1.552Zm0,0" transform="translate(-84.639 -280.024)" fill="#fff"/>
      <path id="Trazado_728166" data-name="Trazado 728166" d="M151.174,287.5a1.1,1.1,0,0,0,.776-1.873l-2.327-2.328.776-.775a3.291,3.291,0,0,0-4.653-4.653l-.777.776a2.194,2.194,0,0,0,0,3.1l5.43,5.43A1.1,1.1,0,0,0,151.174,287.5Zm-2.327-6.527-.775.775-1.551-1.551.775-.776a1.1,1.1,0,0,1,1.551,1.551Zm0,0" transform="translate(-125.153 -239.778)" fill="#fff"/>
      <path id="Trazado_728167" data-name="Trazado 728167" d="M202.1,236.306a1.1,1.1,0,0,0-1.1-1.1H197.4a3.291,3.291,0,0,0-4.936-4.333l-.775.775a2.194,2.194,0,0,0,0,3.1l5.43,5.43a1.1,1.1,0,0,0,1.55-1.552l-1.23-1.23H201A1.1,1.1,0,0,0,202.1,236.306Zm-6.526-2.328-.776.777-1.552-1.552.775-.776a1.1,1.1,0,0,1,1.553,1.551Zm0,0" transform="translate(-165.67 -198.992)" fill="#fff"/>
      <path id="Trazado_728168" data-name="Trazado 728168" d="M249.9,192.14a3.3,3.3,0,0,0,0-4.655l-3.1-3.1a3.368,3.368,0,0,0-4.655,0,3.29,3.29,0,0,0,0,4.653l3.1,3.1a3.291,3.291,0,0,0,4.654,0Zm-6.205-4.655a1.1,1.1,0,1,1,1.551-1.551l3.1,3.1a1.1,1.1,0,0,1-1.551,1.553Zm0,0" transform="translate(-209.138 -158.705)" fill="#fff"/>
      <path id="Trazado_728169" data-name="Trazado 728169" d="M289.871,139.6a1.1,1.1,0,0,0,.94-1.661l-4.654-7.758a1.1,1.1,0,1,0-1.881,1.13l2.39,3.994-3.993-2.4a1.1,1.1,0,0,0-1.129,1.882l7.755,4.655A1.105,1.105,0,0,0,289.871,139.6Zm0,0" transform="translate(-243.683 -112.052)" fill="#fff"/>
      <path id="Trazado_728170" data-name="Trazado 728170" d="M335.07,94.521a1.1,1.1,0,0,0,.768-.313l3.134-3.072a1.1,1.1,0,1,0-1.536-1.568l-2.358,2.31-1.56-1.559,1.552-1.551a1.1,1.1,0,1,0-1.551-1.551l-1.552,1.551-1.551-1.552,2.327-2.327a1.1,1.1,0,0,0-1.551-1.552l-3.1,3.1a1.1,1.1,0,0,0,0,1.551l3.1,3.1,3.1,3.1A1.1,1.1,0,0,0,335.07,94.521Zm0,0" transform="translate(-284.227 -71.625)" fill="#fff"/>
      <path id="Trazado_728171" data-name="Trazado 728171" d="M381.787,56.631a1.1,1.1,0,0,0,.775-.322l.776-.775a4.388,4.388,0,0,0,0-6.2l-1.551-1.552a4.389,4.389,0,0,0-6.2,0l-.775.776a1.1,1.1,0,0,0,0,1.551l6.2,6.2A1.1,1.1,0,0,0,381.787,56.631Zm-1.552-7.3,1.552,1.551a2.195,2.195,0,0,1,0,3.1l-4.653-4.653A2.247,2.247,0,0,1,380.235,49.329Zm0,0" transform="translate(-324.739 -39.941)" fill="#fff"/>
    </g>
  </g>
</svg>
