<svg xmlns="http://www.w3.org/2000/svg" xmlns:xlink="http://www.w3.org/1999/xlink" width="88" height="88" viewBox="0 0 88 88">
  <defs>
    <clipPath id="clip-path">
      <path id="path21" d="M0-682.665H57.273v57.273H0Z" transform="translate(0 682.665)" fill="#fff"/>
    </clipPath>
  </defs>
  <g id="Grupo_983795" data-name="Grupo 983795" transform="translate(-9203 10238)">
    <g id="Grupo_960928" data-name="Grupo 960928" transform="translate(8917 -11813)">
      <circle id="Elipse_4813" data-name="Elipse 4813" cx="44" cy="44" r="44" transform="translate(286 1575)" fill="#0e494d"/>
    </g>
    <g id="g15" transform="translate(9218.363 -9539.972)">
      <g id="g17" transform="translate(0 -682.665)">
        <g id="g19" clip-path="url(#clip-path)">
          <g id="g25" transform="translate(21.645 0.026)">
            <path id="path27" d="M-82.267-1.935a.839.839,0,0,1-.827-.7,21.683,21.683,0,0,1-.239-3.187,15.781,15.781,0,0,1,.245-2.937.839.839,0,0,1,.61-.641,26.53,26.53,0,0,1,6.136-.6.839.839,0,0,1,.839.839.839.839,0,0,1-.839.839,28.511,28.511,0,0,0-5.186.431,16.264,16.264,0,0,0-.128,2.066,20.349,20.349,0,0,0,.217,2.915.839.839,0,0,1-.692.964A.846.846,0,0,1-82.267-1.935Z" transform="translate(83.333 10)" fill="#fff"/>
          </g>
          <g id="g29" transform="translate(31.476 0.224)">
            <path id="path31" d="M-33.682-75.9a.845.845,0,0,1-.137-.011.839.839,0,0,1-.692-.964,20.35,20.35,0,0,0,.217-2.915,16.266,16.266,0,0,0-.128-2.067c-.362-.069-.9-.158-1.6-.238a.839.839,0,0,1-.739-.928.839.839,0,0,1,.928-.739,18.6,18.6,0,0,1,2.362.393.839.839,0,0,1,.61.642,15.782,15.782,0,0,1,.245,2.937,21.68,21.68,0,0,1-.239,3.187A.839.839,0,0,1-33.682-75.9Z" transform="translate(36.768 83.77)" fill="#fff"/>
          </g>
          <g id="g33" transform="translate(22.482 6.394)">
            <path id="path35" d="M-13.259-73.837a.839.839,0,0,1-.839-.836,43.75,43.75,0,0,0-.365-5.874.839.839,0,0,1,.7-.958.839.839,0,0,1,.958.7,44.449,44.449,0,0,1,.385,6.126.839.839,0,0,1-.836.842Z" transform="translate(14.473 81.515)" fill="#fff"/>
          </g>
          <g id="g37" transform="translate(8.194 16.085)">
            <path id="path39" d="M-96.9-436.827h-.043c-3.373-.17-5.488-.353-5.509-.355a.839.839,0,0,1-.722-.568c-3.534-10.5-3.466-18.849.2-24.83a17.63,17.63,0,0,1,10.988-7.791,57.254,57.254,0,0,0,.771-6.586.839.839,0,0,1,.887-.788.839.839,0,0,1,.788.887,58.74,58.74,0,0,1-.9,7.356.841.841,0,0,1-.7.675,16.184,16.184,0,0,0-10.417,7.146c-3.323,5.439-3.391,13.131-.2,22.871.829.064,2.556.188,4.9.306a.839.839,0,0,1,.8.88A.839.839,0,0,1-96.9-436.827Z" transform="translate(105.777 477.747)" fill="#fff"/>
          </g>
          <g id="g41" transform="translate(20.265 6.394)">
            <path id="path43" d="M-154.772,40.905c-2.471,0-5.015-.042-7.56-.126a.839.839,0,0,1-.811-.866.839.839,0,0,1,.866-.811c2.527.083,5.052.125,7.5.125,8.025,0,14.544-.454,16.425-.6,3.188-9.739,3.12-17.432-.2-22.871a16.185,16.185,0,0,0-10.417-7.146.841.841,0,0,1-.7-.675,55.558,55.558,0,0,1-.617-17.227.839.839,0,0,1,.958-.7.839.839,0,0,1,.7.958,54.784,54.784,0,0,0,.507,16.1,17.63,17.63,0,0,1,10.988,7.791c3.668,5.981,3.736,14.334.2,24.829a.839.839,0,0,1-.722.568C-137.727,40.262-145.192,40.905-154.772,40.905Z" transform="translate(163.144 9.999)" fill="#fff"/>
          </g>
          <g id="g45" transform="translate(12.196 29.89)">
            <path id="path47" d="M-349.373-39.749c-8.179,0-14.112-.533-14.171-.538a.839.839,0,0,1-.719-.569c-.183-.546-4.415-13.462,1.931-20.863a.839.839,0,0,1,1.016-.2,6.819,6.819,0,0,0,3.433.8,7.086,7.086,0,0,0,3.864-1.021,8.789,8.789,0,0,1,4.645-1.214,8.79,8.79,0,0,1,4.645,1.214,7.086,7.086,0,0,0,3.865,1.021,6.821,6.821,0,0,0,3.434-.8.839.839,0,0,1,1.016.2,12.977,12.977,0,0,1,2.062,3.345.839.839,0,0,1-.44,1.1.839.839,0,0,1-1.1-.441,11.526,11.526,0,0,0-1.395-2.419,8.508,8.508,0,0,1-3.575.686,8.79,8.79,0,0,1-4.645-1.214,7.087,7.087,0,0,0-3.865-1.021,7.086,7.086,0,0,0-3.865,1.021,8.789,8.789,0,0,1-4.645,1.214,8.507,8.507,0,0,1-3.574-.685c-4.514,5.961-2.057,15.847-1.374,18.22,1.651.129,6.8.485,13.457.485s11.807-.356,13.458-.485c.493-1.706,1.906-7.294.981-12.507a.839.839,0,0,1,.68-.973.839.839,0,0,1,.973.679c1.179,6.644-1.1,13.565-1.2,13.856a.839.839,0,0,1-.719.569C-335.262-40.282-341.194-39.749-349.373-39.749Z" transform="translate(365.814 63.358)" fill="#fff"/>
          </g>
          <g id="g49" transform="translate(22.528 34.682)">
            <path id="path51" d="M-66.7-10a5.675,5.675,0,0,1,4.937,2.192c2.379,3.33.411,9.193.326,9.441a.839.839,0,0,1-.574.538,11.145,11.145,0,0,1-1.143.222,10.011,10.011,0,0,1-.385,1.681.839.839,0,0,1-.574.538,10.759,10.759,0,0,1-2.587.261,10.759,10.759,0,0,1-2.587-.261.839.839,0,0,1-.574-.538,10.011,10.011,0,0,1-.385-1.681,11.145,11.145,0,0,1-1.143-.222.839.839,0,0,1-.574-.538c-.085-.248-2.053-6.111.326-9.441A5.675,5.675,0,0,1-66.7-10ZM-62.887.646c.377-1.327,1.318-5.3-.24-7.48A4.055,4.055,0,0,0-66.7-8.322a4.054,4.054,0,0,0-3.572,1.49c-1.426,2-.753,5.729-.244,7.477.264.05.645.113,1.132.169a.839.839,0,0,1,.741.783A8.211,8.211,0,0,0-68.4,3.077a11.388,11.388,0,0,0,1.7.118,11.379,11.379,0,0,0,1.7-.119A8.213,8.213,0,0,0-64.755,1.6a.839.839,0,0,1,.741-.783C-63.53.759-63.151.7-62.887.646Z" transform="translate(72.806 10)" fill="#fff"/>
          </g>
          <g id="g53" transform="translate(17.543 48.172)">
            <path id="path55" fill="#fff"/>
          </g>
          <g id="g57" transform="translate(19.06 41.176)">
            <path id="path59" fill="#fff"/>
          </g>
          <g id="g61" transform="translate(38.144 48.172)">
            <path id="path63" fill="#fff"/>
          </g>
          <g id="g65" transform="translate(29.475 39.994)">
            <path id="path67" d="M-9.161-6.646A.839.839,0,0,1-10-7.485V-9.161A.839.839,0,0,1-9.161-10a.839.839,0,0,1,.839.839v1.676A.839.839,0,0,1-9.161-6.646Z" transform="translate(10 10)" fill="#fff"/>
          </g>
          <g id="g69" transform="translate(26.119 39.994)">
            <path id="path71" d="M-9.161-6.646A.839.839,0,0,1-10-7.485V-9.161A.839.839,0,0,1-9.161-10a.839.839,0,0,1,.839.839v1.676A.839.839,0,0,1-9.161-6.646Z" transform="translate(10 10)" fill="#fff"/>
          </g>
          <g id="g73" transform="translate(26.119 11.925)">
            <path id="path75" d="M-5.805-8.322H-9.161A.839.839,0,0,1-10-9.161.839.839,0,0,1-9.161-10h3.356a.839.839,0,0,1,.839.839A.839.839,0,0,1-5.805-8.322Z" transform="translate(10 10)" fill="#fff"/>
          </g>
          <g id="g77" transform="translate(26.119 15.278)">
            <path id="path79" d="M-7.483-8.322H-9.161A.839.839,0,0,1-10-9.161.839.839,0,0,1-9.161-10h1.678a.839.839,0,0,1,.839.839A.839.839,0,0,1-7.483-8.322Z" transform="translate(10 10)" fill="#fff"/>
          </g>
          <g id="g81" transform="translate(26.119 21.982)">
            <path id="path83" d="M-7.483-8.322H-9.161A.839.839,0,0,1-10-9.161.839.839,0,0,1-9.161-10h1.678a.839.839,0,0,1,.839.839A.839.839,0,0,1-7.483-8.322Z" transform="translate(10 10)" fill="#fff"/>
          </g>
          <g id="g85" transform="translate(26.119 18.63)">
            <path id="path87" d="M-5.805-8.322H-9.161A.839.839,0,0,1-10-9.161.839.839,0,0,1-9.161-10h3.356a.839.839,0,0,1,.839.839A.839.839,0,0,1-5.805-8.322Z" transform="translate(10 10)" fill="#fff"/>
          </g>
          <g id="g89" transform="translate(19.967 6.128)">
            <path id="path91" d="M-1.33-7.753a45.226,45.226,0,0,1-7.992-.585.839.839,0,0,1-.661-.985A.839.839,0,0,1-9-9.985a44.6,44.6,0,0,0,7.669.554,44.6,44.6,0,0,0,7.669-.554.839.839,0,0,1,.985.662.839.839,0,0,1-.661.985A45.226,45.226,0,0,1-1.33-7.753Z" transform="translate(9.999 10.001)" fill="#fff"/>
          </g>
        </g>
      </g>
      <g id="g93" transform="translate(0 -682.665)">
        <g id="g95" clip-path="url(#clip-path)">
          <g id="g101" transform="translate(59.509 59.535)">
            <path id="path103" d="M-214.3-292.688a.836.836,0,0,1-.354-.079c-.6-.281-14.779-6.991-16.424-16.311-.64-3.624.7-7.123,3.969-10.4s6.767-4.613,10.387-3.974c9.314,1.643,16.02,15.837,16.3,16.44a.839.839,0,0,1-.247,1.018,80.737,80.737,0,0,0-6.825,6.148q-.621.621-1.188,1.211a.839.839,0,0,1-1.186.023.839.839,0,0,1-.023-1.186q.577-.6,1.21-1.234a86.243,86.243,0,0,1,6.447-5.86c-1.36-2.675-7.334-13.6-14.782-14.908-3.048-.537-6.044.643-8.906,3.508s-4.042,5.867-3.5,8.92c1.314,7.454,12.218,13.43,14.892,14.793.413-.509,1.115-1.355,2.072-2.435a.839.839,0,0,1,1.184-.072.839.839,0,0,1,.072,1.184c-1.538,1.736-2.42,2.875-2.429,2.887A.839.839,0,0,1-214.3-292.688Z" transform="translate(231.23 323.607)" fill="#fff"/>
          </g>
        </g>
      </g>
    </g>
  </g>
</svg>
