<svg xmlns="http://www.w3.org/2000/svg" width="88" height="88" viewBox="0 0 88 88">
  <g id="Grupo_983796" data-name="Grupo 983796" transform="translate(-9518 10328)">
    <g id="Grupo_960933" data-name="Grupo 960933" transform="translate(9232 -11903)">
      <circle id="Elipse_4813" data-name="Elipse 4813" cx="44" cy="44" r="44" transform="translate(286 1575)" fill="#0e494d"/>
    </g>
    <g id="tarro" transform="translate(9539 -10312)">
      <path id="Trazado_728172" data-name="Trazado 728172" d="M40.5,12.1a.914.914,0,0,0-.052-.257,2.318,2.318,0,0,0,.993-1.778V5c0-3.954-12.321-5-18.836-5S3.767,1.045,3.767,5V10.07a2.318,2.318,0,0,0,.994,1.778.9.9,0,0,0-.052.257,17.815,17.815,0,0,1-2.236,8.629A19.7,19.7,0,0,0,0,30.277v18.7c0,4.894,11.646,7.535,22.6,7.535s22.6-2.641,22.6-7.535v-18.7a19.7,19.7,0,0,0-2.473-9.543A17.817,17.817,0,0,1,40.5,12.1ZM5.651,10.07v-2.7C9.352,9.392,17.652,10,22.6,10s13.251-.605,16.953-2.63v2.7c-.05.932-5.879,3.115-16.953,3.115S5.7,11,5.651,10.07ZM22.6,1.884C33.666,1.884,39.5,4.067,39.557,5,39.5,5.931,33.666,8.114,22.6,8.114S5.707,5.931,5.651,5C5.707,4.067,11.541,1.884,22.6,1.884Zm20.72,47.092c0,2.36-7.883,5.651-20.72,5.651s-20.72-3.291-20.72-5.651v-18.7a17.813,17.813,0,0,1,2.236-8.629,19.689,19.689,0,0,0,2.449-8.773c4.023,1.677,11.459,2.194,16.036,2.194s12.012-.517,16.036-2.194a19.7,19.7,0,0,0,2.449,8.773,17.817,17.817,0,0,1,2.236,8.629Zm0,0" fill="#fff"/>
      <path id="Trazado_728173" data-name="Trazado 728173" d="M107.936,247.465H89.1a3.772,3.772,0,0,0-3.767,3.768v10.36A3.772,3.772,0,0,0,89.1,265.36h18.837a3.771,3.771,0,0,0,3.767-3.768v-10.36A3.772,3.772,0,0,0,107.936,247.465Zm1.884,14.127a1.886,1.886,0,0,1-1.884,1.884H89.1a1.886,1.886,0,0,1-1.884-1.884v-10.36a1.886,1.886,0,0,1,1.884-1.884h18.837a1.886,1.886,0,0,1,1.884,1.884Zm0,0" transform="translate(-75.914 -220.152)" fill="#fff"/>
      <path id="Trazado_728174" data-name="Trazado 728174" d="M78.684,146.008a.942.942,0,1,1-.942-.942A.942.942,0,0,1,78.684,146.008Zm0,0" transform="translate(-68.324 -129.055)" fill="#fff"/>
      <path id="Trazado_728175" data-name="Trazado 728175" d="M103.331,155.431a58.4,58.4,0,0,0,21.1,0,.942.942,0,1,0-.377-1.845,56.532,56.532,0,0,1-20.344,0,.942.942,0,0,0-.377,1.845Zm0,0" transform="translate(-91.276 -136.613)" fill="#fff"/>
      <path id="Trazado_728176" data-name="Trazado 728176" d="M35.075,298.668a.942.942,0,0,0-.942.942V312.8a.942.942,0,0,0,1.884,0V299.61A.942.942,0,0,0,35.075,298.668Zm0,0" transform="translate(-30.366 -265.704)" fill="#fff"/>
      <path id="Trazado_728177" data-name="Trazado 728177" d="M35.436,264.644a.957.957,0,0,0-1.027.2.878.878,0,0,0-.2.311.891.891,0,0,0,0,.716.851.851,0,0,0,.509.509.943.943,0,0,0,.358.075.976.976,0,0,0,.669-.273,1.1,1.1,0,0,0,.2-.311.936.936,0,0,0,.075-.358.992.992,0,0,0-.273-.669A1.1,1.1,0,0,0,35.436,264.644Zm0,0" transform="translate(-30.369 -235.372)" fill="#fff"/>
    </g>
  </g>
</svg>
