<svg xmlns="http://www.w3.org/2000/svg" xmlns:xlink="http://www.w3.org/1999/xlink" width="398.017" height="685" viewBox="0 0 398.017 685">
  <defs>
    <clipPath id="clip-path">
      <rect id="Rectángulo_344368" data-name="Rectángulo 344368" width="315" height="632" rx="9" transform="translate(180 487)" fill="#a4ddcd"/>
    </clipPath>
    <clipPath id="clip-path-2">
      <rect id="Rectángulo_344366" data-name="Rectángulo 344366" width="387.517" height="649" fill="none"/>
    </clipPath>
    <clipPath id="clip-path-3">
      <rect id="Rectángulo_344369" data-name="Rectángulo 344369" width="111.954" height="115.223" fill="#fff" stroke="#707070" stroke-width="1"/>
    </clipPath>
    <clipPath id="clip-path-4">
      <rect id="Rectángulo_344367" data-name="Rectángulo 344367" width="102.892" height="105.896" fill="#fff" stroke="#707070" stroke-width="1"/>
    </clipPath>
  </defs>
  <g id="Grupo_983804" data-name="Grupo 983804" transform="translate(-180 -487)">
    <rect id="Rectángulo_344285" data-name="Rectángulo 344285" width="280" height="603" rx="9" transform="translate(215 516)" fill="#a4ddcd"/>
    <g id="Enmascarar_grupo_927279" data-name="Enmascarar grupo 927279" clip-path="url(#clip-path)">
      <path id="Trazado_728301" data-name="Trazado 728301" d="M749.542,1.5A758.109,758.109,0,0,1,586.455,134.224c-8.638-14.314-27.2-41.72-52.16-58.75-35.07-23.8-65.292-25.62-78.425-4.143-10.482,22.785,7.868,46.835,47.253,62.66,22.056,8.888,47.307,10.84,65.209,10.84a774,774,0,0,1-94.3,45.57c-5.593-13.938-20.737-46.943-45.015-68.981-31.464-28.462-61.15-34.407-77.1-14.977-13.5,21.173,1.349,47.54,38.162,68.611,23.633,13.562,52.655,18.744,70.324,20.648-13.049,5-26.265,9.718-39.588,14-24.092,7.73-48.68,14.255-73.434,19.806-3.874-14.213-15.037-49.133-36.849-74.013-27.924-31.9-56.7-41.206-74.784-23.806-15.843,19.5-4.184,47.378,29.894,72.587,21.687,16.01,49.468,24.462,66.826,28.521a833.24,833.24,0,0,1-96.637,14.213c-3.1-14.088-12.738-49.945-33.559-76.127-26.516-33.082-54.81-43.725-73.637-27.136-16.8,18.75-6.357,47.146,26.575,73.87,19.782,16.093,45.367,25.6,62.618,30.7-16.4,1.033-32.789,1.761-49.151,1.88-6.8,0-14.064-.036-21.275-.227-12.762-8.864-42.818-27.793-74.515-32.957C31.028,210.124,2.859,221.161,0,246.167c.125,25.125,26.91,39.194,69.226,37,30.927-1.594,61.693-16,76.109-23.722,38.383,1.66,77.434-1.266,115.214-5.737-15.347,9.426-37.822,25.459-52.882,46.358-24.8,34.407-27.471,64.552-6.339,78.222,22.558,11.145,47.128-6.59,63.985-45.492,12.989-30.014,13.115-66.307,12.536-81.284a871.431,871.431,0,0,0,116.437-24.235c-13.2,10.918-36.813,32.771-49.718,59.305-18.493,38.156-15.95,68.319,7.151,78.222,24.11,7.044,45.319-14.565,55.288-55.807,8.16-33.768.806-72.026-2.137-84.746a824.046,824.046,0,0,0,108.069-40.329c-9.175,6.936-40.83,32.4-56.553,64.815-18.559,38.114-16.028,68.295,7.127,78.138,24.092,7.145,45.265-14.541,55.2-55.706,9.324-38.442-1.445-82.651-3-88.489q28.491-13.082,55.724-28.5c5.862-3.253,11.6-6.733,17.317-10.154,1.91-.185,3.068-.352,3.068-.352s-.227-.412-.621-1.1c13.15-7.975,26.122-16.344,38.735-25.125-10.524,13.628-22.534,32.21-28.814,52.327C588.5,210.184,595.511,239.642,619.806,246c24.922,3.379,42.633-21.149,46.364-63.388,2.877-32.73-8.518-67.28-13.861-81.224A771.433,771.433,0,0,0,756.377,7.8c4.041-4.435-2.752-10.709-6.835-6.3" transform="matrix(-0.07, 0.998, -0.998, -0.07, 574.448, 505.279)" fill="#d4f1e5"/>
    </g>
    <g id="Grupo_983803" data-name="Grupo 983803" transform="translate(190.5 523)">
      <g id="Grupo_983802" data-name="Grupo 983802" clip-path="url(#clip-path-2)">
        <path id="Trazado_728194" data-name="Trazado 728194" d="M346.638,523.257H84.354a14.693,14.693,0,0,1-14.692-14.692V14.691A14.691,14.691,0,0,1,84.354,0H346.638A14.692,14.692,0,0,1,361.33,14.692V508.565a14.693,14.693,0,0,1-14.692,14.692" transform="translate(26.187)" fill="#34bc85"/>
        <circle id="Elipse_5883" data-name="Elipse 5883" cx="13.324" cy="13.324" r="13.324" transform="translate(228.359 485.933)" fill="none" stroke="#3d7ba5" stroke-miterlimit="10" stroke-width="1"/>
        <rect id="Rectángulo_344286" data-name="Rectángulo 344286" width="259.239" height="425.791" transform="translate(112.064 48.733)" fill="#fff"/>
        <path id="Trazado_728195" data-name="Trazado 728195" d="M164.17,15.778h40.42a1.619,1.619,0,1,1,0,3.238H164.17a1.619,1.619,0,0,1,0-3.238Z" transform="translate(61.105 5.931)" fill="none" stroke="#3d7ba5" stroke-miterlimit="10" stroke-width="1"/>
        <path id="Trazado_728196" data-name="Trazado 728196" d="M155.938,17.41a1.67,1.67,0,1,1,1.67,1.669A1.67,1.67,0,0,1,155.938,17.41Z" transform="translate(58.619 5.917)" fill="none" stroke="#3d7ba5" stroke-miterlimit="10" stroke-width="1"/>
        <path id="Trazado_728197" data-name="Trazado 728197" d="M261.675,225.449a43.59,43.59,0,1,1-43.634-43.543,43.589,43.589,0,0,1,43.634,43.543" transform="translate(65.595 68.38)" fill="#cddefa"/>
        <path id="Trazado_728198" data-name="Trazado 728198" d="M214.486,181.906a43.457,43.457,0,0,0-30.973,13.143l29.03,31.089,20.337-40.261a43.374,43.374,0,0,0-18.395-3.971" transform="translate(68.984 68.38)" fill="#badc61"/>
        <path id="Trazado_728199" data-name="Trazado 728199" d="M244.2,202.079a43.783,43.783,0,0,0-19.246-17.288l-20.339,40.261.421.45Z" transform="translate(76.915 69.465)" fill="#badc61"/>
        <path id="Trazado_728200" data-name="Trazado 728200" d="M186.9,191.457a43.575,43.575,0,0,0-6.2,52.861l34.724-20.767.508-1.006Z" transform="translate(65.595 71.971)" fill="#fdb12e"/>
        <path id="Trazado_728201" data-name="Trazado 728201" d="M204.75,214.052l-.508,1.006.929-.556Z" transform="translate(76.777 80.464)" fill="#cddefa"/>
        <path id="Trazado_728202" data-name="Trazado 728202" d="M240.183,246.48l-29.976-32.1-.929.556-18.434,36.5a43.561,43.561,0,0,0,49.339-4.951" transform="translate(71.74 80.587)" fill="#badc61"/>
        <path id="Trazado_728203" data-name="Trazado 728203" d="M179.006,235.55a43.815,43.815,0,0,0,16.288,15.729l18.436-36.5Z" transform="translate(67.29 80.739)" fill="#0e494d"/>
        <path id="Trazado_728204" data-name="Trazado 728204" d="M244.081,197.356l-39.164,23.422,29.976,32.1a43.57,43.57,0,0,0,9.188-55.523" transform="translate(77.03 74.188)" fill="#fdb12e"/>
        <path id="Trazado_728205" data-name="Trazado 728205" d="M244.914,221.867a30.426,30.426,0,1,1-30.457-30.394,30.425,30.425,0,0,1,30.457,30.394" transform="translate(69.191 71.977)" fill="#fff"/>
        <path id="Trazado_728206" data-name="Trazado 728206" d="M213.407,247.159a26.368,26.368,0,1,1,26.34-26.4,26.4,26.4,0,0,1-26.34,26.4m-.054-51.24a24.872,24.872,0,1,0,24.9,24.846,24.9,24.9,0,0,0-24.9-24.846" transform="translate(70.3 73.086)" fill="#cddefa"/>
        <rect id="Rectángulo_344287" data-name="Rectángulo 344287" width="17.321" height="2.979" transform="translate(142.5 290.926)" fill="#3d7ba5"/>
        <rect id="Rectángulo_344288" data-name="Rectángulo 344288" width="25.666" height="2.98" transform="translate(142.511 298.867)" fill="#3d7ba5"/>
        <rect id="Rectángulo_344289" data-name="Rectángulo 344289" width="12.643" height="2.98" transform="translate(171.589 298.858) rotate(-0.079)" fill="#3d7ba5"/>
        <rect id="Rectángulo_344290" data-name="Rectángulo 344290" width="8.092" height="2.98" transform="translate(185.243 298.845) rotate(-0.079)" fill="#3d7ba5"/>
        <rect id="Rectángulo_344291" data-name="Rectángulo 344291" width="12.265" height="2.979" transform="translate(142.521 306.816)" fill="#3d7ba5"/>
        <rect id="Rectángulo_344292" data-name="Rectángulo 344292" width="31.49" height="2.979" transform="translate(158.073 306.797)" fill="#3d7ba5"/>
        <rect id="Rectángulo_344293" data-name="Rectángulo 344293" width="14.414" height="2.979" transform="translate(178.944 314.742) rotate(-0.079)" fill="#3d7ba5"/>
        <rect id="Rectángulo_344294" data-name="Rectángulo 344294" width="35.022" height="2.979" transform="translate(142.533 314.752)" fill="#3d7ba5"/>
        <rect id="Rectángulo_344295" data-name="Rectángulo 344295" width="22.126" height="2.979" transform="translate(142.544 322.702)" fill="#3d7ba5"/>
        <rect id="Rectángulo_344296" data-name="Rectángulo 344296" width="9.483" height="2.979" transform="matrix(1, -0.001, 0.001, 1, 168.082, 322.694)" fill="#3d7ba5"/>
        <rect id="Rectángulo_344297" data-name="Rectángulo 344297" width="5.498" height="2.979" transform="translate(178.957 322.68)" fill="#3d7ba5"/>
        <rect id="Rectángulo_344298" data-name="Rectángulo 344298" width="60.755" height="2.785" transform="translate(142.788 247.047)" fill="#cddefa"/>
        <rect id="Rectángulo_344299" data-name="Rectángulo 344299" width="73.086" height="2.785" transform="translate(142.787 254.473)" fill="#3d7ba5"/>
        <rect id="Rectángulo_344300" data-name="Rectángulo 344300" width="45.148" height="2.785" transform="translate(170.726 261.899)" fill="#3d7ba5"/>
        <rect id="Rectángulo_344301" data-name="Rectángulo 344301" width="21.287" height="2.785" transform="translate(142.787 261.899)" fill="#3d7ba5"/>
        <rect id="Rectángulo_344302" data-name="Rectángulo 344302" width="73.086" height="2.785" transform="translate(142.788 269.326)" fill="#3d7ba5"/>
        <rect id="Rectángulo_344303" data-name="Rectángulo 344303" width="73.086" height="2.785" transform="translate(142.787 276.752)" fill="#3d7ba5"/>
        <rect id="Rectángulo_344304" data-name="Rectángulo 344304" width="2.047" height="133.51" transform="translate(169.729 91.306)" fill="#40b7d6"/>
        <rect id="Rectángulo_344305" data-name="Rectángulo 344305" width="2.048" height="133.511" transform="translate(207.702 91.306)" fill="#40b7d6"/>
        <rect id="Rectángulo_344306" data-name="Rectángulo 344306" width="2.048" height="133.51" transform="translate(245.673 91.307)" fill="#40b7d6"/>
        <rect id="Rectángulo_344307" data-name="Rectángulo 344307" width="2.048" height="133.51" transform="translate(283.646 91.307)" fill="#40b7d6"/>
        <rect id="Rectángulo_344308" data-name="Rectángulo 344308" width="2.048" height="133.51" transform="translate(320.123 91.307)" fill="#40b7d6"/>
        <rect id="Rectángulo_344309" data-name="Rectángulo 344309" width="12.347" height="80.465" transform="translate(164.575 144.352)" fill="#34bc85"/>
        <rect id="Rectángulo_344310" data-name="Rectángulo 344310" width="12.347" height="52.873" transform="translate(202.902 171.943)" fill="#34bc85"/>
        <rect id="Rectángulo_344311" data-name="Rectángulo 344311" width="12.347" height="76.065" transform="translate(240.57 148.751)" fill="#34bc85"/>
        <rect id="Rectángulo_344312" data-name="Rectángulo 344312" width="12.347" height="105.063" transform="translate(278.496 119.753)" fill="#34bc85"/>
        <rect id="Rectángulo_344313" data-name="Rectángulo 344313" width="192.66" height="1.706" transform="translate(144.726 227.345)" fill="#3d7ba5"/>
        <path id="Trazado_728207" data-name="Trazado 728207" d="M250.058,93.686,236.98,71.035,223.9,93.686h6.9V198.114h12.347V93.686Z" transform="translate(84.167 26.703)" fill="#34bc85"/>
        <path id="Trazado_728208" data-name="Trazado 728208" d="M121.132,159.065a1.558,1.558,0,0,1-1.558,1.558H106.743a1.558,1.558,0,0,1,0-3.115h12.832a1.557,1.557,0,0,1,1.558,1.558" transform="translate(39.54 59.209)" fill="#3d7ba5"/>
        <path id="Trazado_728209" data-name="Trazado 728209" d="M121.132,142.9a1.558,1.558,0,0,1-1.558,1.558H106.743a1.558,1.558,0,0,1,0-3.115h12.832a1.558,1.558,0,0,1,1.558,1.558" transform="translate(39.54 53.13)" fill="#3d7ba5"/>
        <path id="Trazado_728210" data-name="Trazado 728210" d="M121.132,126.726a1.558,1.558,0,0,1-1.558,1.558H106.743a1.558,1.558,0,1,1,0-3.115h12.83a1.558,1.558,0,0,1,1.558,1.558" transform="translate(39.54 47.052)" fill="#3d7ba5"/>
        <path id="Trazado_728211" data-name="Trazado 728211" d="M121.132,110.556a1.557,1.557,0,0,1-1.558,1.558h-12.83a1.558,1.558,0,1,1,0-3.116h12.83a1.558,1.558,0,0,1,1.558,1.558" transform="translate(39.54 40.973)" fill="#3d7ba5"/>
        <path id="Trazado_728212" data-name="Trazado 728212" d="M121.132,94.387a1.558,1.558,0,0,1-1.559,1.558h-12.83a1.558,1.558,0,0,1,0-3.115h12.832a1.557,1.557,0,0,1,1.558,1.558" transform="translate(39.54 34.895)" fill="#3d7ba5"/>
        <path id="Trazado_728213" data-name="Trazado 728213" d="M121.132,78.217a1.558,1.558,0,0,1-1.559,1.558h-12.83a1.558,1.558,0,0,1,0-3.115h12.832a1.558,1.558,0,0,1,1.558,1.558" transform="translate(39.54 28.817)" fill="#3d7ba5"/>
        <path id="Trazado_728214" data-name="Trazado 728214" d="M121.132,62.047a1.557,1.557,0,0,1-1.558,1.558H106.743a1.558,1.558,0,0,1,0-3.115h12.832a1.558,1.558,0,0,1,1.558,1.558" transform="translate(39.54 22.738)" fill="#3d7ba5"/>
        <path id="Trazado_728215" data-name="Trazado 728215" d="M211.161,332.218s-.8-33.259-9.073-31.986-4.231,12.241-13.849,12.877-10.274-33.74-20.39-34.93c-13.481-1.584-8.721,30.273-18.861,33.027s-9.609-46.748-24.55-46.748-17.074,67.759-17.074,67.759Z" transform="translate(40.36 99.413)" fill="#34bc85"/>
        <path id="Trazado_728216" data-name="Trazado 728216" d="M104.155,315.168H217.947a.59.59,0,0,0,.59-.59V314.3a.59.59,0,0,0-.59-.589H104.155a.59.59,0,0,0-.59.589v.282a.59.59,0,0,0,.59.59" transform="translate(38.931 117.926)" fill="#40b7d6"/>
        <rect id="Rectángulo_344314" data-name="Rectángulo 344314" width="16.866" height="16.866" transform="translate(268.349 390.372)" fill="#242645"/>
        <rect id="Rectángulo_344315" data-name="Rectángulo 344315" width="16.866" height="16.866" transform="translate(268.349 363.026)" fill="#f26d76"/>
        <rect id="Rectángulo_344316" data-name="Rectángulo 344316" width="16.866" height="16.866" transform="translate(268.349 417.074)" fill="#34bc85"/>
        <path id="Trazado_728217" data-name="Trazado 728217" d="M259.059,269.181H216.243a.839.839,0,0,1-.838-.838v-.4a.838.838,0,0,1,.838-.838h42.816a.838.838,0,0,1,.838.838v.4a.839.839,0,0,1-.838.838" transform="translate(80.973 100.408)" fill="#7e7768"/>
        <path id="Trazado_728218" data-name="Trazado 728218" d="M259.059,273.408H216.243a.839.839,0,0,1-.838-.838v-.4a.839.839,0,0,1,.838-.838h42.816a.839.839,0,0,1,.838.838v.4a.839.839,0,0,1-.838.838" transform="translate(80.973 101.997)" fill="#242645"/>
        <path id="Trazado_728219" data-name="Trazado 728219" d="M259.059,289.055H216.243a.838.838,0,0,1-.838-.838v-.4a.839.839,0,0,1,.838-.838h42.816a.839.839,0,0,1,.838.838v.4a.838.838,0,0,1-.838.838" transform="translate(80.973 107.878)" fill="#242645"/>
        <path id="Trazado_728220" data-name="Trazado 728220" d="M259.059,293.283H216.243a.839.839,0,0,1-.838-.838v-.4a.839.839,0,0,1,.838-.838h42.816a.839.839,0,0,1,.838.838v.4a.839.839,0,0,1-.838.838" transform="translate(80.973 109.468)" fill="#242645"/>
        <path id="Trazado_728221" data-name="Trazado 728221" d="M259.059,308.463H216.243a.839.839,0,0,1-.838-.838v-.4a.839.839,0,0,1,.838-.838h42.816a.838.838,0,0,1,.838.838v.4a.839.839,0,0,1-.838.838" transform="translate(80.973 115.174)" fill="#242645"/>
        <path id="Trazado_728222" data-name="Trazado 728222" d="M259.059,312.69H216.243a.838.838,0,0,1-.838-.838v-.4a.839.839,0,0,1,.838-.838h42.816a.838.838,0,0,1,.838.838v.4a.838.838,0,0,1-.838.838" transform="translate(80.973 116.763)" fill="#242645"/>
        <path id="Trazado_728223" data-name="Trazado 728223" d="M22.249,427.935l-4.776,16.492c5.758,4.842,11.428,4.261,17.075,2.267l5.788-15.833Z" transform="translate(6.568 160.865)" fill="#f0c9b9"/>
        <path id="Trazado_728224" data-name="Trazado 728224" d="M9.929,457.01l2.252,3.935.75,1.315L23.193,480.2a8.408,8.408,0,0,0,7.391,4.23c5.491-.061,14.5-.131,21.338-.033a1.981,1.981,0,0,0,2.287-2.207c-.012-3.764-5.183-11.193-8.593-12.785,0,0-5.648-19.861-3.693-24.482,3.343-7.892-1.569-8.3-6.351-5.885-2.435,1.223-3.085,3.041-4.89,3.063-2.83.036-9.088-2.85-9.088-2.85s-2.284-3.06-3.028-.043a22.544,22.544,0,0,1-1.26,3.178c-.305.678-.655,1.419-1.029,2.2-1.713,3.571-3.963,7.9-5.27,10.394-.659,1.247-1.077,2.035-1.077,2.035" transform="translate(3.732 164.549)" fill="#badc61"/>
        <path id="Trazado_728225" data-name="Trazado 728225" d="M11.566,459.675l.751,1.315c3.892-2.794,5.765-7.36,5.447-13.368a32.031,32.031,0,0,0-1.075-6.509c-.307.677-.655,1.419-1.028,2.2a28.776,28.776,0,0,1,.6,4.426c.278,5.44-1.3,9.443-4.693,11.939" transform="translate(4.348 165.819)" fill="#242645"/>
        <path id="Trazado_728226" data-name="Trazado 728226" d="M9.929,452.3l13.264,23.186a8.408,8.408,0,0,0,7.391,4.23c5.491-.061,14.5-.131,21.338-.033a1.981,1.981,0,0,0,2.287-2.207l-23.5-.078a7.012,7.012,0,0,1-6.049-3.5l-13.653-23.63c-.659,1.247-1.077,2.035-1.077,2.035" transform="translate(3.732 169.259)" fill="#242645"/>
        <path id="Trazado_728227" data-name="Trazado 728227" d="M28.95,448.066a1.3,1.3,0,0,1-1.05-1.1,1.092,1.092,0,0,1,1.242-1.054l5.091.176a1.352,1.352,0,0,1,1.366,1.143,1.091,1.091,0,0,1-1.242,1.054l-5.092-.176a1.485,1.485,0,0,1-.315-.043" transform="translate(10.488 167.622)" fill="#fff"/>
        <path id="Trazado_728228" data-name="Trazado 728228" d="M31.578,460.129a1.3,1.3,0,0,1-1.048-1.1,1.09,1.09,0,0,1,1.242-1.054l5.091.176a1.354,1.354,0,0,1,1.366,1.143,1.091,1.091,0,0,1-1.242,1.054l-5.092-.176a1.593,1.593,0,0,1-.316-.043" transform="translate(11.476 172.157)" fill="#fff"/>
        <path id="Trazado_728229" data-name="Trazado 728229" d="M30.716,456.893a1.3,1.3,0,0,1-1.048-1.1,1.09,1.09,0,0,1,1.242-1.054l5.091.176a1.354,1.354,0,0,1,1.366,1.143,1.091,1.091,0,0,1-1.242,1.054l-5.092-.176a1.494,1.494,0,0,1-.316-.043" transform="translate(11.152 170.941)" fill="#fff"/>
        <path id="Trazado_728230" data-name="Trazado 728230" d="M30.129,453.971a1.3,1.3,0,0,1-1.048-1.1,1.09,1.09,0,0,1,1.242-1.054l5.091.176a1.354,1.354,0,0,1,1.366,1.143,1.091,1.091,0,0,1-1.242,1.054l-5.092-.176a1.6,1.6,0,0,1-.316-.043" transform="translate(10.931 169.842)" fill="#fff"/>
        <path id="Trazado_728231" data-name="Trazado 728231" d="M29.542,451.048a1.3,1.3,0,0,1-1.048-1.1,1.091,1.091,0,0,1,1.242-1.054l5.092.176a1.354,1.354,0,0,1,1.365,1.143,1.09,1.09,0,0,1-1.242,1.054l-5.092-.176a1.5,1.5,0,0,1-.316-.043" transform="translate(10.71 168.743)" fill="#fff"/>
        <path id="Trazado_728232" data-name="Trazado 728232" d="M98.7,436.025,100,459.382l17.617.16,1.545-23.718Z" transform="translate(37.101 163.831)" fill="#f0c9b9"/>
        <path id="Trazado_728233" data-name="Trazado 728233" d="M160.051,480.132l-62.863-.054a8.793,8.793,0,0,1-.824-3.492c-.388-5.318,1.314-13.8,2.149-19.153.1-.625.188-1.208.256-1.736a18.6,18.6,0,0,0,.19-2.185c0-4.367,3.868-3.615,3.868-3.615,6.355,6.243,13.566-3.105,17.77-.033,0,0,1.811,1.3,6.8,5.794s13.472,7.466,20.694,10.494c9.325,3.908,11.968,7.806,12.481,10.488a4.9,4.9,0,0,1-.519,3.491" transform="translate(36.203 168.869)" fill="#badc61"/>
        <path id="Trazado_728234" data-name="Trazado 728234" d="M160.036,472.657,97.173,472.6a8.793,8.793,0,0,1-.824-3.492l64.206.055a4.9,4.9,0,0,1-.519,3.491" transform="translate(36.219 176.344)" fill="#242645"/>
        <path id="Trazado_728235" data-name="Trazado 728235" d="M103,478.316h-1.867a13.8,13.8,0,0,0,3.387-10.063,17.729,17.729,0,0,0-6.608-12.585c.1-.625.188-1.208.256-1.736a19.264,19.264,0,0,1,7.85,14.249A15.257,15.257,0,0,1,103,478.316" transform="translate(36.806 170.637)" fill="#242645"/>
        <path id="Trazado_728236" data-name="Trazado 728236" d="M118.408,457.428a1.036,1.036,0,0,1-.248-2.042l3.928-.971a1.036,1.036,0,1,1,.5,2.012l-3.928.971a1.048,1.048,0,0,1-.25.03" transform="translate(44.122 170.807)" fill="#fff"/>
        <path id="Trazado_728237" data-name="Trazado 728237" d="M115.782,454.962a1.036,1.036,0,0,1-.246-2.042l3.927-.971a1.036,1.036,0,1,1,.5,2.012l-3.927.971a1.049,1.049,0,0,1-.25.03" transform="translate(43.135 169.881)" fill="#fff"/>
        <path id="Trazado_728238" data-name="Trazado 728238" d="M121.261,459.089a1.036,1.036,0,0,1-.248-2.042l3.927-.971a1.036,1.036,0,1,1,.5,2.01l-3.927.973a1.065,1.065,0,0,1-.25.03" transform="translate(45.194 171.432)" fill="#fff"/>
        <path id="Trazado_728239" data-name="Trazado 728239" d="M124.113,460.686a1.036,1.036,0,0,1-.246-2.042l3.927-.971a1.036,1.036,0,1,1,.5,2.01l-3.928.971a.983.983,0,0,1-.25.032" transform="translate(46.266 172.032)" fill="#fff"/>
        <path id="Trazado_728240" data-name="Trazado 728240" d="M127.224,462.164a1.036,1.036,0,0,1-.246-2.042l3.927-.971a1.036,1.036,0,1,1,.5,2.012l-3.928.97a.98.98,0,0,1-.25.032" transform="translate(47.436 172.588)" fill="#fff"/>
        <path id="Trazado_728241" data-name="Trazado 728241" d="M130.6,463.425a1.036,1.036,0,0,1-.246-2.042l3.927-.971a1.036,1.036,0,1,1,.5,2.01l-3.928.971a.983.983,0,0,1-.25.032" transform="translate(48.704 173.062)" fill="#fff"/>
        <path id="Trazado_728242" data-name="Trazado 728242" d="M94.6,288.107q-1.6.4-3.2.769c-13.714,3.132-28.11,4.4-38.184,1.994-4.974-1.186-8.154-7.273-10.178-14.071a26.36,26.36,0,0,1-1.412-5.645c-1.233-18.894,3.421-26.909,3.421-26.909l74.163-8.275s2.466,4.541,5.2,10.46a123.748,123.748,0,0,1,5.539,13.82l.007.012a35.957,35.957,0,0,1,1.648,7.35c.589,6.734-17.045,15.478-37,20.5" transform="translate(15.568 88.704)" fill="#0e494d"/>
        <path id="Trazado_728243" data-name="Trazado 728243" d="M17.8,493.09c6.273.621,11.964,1.347,18.209,2.218,2.4.344,4.951.766,7.354,1.109.579-1.465,1.531-4.488,2.179-6.153.172-.422.329-.845.5-1.281,11.979-30.5,34.57-88.851,38.94-106,.106-.422.224-.872.33-1.335.937-3.8,1.994-8.608,3.1-14.088,4.768-23.557,10.511-59.446,11.765-80.692a96.987,96.987,0,0,0,.106-13.639,9.1,9.1,0,0,0-.977-3.341c-6.774-13.059-44.486-10.114-44.486-10.114s-.144,2.06-.382,5.585c-1.135,17.416-5.782,69.428-7.407,85.722-1.968,19.688-5.915,26.62-5.915,26.62s-8.068,17.958-13.456,51.18C24.429,448.9,20.89,471.251,18.6,485.854c-.066.449-.143.885-.209,1.321-.212,1.347-.411,4.726-.594,5.915" transform="translate(6.692 97.544)" fill="#0e494d"/>
        <path id="Trazado_728244" data-name="Trazado 728244" d="M57.39,345.727a18.548,18.548,0,0,0,13.45.355,1.054,1.054,0,0,0-.806-1.948,16.746,16.746,0,0,1-12.248-.538,1.055,1.055,0,1,0-.878,1.918c.161.074.323.146.483.213" transform="translate(21.161 129.125)" fill="#2f3470"/>
        <path id="Trazado_728245" data-name="Trazado 728245" d="M45.885,427.136c-.171.433-.337.863-.5,1.282L21.561,425.7l-1.4-.158-1.921-.217c.069-.429.136-.87.208-1.317l1.736.2,1.692.194Z" transform="translate(6.855 159.39)" fill="#2f3470"/>
        <path id="Trazado_728246" data-name="Trazado 728246" d="M48.137,292.351a.734.734,0,0,1-.165-1.449,23.521,23.521,0,0,0,8.51-4.536c5.721-4.7,8.888-11.426,9.415-19.986a.734.734,0,1,1,1.465.091c-.691,11.227-5.821,17.658-10,21.078a24.451,24.451,0,0,1-9.056,4.784.678.678,0,0,1-.165.019" transform="translate(17.819 99.876)" fill="#2f3470"/>
        <path id="Trazado_728247" data-name="Trazado 728247" d="M91.9,346.219c6.087,18.723,5.519,28.073,5.519,28.073s-4.78,19.186.278,52.461c3.8,24.969,6.1,59.775,7.024,75.568.028.475.054.937.08,1.373.25,4.41.37,7.012.37,7.012l24.348,2.653s.2-2.851.528-7.763c.026-.436.066-.9.092-1.361,1.757-26.118,6.575-101.251,6.167-131.251-.04-3.525-.158-6.43-.37-8.555-.158-1.571-.4-3.7-.726-6.271-2.891-23.241-12.134-83.055-18.617-103.482-5.136-16.163-41.276.356-41.276.356S85.8,327.5,91.9,346.219" transform="translate(28.311 93.068)" fill="#0e494d"/>
        <path id="Trazado_728248" data-name="Trazado 728248" d="M109.815,335.306a18.559,18.559,0,0,0,13.408-1.115,1.055,1.055,0,0,0-1.015-1.849,16.749,16.749,0,0,1-12.233.8,1.055,1.055,0,0,0-.663,2c.168.055.337.109.5.158" transform="translate(40.82 124.882)" fill="#2f3470"/>
        <path id="Trazado_728249" data-name="Trazado 728249" d="M96.682,432.721c.029.479.055.936.08,1.377l25.253,1.9c.029-.436.061-.893.094-1.364Z" transform="translate(36.344 162.664)" fill="#2f3470"/>
        <path id="Trazado_728250" data-name="Trazado 728250" d="M58.8,263.055a.749.749,0,0,0-.82.673c-.074.764-7.583,76.626-10.757,106.3-.574,1.713-10.107,30.337-12.9,45.68-2.5,13.774-10.35,51.507-14.071,69.307.476.153.962.279,1.446.407,3.716-17.764,11.591-55.632,14.1-69.446,2.845-15.634,12.771-45.252,12.872-45.55a.76.76,0,0,0,.034-.157C51.879,340.645,59.4,264.639,59.472,263.875a.746.746,0,0,0-.671-.82" transform="translate(7.614 98.884)" fill="#2f3470"/>
        <path id="Trazado_728251" data-name="Trazado 728251" d="M78.045,275.445a.751.751,0,0,1-.349-1.416c.114-.061,8.056-4.362,9.644-13.727a.751.751,0,0,1,1.48.252A21.586,21.586,0,0,1,78.393,275.36a.752.752,0,0,1-.348.085" transform="translate(29.055 97.615)" fill="#2f3470"/>
        <path id="Trazado_728252" data-name="Trazado 728252" d="M107.681,495.759a.748.748,0,0,1-.685-.7c-.051-.775-4.974-77.753-6.628-95.307-1.595-16.906.839-41.2,1.069-43.422C95.8,339.036,80.254,270.249,80.1,269.554a.751.751,0,0,1,1.465-.33c.157.7,15.776,69.823,21.35,86.79a.766.766,0,0,1,.034.315c-.029.256-2.731,25.8-1.084,43.283,1.659,17.576,6.581,94.576,6.631,95.352a.751.751,0,0,1-.7.8.739.739,0,0,1-.11,0" transform="translate(30.102 100.984)" fill="#2f3470"/>
        <path id="Trazado_728253" data-name="Trazado 728253" d="M134.311,171.018c-.026.244-.05.579-.07.876l-.059.926-.125,1.868-.241,3.744q-.235,3.742-.516,7.438c-.383,4.915-.831,9.774-1.52,14.331-.169,1.138-.363,2.252-.57,3.332s-.425,2.126-.676,3.11-.508,1.91-.791,2.717a12.937,12.937,0,0,1-.828,1.944l-.087.162-.078.118-.036.061-.032.034a.741.741,0,0,0-.054.072c-.055.044-.067.014.037-.135l.138-.165c.062-.072.127-.142.191-.211.125-.128.278-.286.439-.436a9.32,9.32,0,0,1,1.11-.872,9.434,9.434,0,0,1,2.859-1.278,8.978,8.978,0,0,1,2.555-.282,7.48,7.48,0,0,1,1.523.2,9.007,9.007,0,0,1,.93.282c.032,0-.1-.088-.3-.241-.4-.311-1.022-.852-1.683-1.475-1.339-1.27-2.815-2.913-4.287-4.635s-2.947-3.591-4.425-5.489c-2.946-3.81-5.839-7.833-8.725-11.9s-5.731-8.228-8.588-12.393l-4.279-6.26-4.265-6.19-.074-.107A11.406,11.406,0,0,0,82.2,171.745c.327.654.612,1.226.926,1.826l.922,1.772c.614,1.178,1.248,2.339,1.884,3.5q1.915,3.478,3.925,6.9,4.018,6.85,8.448,13.527,2.215,3.346,4.571,6.646c1.562,2.21,3.2,4.389,4.889,6.574s3.478,4.345,5.385,6.52c.954,1.09,1.957,2.17,3.015,3.258s2.184,2.185,3.425,3.3a40.736,40.736,0,0,0,4.33,3.414,28.672,28.672,0,0,0,3,1.789,20.807,20.807,0,0,0,4.523,1.716,17.641,17.641,0,0,0,3.436.49,15.837,15.837,0,0,0,4.477-.468,14.982,14.982,0,0,0,4.627-2.049,15.469,15.469,0,0,0,1.874-1.467c.282-.257.556-.523.787-.773l.356-.388.175-.2.083-.1.041-.052a24.36,24.36,0,0,0,2.273-3.3l.421-.775.205-.387.182-.373.356-.748.312-.721a35.233,35.233,0,0,0,1.749-5.362,48.886,48.886,0,0,0,.943-4.838c.224-1.558.387-3.068.508-4.553s.179-2.942.22-4.381a119.876,119.876,0,0,0-.824-16.665q-.464-4.062-1.165-8.056c-.238-1.335-.486-2.664-.765-3.993-.135-.665-.29-1.329-.44-2l-.232-1-.259-1.054a8.347,8.347,0,0,0-16.4,1.068Z" transform="translate(30.445 58.35)" fill="#f0c9b9"/>
        <path id="Trazado_728254" data-name="Trazado 728254" d="M115.208,202.474a.531.531,0,0,0,.436-.49c.275-4.252,3.572-12.153,3.606-12.23a.534.534,0,1,0-.985-.414c-.138.33-3.4,8.147-3.686,12.574a.532.532,0,0,0,.5.567.416.416,0,0,0,.131-.007" transform="translate(43.071 71.052)" fill="#dea187"/>
        <path id="Trazado_728255" data-name="Trazado 728255" d="M113.916,195.582a.539.539,0,0,0,.327-.2,12.724,12.724,0,0,1,3.967-2.957.533.533,0,1,0-.491-.945,13.413,13.413,0,0,0-4.322,3.253.532.532,0,0,0,.1.747.525.525,0,0,0,.42.1" transform="translate(42.586 71.957)" fill="#dea187"/>
        <path id="Trazado_728256" data-name="Trazado 728256" d="M128.308,268.006c-19.876,4.686-48.121,17.769-82.473,11.925,2.936-19.93.974-53.8.958-54.3a114.685,114.685,0,0,0-1.028-11.479c-.2-1.531-.432-3.115-.689-4.735-.253-1.593-.535-3.229-.841-4.889q-.429-2.351-.929-4.762c-.208-1.025-.429-2.058-.656-3.092-.133-.608-.27-1.214-.409-1.823-.025-.106-.051-.215-.074-.321-.107-.466-.215-.929-.327-1.392-.245-1.026-.5-2.056-.755-3.077-.612-2.42-1.266-4.823-1.959-7.171-4.3-14.574-3.392-30.315,11.489-33.377,1.083-.226,2.148-.436,3.184-.63,7.023-1.332,12.832-2.065,14.447-2.259l.443-.054,29.749,6.079,2.832.577a103.746,103.746,0,0,1,10.242,2.851,32.359,32.359,0,0,1,5.877,2.611c6.743,4.005,6.17,9.2,6.83,19.316.012.173.022.347.034.523,0,.058.01.118.012.175.122,1.72.31,3.427.55,5.125.263,1.9.589,3.778.944,5.621.746,3.864,1.621,7.572,2.361,11,.362,1.659.688,3.254.955,4.766a45.807,45.807,0,0,1,.622,4.862,16.712,16.712,0,0,1-.257,4.62,8.274,8.274,0,0,1-.438,1.414,22.258,22.258,0,0,1-1.6,3.13,32.416,32.416,0,0,1-3.14,4.278,44.361,44.361,0,0,1-4.887,4.857c-.435.369-.689.564-.689.564,0,.029,0,.062,0,.095-.007.25,0,.513-.005.791.007,1.061.039,2.321.1,3.753.026.619-.784,16.2,9.527,34.432" transform="translate(13.865 55.096)" fill="#39a900"/>
        <path id="Trazado_728257" data-name="Trazado 728257" d="M125.417,192.843l-78.808-9.4a20.867,20.867,0,0,0,5.633-3.981l72.22,8.616c.362,1.659.688,3.254.955,4.766" transform="translate(17.521 67.461)" fill="#e9dbd2"/>
        <path id="Trazado_728258" data-name="Trazado 728258" d="M127.683,200.157l-85.2-10.165q-.429-2.351-.929-4.762l86.389,10.306a16.718,16.718,0,0,1-.257,4.622" transform="translate(15.619 69.63)" fill="#e9dbd2"/>
        <path id="Trazado_728259" data-name="Trazado 728259" d="M125.165,202.066a32.626,32.626,0,0,1-3.138,4.278l-78.5-9.366c-.2-1.53-.433-3.114-.691-4.735Z" transform="translate(16.103 72.266)" fill="#e9dbd2"/>
        <path id="Trazado_728260" data-name="Trazado 728260" d="M95.393,155.374c-.056,6.717,2.478,17.584,7.424,25.141-.239-1.7-.425-3.407-.548-5.127,0-.056-.011-.117-.014-.173-.011-.178-.022-.351-.033-.524-.66-10.113-.089-15.31-6.83-19.316" transform="translate(35.859 58.407)" fill="#f0c9b9"/>
        <path id="Trazado_728261" data-name="Trazado 728261" d="M66.48,172.1c-2.288,13.136-15.233,26.477-23.832,23.935-.157-.715-.318-1.427-.482-2.142-.106-.465-.217-.929-.33-1.4-.817-3.454-1.728-6.906-2.713-10.246-4.3-14.574-3.392-30.314,11.489-33.378,1.081-.223,2.146-.433,3.182-.629,7.788,2.6,15.319,8.73,12.686,23.856" transform="translate(13.865 55.728)" fill="#f0c9b9"/>
        <path id="Trazado_728262" data-name="Trazado 728262" d="M64.322,206.642a.7.7,0,0,0,.561.42.682.682,0,0,0,.354-.048,40.3,40.3,0,0,1,25.611-.732,43.662,43.662,0,0,0,17.539,2.291c0-.278,0-.542,0-.791,0-.036,0-.066,0-.1,0,0,.256-.194.689-.561-4.652.608-10.722.11-17.8-2.17a40.952,40.952,0,0,0-26.587.776.694.694,0,0,0-.369.914" transform="translate(24.158 76.346)" fill="#e9dbd2"/>
        <path id="Trazado_728263" data-name="Trazado 728263" d="M90.647,183.514c8.788,1.048,11.842-8.2,11.871-8.293a.7.7,0,0,0-1.329-.424c-.113.349-2.749,8.24-10.377,7.329-8-.955-23.957-15.256-24.117-15.4a.7.7,0,1,0-.934,1.036c.667.6,16.446,14.744,24.886,15.751" transform="translate(24.634 62.607)" fill="#e9dbd2"/>
        <path id="Trazado_728264" data-name="Trazado 728264" d="M92.618,168.245s4.014,6.119,10.007-1.4c0,0,12.635,2.794,11.516-11.331,0,0,8.184-4.225,2.049-13.319,0,0,9-3.195,4.036-15.224,0,0,5.556-6.869,2.248-14.912-3.924-9.549-13.184-6.218-13.184-6.218s2.618-8.7-6.946-11.465a11.046,11.046,0,0,0-13.154,5.282s-3.54-7.7-11.282-6.687C67.6,94.309,68.6,103.728,68.6,103.728s-7.749-5.081-13.356,1.048-.466,13.346-.466,13.346-8.837-.652-8.981,7.656,4.879,10.046,4.879,10.046-3.138,7.536,6.957,12.887c0,0-6.321,16.435,12.2,12.953,12.236-2.3,22.782,6.581,22.782,6.581" transform="translate(17.214 34.913)" fill="#242645"/>
        <path id="Trazado_728265" data-name="Trazado 728265" d="M88.143,161.983c-8.659,13.7-23.981-5.332-24.208-9.344A46.545,46.545,0,0,0,66.8,133.753l22.61,9.755q-.149,1.009-.3,2.025a90.472,90.472,0,0,0-1.066,9.725c-.067,1.618-.01,5,.1,6.724" transform="translate(24.034 50.279)" fill="#f0c9b9"/>
        <path id="Trazado_728266" data-name="Trazado 728266" d="M86.667,153.892c-11.975-3.478-19.072-16.5-19.072-16.5l20.138,6.778a90.472,90.472,0,0,0-1.066,9.725" transform="translate(25.41 51.646)" fill="#b3816d"/>
        <path id="Trazado_728267" data-name="Trazado 728267" d="M86.927,129.771s2.133-5.586,6.69-4.02,3.837,16.988-4.951,15.995Z" transform="translate(32.677 47.167)" fill="#dea187"/>
        <path id="Trazado_728268" data-name="Trazado 728268" d="M83.094,142.4a7.712,7.712,0,1,1,8.228,7.159,7.719,7.719,0,0,1-8.228-7.159m1.148-.08a6.561,6.561,0,1,0,6.09-7,6.568,6.568,0,0,0-6.09,7" transform="translate(31.229 50.429)" fill="#fff"/>
        <path id="Trazado_728269" data-name="Trazado 728269" d="M66.1,145.29c2.1,6.281,17.767,14.227,24.49,11.486,4.08-1.665,7.786-5.217,10.132-13.348.014-.041.025-.085.039-.129.136-.48.266-.952.385-1.424.22-.843.411-1.673.574-2.467.037-.186.076-.37.109-.553q.138-.739.238-1.434c.081-.57.143-1.109.182-1.617.621-8.233,1.489-17.475-5.806-22.965s-18.961-7.408-26.035-.322c0,0-5.289,6.216-5.6,18.141s-.223,10.1,1.3,14.631" transform="translate(24.305 40.571)" fill="#f0c9b9"/>
        <path id="Trazado_728270" data-name="Trazado 728270" d="M78.752,131.912s-.612,5.417,3.851,6.45,5.694-3.309,5.694-3.309Z" transform="translate(29.593 49.587)" fill="#fff"/>
        <path id="Trazado_728271" data-name="Trazado 728271" d="M80.987,138.414a2.451,2.451,0,0,1-1.233-1.062.411.411,0,0,1,.731-.378,1.672,1.672,0,0,0,1.7.771.411.411,0,0,1,.094.817,2.675,2.675,0,0,1-1.291-.147" transform="translate(29.963 51.407)" fill="#dea187"/>
        <path id="Trazado_728272" data-name="Trazado 728272" d="M76.648,124.906a.649.649,0,0,1-.205-.175.635.635,0,0,1,.121-.889,3.86,3.86,0,0,1,4.056-.242,4.366,4.366,0,0,1,2.039,3.443.634.634,0,0,1-1.267.062,3.129,3.129,0,0,0-1.373-2.386,2.585,2.585,0,0,0-2.686.133.635.635,0,0,1-.685.054" transform="translate(28.687 46.285)" fill="#242645"/>
        <path id="Trazado_728273" data-name="Trazado 728273" d="M84.815,128.377a.635.635,0,0,1-.3-.753,3.023,3.023,0,0,1,2.382-2.021,3.619,3.619,0,0,1,3.133,1.306.635.635,0,0,1-1,.777,2.324,2.324,0,0,0-1.98-.823,1.737,1.737,0,0,0-1.324,1.15.636.636,0,0,1-.8.409.665.665,0,0,1-.106-.045" transform="translate(31.758 47.207)" fill="#242645"/>
        <path id="Trazado_728274" data-name="Trazado 728274" d="M83.693,133.8a.536.536,0,0,0,.292-.032l2.526-1.05a.525.525,0,0,0,.124-.9,7.557,7.557,0,0,1-2.782-5.749.524.524,0,0,0-1.046.083,8.727,8.727,0,0,0,2.522,5.916l-1.746.725a.524.524,0,0,0,.11,1" transform="translate(31.127 47.212)" fill="#dea187"/>
        <path id="Trazado_728275" data-name="Trazado 728275" d="M83.567,121.043a1.275,1.275,0,0,0,1.181-2.207,3.7,3.7,0,0,0-2.485-.744,9.243,9.243,0,0,0-7.189,4s4.649-1.577,7.093-1.328a7.049,7.049,0,0,1,1.4.282" transform="translate(28.221 44.391)" fill="#242645"/>
        <path id="Trazado_728276" data-name="Trazado 728276" d="M86.873,122.057a1.274,1.274,0,0,1-.356-2.477,3.7,3.7,0,0,1,2.589.147c4.463,1.783,4.181,5.146,4.181,5.146a16.917,16.917,0,0,0-5-2.6,7.014,7.014,0,0,0-1.413-.213" transform="translate(32.2 44.888)" fill="#242645"/>
        <path id="Trazado_728277" data-name="Trazado 728277" d="M77.573,110.957s-4.368,12.727-8.209,15.164-6.78-3.961-6.78-3.961,8.31-19.436,14.989-11.2" transform="translate(23.526 40.946)" fill="#242645"/>
        <path id="Trazado_728278" data-name="Trazado 728278" d="M91.06,112.473s-7.649,10.362-16.818,7.565-2.691-10.285-2.691-10.285,17.436-6.471,19.509,2.72" transform="translate(26.062 40.425)" fill="#242645"/>
        <path id="Trazado_728279" data-name="Trazado 728279" d="M83.436,111.484S87.573,125.4,96.7,123.333s-3.17-16.064-9.236-15.716-4.027,3.866-4.027,3.866" transform="translate(31.241 40.452)" fill="#242645"/>
        <path id="Trazado_728280" data-name="Trazado 728280" d="M92.3,134.873c.138-.48.266-.952.385-1.423.22-.845.411-1.673.574-2.467.039-.187.076-.372.109-.554-.138-.015-.274-.029-.413-.04-3.092-.259-5.688.542-5.79,1.786-.1,1.208,2.174,2.4,5.135,2.7" transform="translate(32.765 48.996)" fill="#dea187"/>
        <path id="Trazado_728281" data-name="Trazado 728281" d="M69.833,129.481c-.1,1.245,2.318,2.466,5.411,2.726s5.687-.539,5.791-1.786-2.318-2.466-5.413-2.726-5.685.539-5.79,1.786" transform="translate(26.25 47.984)" fill="#dea187"/>
        <path id="Trazado_728282" data-name="Trazado 728282" d="M69.83,124.456s-2.449-4.96-7.442-3.145-3.9,18.8,5.768,17.535Z" transform="translate(22.355 45.452)" fill="#f0c9b9"/>
        <path id="Trazado_728283" data-name="Trazado 728283" d="M70.566,118.654s1.882,14.993-1.457,13.484-4.02-10.511-4.02-10.511Z" transform="translate(24.468 44.603)" fill="#242645"/>
        <path id="Trazado_728284" data-name="Trazado 728284" d="M62.367,131.476c.257.332.4.671.66,1a6.566,6.566,0,1,0,4.164.486c-1.4-.493-1.577-1.087-1.591-1.684a7.711,7.711,0,1,1-8.9,8.151,7.828,7.828,0,0,1,5.669-7.953" transform="translate(21.307 49.349)" fill="#fff"/>
        <path id="Trazado_728285" data-name="Trazado 728285" d="M66.789,130.846a.457.457,0,0,1-.365.534.494.494,0,0,1-.1.01.46.46,0,0,1-.435-.373,9.372,9.372,0,0,0-1.379-3.171c-.992.777-1.787,1.5-1.8,1.514a.448.448,0,0,1-.323.12.471.471,0,0,1-.323-.147.46.46,0,0,1,.03-.647c.036-.033.832-.76,1.849-1.558a5.58,5.58,0,0,0-2.757-1.719.457.457,0,0,1,.233-.883c4.341,1.138,5.328,6.11,5.367,6.321" transform="translate(22.874 46.805)" fill="#242645"/>
        <path id="Trazado_728299" data-name="Trazado 728299" d="M0,0H148.6V184.531H0Z" transform="translate(31.419 257.13) rotate(-27.706)" fill="#fdb12e"/>
        <rect id="Rectángulo_344318" data-name="Rectángulo 344318" width="37.846" height="7.76" transform="translate(113.12 232.499) rotate(-27.707)" fill="#fff"/>
        <rect id="Rectángulo_344319" data-name="Rectángulo 344319" width="16.596" height="7.761" transform="translate(49.642 265.834) rotate(-27.706)" fill="#fff"/>
        <rect id="Rectángulo_344320" data-name="Rectángulo 344320" width="16.597" height="2.556" transform="translate(58.032 281.81) rotate(-27.706)" fill="#fff"/>
        <rect id="Rectángulo_344321" data-name="Rectángulo 344321" width="8.597" height="117.457" transform="translate(152.468 248.129) rotate(-27.705)" fill="#fff"/>
        <rect id="Rectángulo_344322" data-name="Rectángulo 344322" width="8.597" height="117.457" transform="translate(141.411 253.936) rotate(-27.705)" fill="#fff"/>
        <rect id="Rectángulo_344323" data-name="Rectángulo 344323" width="8.597" height="117.457" transform="translate(130.353 259.743) rotate(-27.705)" fill="#fff"/>
        <rect id="Rectángulo_344324" data-name="Rectángulo 344324" width="8.597" height="117.457" transform="matrix(0.885, -0.465, 0.465, 0.885, 119.295, 265.551)" fill="#fff"/>
        <rect id="Rectángulo_344325" data-name="Rectángulo 344325" width="8.597" height="117.457" transform="translate(108.237 271.358) rotate(-27.705)" fill="#fff"/>
        <rect id="Rectángulo_344326" data-name="Rectángulo 344326" width="8.597" height="117.457" transform="translate(97.179 277.165) rotate(-27.705)" fill="#fff"/>
        <rect id="Rectángulo_344327" data-name="Rectángulo 344327" width="8.597" height="117.457" transform="translate(86.121 282.972) rotate(-27.705)" fill="#fff"/>
        <rect id="Rectángulo_344328" data-name="Rectángulo 344328" width="8.597" height="117.457" transform="translate(75.063 288.779) rotate(-27.705)" fill="#fff"/>
        <rect id="Rectángulo_344329" data-name="Rectángulo 344329" width="8.597" height="117.457" transform="translate(64.005 294.586) rotate(-27.705)" fill="#fff"/>
        <rect id="Rectángulo_344330" data-name="Rectángulo 344330" width="1.079" height="108.889" transform="matrix(0.885, -0.465, 0.465, 0.885, 160.434, 252.827)" fill="#242645"/>
        <rect id="Rectángulo_344331" data-name="Rectángulo 344331" width="1.079" height="108.889" transform="matrix(0.885, -0.465, 0.465, 0.885, 149.287, 258.68)" fill="#242645"/>
        <rect id="Rectángulo_344332" data-name="Rectángulo 344332" width="1.079" height="108.889" transform="matrix(0.885, -0.465, 0.465, 0.885, 138.14, 264.535)" fill="#242645"/>
        <rect id="Rectángulo_344333" data-name="Rectángulo 344333" width="1.079" height="108.889" transform="matrix(0.885, -0.465, 0.465, 0.885, 126.992, 270.389)" fill="#242645"/>
        <rect id="Rectángulo_344334" data-name="Rectángulo 344334" width="1.079" height="108.889" transform="matrix(0.885, -0.465, 0.465, 0.885, 115.845, 276.243)" fill="#242645"/>
        <rect id="Rectángulo_344335" data-name="Rectángulo 344335" width="1.079" height="108.889" transform="matrix(0.885, -0.465, 0.465, 0.885, 104.698, 282.096)" fill="#242645"/>
        <rect id="Rectángulo_344336" data-name="Rectángulo 344336" width="1.079" height="108.889" transform="translate(93.55 287.951) rotate(-27.706)" fill="#242645"/>
        <rect id="Rectángulo_344337" data-name="Rectángulo 344337" width="1.079" height="108.888" transform="matrix(0.885, -0.465, 0.465, 0.885, 82.402, 293.805)" fill="#242645"/>
        <rect id="Rectángulo_344338" data-name="Rectángulo 344338" width="1.079" height="108.889" transform="matrix(0.885, -0.465, 0.465, 0.885, 71.256, 299.658)" fill="#242645"/>
        <rect id="Rectángulo_344339" data-name="Rectángulo 344339" width="3.957" height="54.283" transform="translate(184.549 301.84) rotate(-27.706)" fill="#40b7d6"/>
        <rect id="Rectángulo_344340" data-name="Rectángulo 344340" width="3.957" height="54.283" transform="translate(173.401 307.694) rotate(-27.706)" fill="#40b7d6"/>
        <rect id="Rectángulo_344341" data-name="Rectángulo 344341" width="3.957" height="36.673" transform="translate(170.442 329.139) rotate(-27.706)" fill="#40b7d6"/>
        <rect id="Rectángulo_344342" data-name="Rectángulo 344342" width="3.958" height="73.346" transform="translate(142.243 302.525) rotate(-27.706)" fill="#40b7d6"/>
        <rect id="Rectángulo_344343" data-name="Rectángulo 344343" width="3.957" height="15.325" transform="matrix(0.885, -0.465, 0.465, 0.885, 142.243, 302.524)" fill="#40b7d6"/>
        <rect id="Rectángulo_344344" data-name="Rectángulo 344344" width="3.957" height="84.655" transform="matrix(0.885, -0.465, 0.465, 0.885, 125.838, 298.367)" fill="#40b7d6"/>
        <rect id="Rectángulo_344345" data-name="Rectángulo 344345" width="3.957" height="54.283" transform="matrix(0.885, -0.465, 0.465, 0.885, 128.812, 331.11)" fill="#40b7d6"/>
        <rect id="Rectángulo_344346" data-name="Rectángulo 344346" width="3.957" height="76.578" transform="matrix(0.885, -0.465, 0.465, 0.885, 107.299, 317.226)" fill="#40b7d6"/>
        <rect id="Rectángulo_344347" data-name="Rectángulo 344347" width="3.957" height="5.208" transform="matrix(0.885, -0.465, 0.465, 0.885, 107.299, 317.226)" fill="#40b7d6"/>
        <rect id="Rectángulo_344348" data-name="Rectángulo 344348" width="3.957" height="68.177" transform="matrix(0.885, -0.465, 0.465, 0.885, 100.058, 330.518)" fill="#40b7d6"/>
        <rect id="Rectángulo_344349" data-name="Rectángulo 344349" width="3.957" height="54.283" transform="matrix(0.885, -0.465, 0.465, 0.885, 95.37, 348.672)" fill="#40b7d6"/>
        <rect id="Rectángulo_344350" data-name="Rectángulo 344350" width="8.088" height="4.207" transform="translate(215.894 341.435) rotate(-27.707)" fill="#fff"/>
        <rect id="Rectángulo_344351" data-name="Rectángulo 344351" width="8.088" height="4.207" transform="translate(207.816 326.055) rotate(-27.707)" fill="#fff"/>
        <rect id="Rectángulo_344352" data-name="Rectángulo 344352" width="8.088" height="4.207" transform="translate(199.739 310.674) rotate(-27.707)" fill="#fff"/>
        <rect id="Rectángulo_344353" data-name="Rectángulo 344353" width="8.088" height="4.207" transform="translate(191.662 295.294) rotate(-27.707)" fill="#fff"/>
        <rect id="Rectángulo_344354" data-name="Rectángulo 344354" width="8.088" height="4.207" transform="translate(183.585 279.913) rotate(-27.707)" fill="#fff"/>
        <rect id="Rectángulo_344355" data-name="Rectángulo 344355" width="8.088" height="4.207" transform="translate(175.508 264.533) rotate(-27.707)" fill="#fff"/>
        <rect id="Rectángulo_344356" data-name="Rectángulo 344356" width="8.088" height="4.207" transform="matrix(0.885, -0.465, 0.465, 0.885, 167.432, 249.152)" fill="#fff"/>
        <rect id="Rectángulo_344357" data-name="Rectángulo 344357" width="8.598" height="1.653" transform="translate(149.884 243.211) rotate(-27.705)" fill="#d1d1ff"/>
        <rect id="Rectángulo_344358" data-name="Rectángulo 344358" width="8.598" height="1.653" transform="translate(138.826 249.018) rotate(-27.705)" fill="#d1d1ff"/>
        <rect id="Rectángulo_344359" data-name="Rectángulo 344359" width="8.598" height="1.653" transform="translate(127.768 254.825) rotate(-27.705)" fill="#d1d1ff"/>
        <rect id="Rectángulo_344360" data-name="Rectángulo 344360" width="8.598" height="1.653" transform="translate(116.71 260.632) rotate(-27.705)" fill="#d1d1ff"/>
        <rect id="Rectángulo_344361" data-name="Rectángulo 344361" width="8.598" height="1.653" transform="translate(105.653 266.439) rotate(-27.705)" fill="#d1d1ff"/>
        <rect id="Rectángulo_344362" data-name="Rectángulo 344362" width="8.598" height="1.653" transform="translate(94.595 272.246) rotate(-27.705)" fill="#d1d1ff"/>
        <rect id="Rectángulo_344363" data-name="Rectángulo 344363" width="8.598" height="1.653" transform="translate(83.537 278.053) rotate(-27.705)" fill="#d1d1ff"/>
        <rect id="Rectángulo_344364" data-name="Rectángulo 344364" width="8.598" height="1.653" transform="translate(72.479 283.86) rotate(-27.705)" fill="#d1d1ff"/>
        <rect id="Rectángulo_344365" data-name="Rectángulo 344365" width="8.598" height="1.653" transform="translate(61.421 289.667) rotate(-27.705)" fill="#d1d1ff"/>
        <path id="Trazado_728286" data-name="Trazado 728286" d="M53.4,192.619" transform="translate(20.074 72.408)" fill="#dea187"/>
        <path id="Trazado_728287" data-name="Trazado 728287" d="M61.6,193.5c-.217-.037-.527-.073-.8-.109l-.85-.1-1.719-.209-3.447-.41c-2.3-.27-4.583-.557-6.849-.853-4.527-.6-9-1.269-13.213-2.115-1.053-.217-2.091-.428-3.1-.67s-1.99-.5-2.931-.758-1.841-.55-2.668-.852a21.333,21.333,0,0,1-2.215-.905,8.891,8.891,0,0,1-1.37-.8c-.1-.092-.186-.165-.139-.161a.261.261,0,0,1,.1.055c.011.015.074.052.1.083a.647.647,0,0,1,.054.052l.153.164a7.377,7.377,0,0,1,.82,1.141,8.017,8.017,0,0,1,.746,1.718,8.331,8.331,0,0,1,.355,1.977,7.922,7.922,0,0,1-.073,1.712,6.959,6.959,0,0,1-.271,1.168,6.311,6.311,0,0,1-.249.66c-.139.305-.2.384-.158.363.073-.05.438-.446.94-.879s1.156-.958,1.879-1.479c1.446-1.048,3.143-2.164,4.941-3.233s3.692-2.155,5.64-3.2c1.939-1.064,3.945-2.079,5.96-3.114,4.051-2.039,8.2-4.052,12.382-6.035l6.293-2.971,6.215-2.947.184-.088a11.411,11.411,0,0,0-8.1-21.259l-.955.281-.9.277-1.79.559q-1.779.57-3.536,1.175-3.517,1.214-6.991,2.551c-4.633,1.79-9.234,3.72-13.806,5.885-2.294,1.068-4.567,2.221-6.856,3.418-2.281,1.218-4.568,2.5-6.867,3.909a80.039,80.039,0,0,0-6.991,4.8c-1.187.923-2.4,1.937-3.653,3.114a31.591,31.591,0,0,0-3.925,4.406,22.761,22.761,0,0,0-2.06,3.41,19.419,19.419,0,0,0-.955,2.313,18.039,18.039,0,0,0-.718,2.907,16.811,16.811,0,0,0-.182,3.5,16.041,16.041,0,0,0,2.1,7.116,16.844,16.844,0,0,0,1.849,2.61l.242.278.117.131.089.095.365.376c.241.244.5.512.736.722l.732.651c.25.221.48.392.724.587a25.692,25.692,0,0,0,2.8,1.9,31.608,31.608,0,0,0,5.077,2.368,49.351,49.351,0,0,0,8.9,2.3,79.33,79.33,0,0,0,8.158.938,118.329,118.329,0,0,0,15.476-.073c2.528-.165,5.036-.41,7.536-.717q1.876-.235,3.747-.526c.623-.1,1.248-.208,1.877-.316l.947-.168,1-.191a8.344,8.344,0,0,0-.144-16.416Z" transform="translate(0 56.004)" fill="#f0c9b9"/>
        <path id="Trazado_728288" data-name="Trazado 728288" d="M47.434,182.314s9.794.018,16.119.623c4.352.416,7.967-.069,8.989,1.75s-7.861,3.083-8.657,3.192-16.45-5.566-16.45-5.566" transform="translate(17.831 68.534)" fill="#f0c9b9"/>
        <path id="Trazado_728289" data-name="Trazado 728289" d="M42.208,185.264a8.866,8.866,0,0,0,3.832,11.67,21.717,21.717,0,0,1,5.874,4.469c3.387,4.073,5.033,10.534,8.532,12.678s4.148,1.1,3.111-2.289-3.689-9.442-3.689-9.442,5.81,6.877,6.847,10.268,4,4.587,4.839.87-3.983-12.627-5.987-14.733c0,0,4.678,3.316,6.234,7.863s2.237,7.181,3.7,8.465,3.653-1.529,1.318-7.821-4.243-9.7-6.683-11.884a35.524,35.524,0,0,1,6.175,3.242c3.681,2.335,5.061,7.734,7.651,8.024,2.65.3.787-5.85-1.757-8.781s-4.146-5.278-8.577-7.507-8.745-4.209-11.719-4.906-13.223-4.569-17.255-2.8a5.439,5.439,0,0,0-2.448,2.614" transform="translate(15.521 68.487)" fill="#f0c9b9"/>
        <path id="Trazado_728290" data-name="Trazado 728290" d="M49.778,182.245s-8.262,4.319-7.2,16.746c0,0-2.3,1.756-4.113.42,0,0-1.059-13.25,7.042-18.184,0,0,2.972-.755,4.269,1.018" transform="translate(14.443 68.065)" fill="#242645"/>
        <path id="Trazado_728291" data-name="Trazado 728291" d="M37.9,173.092a.534.534,0,0,0,.684.235c.128-.056,12.807-5.641,18.253-8.569a.534.534,0,0,0-.5-.941c-5.41,2.91-18.051,8.477-18.177,8.535a.532.532,0,0,0-.274.7l.019.039" transform="translate(14.222 61.557)" fill="#dea187"/>
        <path id="Trazado_728292" data-name="Trazado 728292" d="M48.7,165.8a.535.535,0,0,0,.34.315l4.045,1.244a.533.533,0,0,0,.314-1.02L49.355,165.1a.534.534,0,0,0-.667.354.54.54,0,0,0,.014.352" transform="translate(18.293 62.053)" fill="#dea187"/>
        <path id="Trazado_728293" data-name="Trazado 728293" d="M15.6,176.666a.537.537,0,0,0,.534.305c3.467-.327,8.185,2.195,8.232,2.221a.534.534,0,1,0,.508-.94c-.205-.11-5.054-2.7-8.84-2.345a.534.534,0,0,0-.433.758" transform="translate(5.844 66.113)" fill="#dea187"/>
        <path id="Trazado_728294" data-name="Trazado 728294" d="M17.271,174.443a.523.523,0,0,0,.322.282,5.294,5.294,0,0,1,3,3.705.534.534,0,1,0,1.022-.307c-1.07-3.557-3.6-4.384-3.7-4.415a.533.533,0,0,0-.641.735" transform="translate(6.473 65.29)" fill="#dea187"/>
        <path id="Trazado_728295" data-name="Trazado 728295" d="M136.3,167.934s3.822-3.906,1.531-6.847-11.093-2.832-14.179-2.583,2.861,4.472,6.083,4.791,4.108,1.826,4.108,1.826Z" transform="translate(46.16 59.54)" fill="#f0c9b9"/>
        <path id="Trazado_728296" data-name="Trazado 728296" d="M131.618,160.359s3.822-3.908,1.531-6.847-11.093-2.832-14.179-2.584,2.859,4.473,6.083,4.792,4.108,1.824,4.108,1.824Z" transform="translate(44.398 56.693)" fill="#f0c9b9"/>
        <path id="Trazado_728297" data-name="Trazado 728297" d="M129.364,156.061s3.376-3.451,1.353-6.048-9.8-2.5-12.525-2.281,2.526,3.95,5.373,4.232,3.63,1.613,3.63,1.613Z" transform="translate(44.143 55.496)" fill="#f0c9b9"/>
        <path id="Trazado_728298" data-name="Trazado 728298" d="M133.827,164.3s3.822-3.906,1.531-6.847-11.093-2.83-14.179-2.583,2.861,4.472,6.083,4.791,4.11,1.824,4.11,1.824Z" transform="translate(45.229 58.174)" fill="#f0c9b9"/>
      </g>
      <g id="Enmascarar_grupo_927280" data-name="Enmascarar grupo 927280" transform="translate(211.394 422.252) rotate(90)" clip-path="url(#clip-path-3)">
        <path id="Trazado_728302" data-name="Trazado 728302" d="M164.27.329a166.148,166.148,0,0,1-35.742,29.087c-1.893-3.137-5.96-9.143-11.431-12.876-7.686-5.216-14.31-5.615-17.188-.908-2.3,4.994,1.724,10.264,10.356,13.733a39.653,39.653,0,0,0,14.291,2.376,169.63,169.63,0,0,1-20.666,9.987c-1.226-3.055-4.545-10.288-9.865-15.118-6.9-6.238-13.4-7.541-16.9-3.282-2.959,4.64.3,10.419,8.364,15.037,5.179,2.972,11.54,4.108,15.412,4.525-2.86,1.1-5.756,2.13-8.676,3.069-5.28,1.694-10.669,3.124-16.094,4.341-.849-3.115-3.3-10.768-8.076-16.221-6.12-6.991-12.426-9.031-16.39-5.217-3.472,4.273-.917,10.383,6.552,15.908,4.753,3.509,10.841,5.361,14.646,6.251a182.614,182.614,0,0,1-21.179,3.115c-.68-3.087-2.792-10.946-7.355-16.684C38.52,30.2,32.319,27.869,28.193,31.5c-3.681,4.109-1.393,10.332,5.824,16.189,4.336,3.527,9.943,5.611,13.723,6.728-3.6.226-7.186.386-10.772.412-1.49,0-3.082-.008-4.663-.05-2.8-1.943-9.384-6.091-16.331-7.223C6.8,46.051.627,48.47,0,53.95c.027,5.506,5.9,8.59,15.172,8.108,6.778-.349,13.521-3.506,16.68-5.2A158.248,158.248,0,0,0,57.1,55.6c-3.363,2.066-8.289,5.58-11.59,10.16C40.078,73.3,39.492,79.91,44.123,82.905c4.944,2.442,10.329-1.444,14.023-9.97,2.847-6.578,2.874-14.532,2.747-17.814A190.983,190.983,0,0,0,86.412,49.81c-2.893,2.393-8.068,7.182-10.9,13-4.053,8.362-3.5,14.973,1.567,17.143,5.284,1.544,9.932-3.192,12.117-12.231,1.788-7.4.177-15.785-.468-18.573a180.6,180.6,0,0,0,23.684-8.838c-2.011,1.52-8.948,7.1-12.394,14.2-4.067,8.353-3.513,14.968,1.562,17.125,5.28,1.566,9.92-3.187,12.1-12.208,2.043-8.425-.317-18.114-.658-19.393q6.244-2.867,12.212-6.247c1.285-.713,2.542-1.476,3.8-2.225.419-.041.672-.077.672-.077s-.05-.09-.136-.241c2.882-1.748,5.725-3.582,8.489-5.506a38.272,38.272,0,0,0-6.315,11.468c-2.766,8.857-1.23,15.313,4.095,16.706,5.462.74,9.343-4.635,10.161-13.892.631-7.173-1.867-14.745-3.038-17.8A169.067,169.067,0,0,0,165.768,1.71a1.019,1.019,0,0,0-1.5-1.38" transform="matrix(0.259, 0.966, -0.966, 0.259, 85.909, -7.508)" fill="#246b1a"/>
      </g>
    </g>
    <g id="Enmascarar_grupo_927278" data-name="Enmascarar grupo 927278" transform="translate(578.017 529.063) rotate(90)" clip-path="url(#clip-path-4)">
      <path id="Trazado_728300" data-name="Trazado 728300" d="M150.973,76.553A152.7,152.7,0,0,0,118.124,49.82c-1.74,2.883-5.478,8.4-10.506,11.833-7.064,4.794-13.151,5.16-15.8.834-2.111-4.589,1.585-9.434,9.518-12.621a36.444,36.444,0,0,1,13.134-2.183A155.9,155.9,0,0,0,95.48,38.5C94.354,41.312,91.3,47.96,86.414,52.4c-6.338,5.733-12.317,6.93-15.529,3.017-2.72-4.265.272-9.575,7.687-13.82,4.76-2.732,10.606-3.775,14.165-4.159-2.628-1.006-5.29-1.957-7.974-2.821-4.853-1.557-9.805-2.871-14.791-3.989-.78,2.863-3.029,9.9-7.422,14.908-5.625,6.425-11.42,8.3-15.063,4.795-3.191-3.927-.843-9.543,6.021-14.62,4.368-3.225,9.964-4.927,13.46-5.745A167.833,167.833,0,0,0,47.5,27.1c-.625,2.838-2.566,10.06-6.76,15.333C35.4,49.1,29.7,51.242,25.91,47.9c-3.383-3.777-1.28-9.5,5.353-14.879a37.4,37.4,0,0,1,12.613-6.184c-3.3-.208-6.6-.355-9.9-.379-1.369,0-2.833.007-4.285.046-2.571,1.785-8.624,5.6-15.009,6.638C6.25,34.532.576,32.309,0,27.273c.025-5.061,5.42-7.895,13.944-7.452,6.229.321,12.426,3.222,15.33,4.778A145.44,145.44,0,0,1,52.48,25.754a37.768,37.768,0,0,1-10.652-9.337c-4.995-6.93-5.533-13-1.277-15.755C45.1-1.583,50.044,1.989,53.439,9.824,56.056,15.87,56.081,23.18,55.964,26.2a175.524,175.524,0,0,1,23.453,4.881c-2.658-2.2-7.415-6.6-10.014-11.945-3.725-7.685-3.213-13.761,1.44-15.755C75.7,1.959,79.972,6.311,81.979,14.618c1.644,6.8.162,14.507-.43,17.07a165.978,165.978,0,0,1,21.767,8.123c-1.848-1.4-8.224-6.525-11.391-13.055C88.187,19.079,88.7,13,93.361,11.017c4.853-1.439,9.117,2.929,11.119,11.22,1.878,7.743-.291,16.648-.6,17.823Q109.614,42.7,115.1,45.8c1.181.655,2.336,1.356,3.488,2.045.385.037.618.071.618.071s-.046.083-.125.221c2.649,1.606,5.261,3.292,7.8,5.061a35.174,35.174,0,0,1-5.8-10.54c-2.542-8.14-1.13-14.073,3.763-15.354,5.02-.681,8.587,4.26,9.339,12.768.58,6.592-1.716,13.552-2.792,16.36a155.381,155.381,0,0,1,20.962,18.85.936.936,0,0,1-1.377,1.268" transform="matrix(0.259, -0.966, 0.966, 0.259, 4.718, 92.905)" fill="#246b1a"/>
    </g>
  </g>
</svg>
