<svg id="Grupo_576799" data-name="Grupo 576799" xmlns="http://www.w3.org/2000/svg" xmlns:xlink="http://www.w3.org/1999/xlink" width="505" height="505" viewBox="0 0 505 505">
  <defs>
    <clipPath id="clip-path">
      <path id="Trazado_218644" data-name="Trazado 218644" d="M1633.722,1068.114a10.638,10.638,0,0,1,14.214-1.379,10.639,10.639,0,0,1-14.214,1.379Z" transform="translate(-1633.722 -1064.644)" fill="none"/>
    </clipPath>
  </defs>
  <path id="Trazado_728313" data-name="Trazado 728313" d="M252.5,0C391.952,0,505,113.048,505,252.5S391.952,505,252.5,505,0,391.952,0,252.5,113.048,0,252.5,0Z" fill="#b1b1b1"/>
  <g id="Grupo_576762" data-name="Grupo 576762" transform="translate(0.116 217.597)">
    <g id="Grupo_576757" data-name="Grupo 576757" transform="translate(69.448)">
      <rect id="Rectángulo_61709" data-name="Rectángulo 61709" width="64.295" height="113.381" fill="#5c5c5c"/>
      <g id="Grupo_576756" data-name="Grupo 576756" transform="translate(7.883 10.343)">
        <rect id="Rectángulo_61710" data-name="Rectángulo 61710" width="5.105" height="9.003" transform="translate(43.868)" fill="#ede4da"/>
        <rect id="Rectángulo_61711" data-name="Rectángulo 61711" width="5.105" height="9.003" transform="translate(29.245)" fill="#ede4da"/>
        <rect id="Rectángulo_61712" data-name="Rectángulo 61712" width="5.105" height="9.003" transform="translate(14.623)" fill="#ede4da"/>
        <rect id="Rectángulo_61713" data-name="Rectángulo 61713" width="5.105" height="9.003" transform="translate(0)" fill="#ede4da"/>
        <rect id="Rectángulo_61714" data-name="Rectángulo 61714" width="5.105" height="9.003" transform="translate(43.868 20.593)" fill="#ede4da"/>
        <rect id="Rectángulo_61715" data-name="Rectángulo 61715" width="5.105" height="9.003" transform="translate(29.245 20.593)" fill="#ede4da"/>
        <rect id="Rectángulo_61716" data-name="Rectángulo 61716" width="5.105" height="9.003" transform="translate(14.623 20.593)" fill="#ede4da"/>
        <rect id="Rectángulo_61717" data-name="Rectángulo 61717" width="5.105" height="9.003" transform="translate(0 20.593)" fill="#ede4da"/>
        <rect id="Rectángulo_61718" data-name="Rectángulo 61718" width="5.105" height="9.003" transform="translate(43.868 41.186)" fill="#ede4da"/>
        <rect id="Rectángulo_61719" data-name="Rectángulo 61719" width="5.105" height="9.003" transform="translate(29.245 41.186)" fill="#ede4da"/>
        <rect id="Rectángulo_61720" data-name="Rectángulo 61720" width="5.105" height="9.003" transform="translate(14.623 41.186)" fill="#ede4da"/>
        <rect id="Rectángulo_61721" data-name="Rectángulo 61721" width="5.105" height="9.003" transform="translate(0 41.186)" fill="#ede4da"/>
        <rect id="Rectángulo_61722" data-name="Rectángulo 61722" width="5.105" height="9.003" transform="translate(43.868 61.778)" fill="#ede4da"/>
        <rect id="Rectángulo_61723" data-name="Rectángulo 61723" width="5.105" height="9.003" transform="translate(29.245 61.778)" fill="#ede4da"/>
        <rect id="Rectángulo_61724" data-name="Rectángulo 61724" width="5.105" height="9.003" transform="translate(14.623 61.778)" fill="#ede4da"/>
        <rect id="Rectángulo_61725" data-name="Rectángulo 61725" width="5.105" height="9.003" transform="translate(0 61.778)" fill="#ede4da"/>
        <rect id="Rectángulo_61726" data-name="Rectángulo 61726" width="5.105" height="9.003" transform="translate(43.868 82.371)" fill="#ede4da"/>
        <rect id="Rectángulo_61727" data-name="Rectángulo 61727" width="5.105" height="9.003" transform="translate(29.245 82.371)" fill="#ede4da"/>
        <rect id="Rectángulo_61728" data-name="Rectángulo 61728" width="5.105" height="9.003" transform="translate(14.623 82.371)" fill="#ede4da"/>
        <rect id="Rectángulo_61729" data-name="Rectángulo 61729" width="5.105" height="9.003" transform="translate(0 82.371)" fill="#ede4da"/>
      </g>
    </g>
    <g id="Grupo_576759" data-name="Grupo 576759" transform="translate(0 55.156)">
      <rect id="Rectángulo_61730" data-name="Rectángulo 61730" width="71.36" height="133.998" fill="#ccd6e7"/>
      <g id="Grupo_576758" data-name="Grupo 576758" transform="translate(8.749 12.223)">
        <rect id="Rectángulo_61731" data-name="Rectángulo 61731" width="5.666" height="10.64" transform="translate(48.689)" fill="#5c5c5c"/>
        <rect id="Rectángulo_61732" data-name="Rectángulo 61732" width="5.666" height="10.64" transform="translate(32.459)" fill="#5c5c5c"/>
        <rect id="Rectángulo_61733" data-name="Rectángulo 61733" width="5.666" height="10.64" transform="translate(16.23)" fill="#5c5c5c"/>
        <rect id="Rectángulo_61734" data-name="Rectángulo 61734" width="5.666" height="10.64" fill="#5c5c5c"/>
        <rect id="Rectángulo_61735" data-name="Rectángulo 61735" width="5.666" height="10.64" transform="translate(48.689 24.337)" fill="#5c5c5c"/>
        <rect id="Rectángulo_61736" data-name="Rectángulo 61736" width="5.666" height="10.64" transform="translate(32.459 24.337)" fill="#5c5c5c"/>
        <rect id="Rectángulo_61737" data-name="Rectángulo 61737" width="5.666" height="10.64" transform="translate(16.23 24.337)" fill="#5c5c5c"/>
        <rect id="Rectángulo_61738" data-name="Rectángulo 61738" width="5.666" height="10.64" transform="translate(0 24.337)" fill="#5c5c5c"/>
        <rect id="Rectángulo_61739" data-name="Rectángulo 61739" width="5.666" height="10.64" transform="translate(48.689 48.675)" fill="#5c5c5c"/>
        <rect id="Rectángulo_61740" data-name="Rectángulo 61740" width="5.666" height="10.64" transform="translate(32.459 48.675)" fill="#5c5c5c"/>
        <rect id="Rectángulo_61741" data-name="Rectángulo 61741" width="5.666" height="10.64" transform="translate(16.23 48.675)" fill="#5c5c5c"/>
        <rect id="Rectángulo_61742" data-name="Rectángulo 61742" width="5.666" height="10.64" transform="translate(0 48.675)" fill="#5c5c5c"/>
        <rect id="Rectángulo_61743" data-name="Rectángulo 61743" width="5.666" height="10.64" transform="translate(48.689 73.012)" fill="#5c5c5c"/>
        <rect id="Rectángulo_61744" data-name="Rectángulo 61744" width="5.666" height="10.64" transform="translate(32.459 73.012)" fill="#5c5c5c"/>
        <rect id="Rectángulo_61745" data-name="Rectángulo 61745" width="5.666" height="10.64" transform="translate(16.23 73.012)" fill="#5c5c5c"/>
        <rect id="Rectángulo_61746" data-name="Rectángulo 61746" width="5.666" height="10.64" transform="translate(0 73.012)" fill="#5c5c5c"/>
        <rect id="Rectángulo_61747" data-name="Rectángulo 61747" width="5.666" height="10.64" transform="translate(48.689 97.349)" fill="#5c5c5c"/>
        <rect id="Rectángulo_61748" data-name="Rectángulo 61748" width="5.666" height="10.64" transform="translate(32.459 97.349)" fill="#5c5c5c"/>
        <rect id="Rectángulo_61749" data-name="Rectángulo 61749" width="5.666" height="10.64" transform="translate(16.23 97.349)" fill="#5c5c5c"/>
        <rect id="Rectángulo_61750" data-name="Rectángulo 61750" width="5.666" height="10.64" transform="translate(0 97.349)" fill="#5c5c5c"/>
      </g>
    </g>
    <g id="Grupo_576761" data-name="Grupo 576761" transform="translate(16.605 12.895)">
      <rect id="Rectángulo_61751" data-name="Rectángulo 61751" width="64.369" height="120.365" fill="#ccd6e7"/>
      <g id="Grupo_576760" data-name="Grupo 576760" transform="translate(7.892 10.98)">
        <rect id="Rectángulo_61752" data-name="Rectángulo 61752" width="5.111" height="9.557" transform="translate(43.919)" fill="#5c5c5c"/>
        <rect id="Rectángulo_61753" data-name="Rectángulo 61753" width="5.111" height="9.557" transform="translate(29.279)" fill="#5c5c5c"/>
        <rect id="Rectángulo_61754" data-name="Rectángulo 61754" width="5.111" height="9.557" transform="translate(14.639)" fill="#5c5c5c"/>
        <rect id="Rectángulo_61755" data-name="Rectángulo 61755" width="5.111" height="9.557" transform="translate(0)" fill="#5c5c5c"/>
        <rect id="Rectángulo_61756" data-name="Rectángulo 61756" width="5.111" height="9.557" transform="translate(43.919 21.861)" fill="#5c5c5c"/>
        <rect id="Rectángulo_61757" data-name="Rectángulo 61757" width="5.111" height="9.557" transform="translate(29.279 21.861)" fill="#5c5c5c"/>
        <rect id="Rectángulo_61758" data-name="Rectángulo 61758" width="5.111" height="9.557" transform="translate(14.639 21.861)" fill="#5c5c5c"/>
        <rect id="Rectángulo_61759" data-name="Rectángulo 61759" width="5.111" height="9.557" transform="translate(0 21.861)" fill="#5c5c5c"/>
        <rect id="Rectángulo_61760" data-name="Rectángulo 61760" width="5.111" height="9.557" transform="translate(43.919 43.723)" fill="#5c5c5c"/>
        <rect id="Rectángulo_61761" data-name="Rectángulo 61761" width="5.111" height="9.557" transform="translate(29.279 43.723)" fill="#5c5c5c"/>
        <rect id="Rectángulo_61762" data-name="Rectángulo 61762" width="5.111" height="9.557" transform="translate(14.639 43.723)" fill="#5c5c5c"/>
        <rect id="Rectángulo_61763" data-name="Rectángulo 61763" width="5.111" height="9.557" transform="translate(0 43.723)" fill="#5c5c5c"/>
        <rect id="Rectángulo_61764" data-name="Rectángulo 61764" width="5.111" height="9.557" transform="translate(43.919 65.584)" fill="#5c5c5c"/>
        <rect id="Rectángulo_61765" data-name="Rectángulo 61765" width="5.111" height="9.557" transform="translate(29.279 65.584)" fill="#5c5c5c"/>
        <rect id="Rectángulo_61766" data-name="Rectángulo 61766" width="5.111" height="9.557" transform="translate(14.639 65.584)" fill="#5c5c5c"/>
        <rect id="Rectángulo_61767" data-name="Rectángulo 61767" width="5.111" height="9.557" transform="translate(0 65.584)" fill="#5c5c5c"/>
        <rect id="Rectángulo_61768" data-name="Rectángulo 61768" width="5.111" height="9.557" transform="translate(43.919 87.445)" fill="#5c5c5c"/>
        <rect id="Rectángulo_61769" data-name="Rectángulo 61769" width="5.111" height="9.557" transform="translate(29.279 87.445)" fill="#5c5c5c"/>
        <rect id="Rectángulo_61770" data-name="Rectángulo 61770" width="5.111" height="9.557" transform="translate(14.639 87.445)" fill="#5c5c5c"/>
        <rect id="Rectángulo_61771" data-name="Rectángulo 61771" width="5.111" height="9.557" transform="translate(0 87.445)" fill="#5c5c5c"/>
      </g>
    </g>
  </g>
  <g id="Grupo_576776" data-name="Grupo 576776" transform="translate(0.844 3.133)">
    <path id="Trazado_218581" data-name="Trazado 218581" d="M1194.5,688.325c15.881,12.2,39.732-15.04,64.4,30.49,14.557,26.87,41.712,4.867,56.05,19.864,6.123,6.4,11.349,18.588,6.918,44.018l-20.06-4.97c-.715-5.8-2.668-14.174-8.993-18.459-16.272-11.021-40.573,19.222-65.714,11.36-21.184-6.625-17.458-32.328-38.045-41.178-24.7-10.617-48.071,18.634-82.316,29.109-12.843,3.928-24.458,7.016-39.677,4.674-35.124-5.4-63.051-27.667-57.535-61.084,1.683-10.2-7.213-24.735-5.28-34.192C1010.165,639,1066.936,590.354,1194.5,688.325Z" transform="translate(-1003.972 -551.711)" fill="#f5f1eb"/>
    <g id="Grupo_576765" data-name="Grupo 576765" transform="translate(382.634 87.175)">
      <g id="Grupo_576763" data-name="Grupo 576763">
        <path id="Trazado_218582" data-name="Trazado 218582" d="M674.913,987.127H636.627l6.938-324.873h24.411Z" transform="translate(-636.627 -662.253)" fill="#fff"/>
        <path id="Trazado_218583" data-name="Trazado 218583" d="M636.626,987.126h17.156l-6.938-324.874H636.626Z" transform="translate(-615.496 -662.252)" fill="#f4f0ea"/>
        <path id="Trazado_218584" data-name="Trazado 218584" d="M685.5,683.187l-.418-20.935H660.671l-.418,20.935Z" transform="translate(-653.734 -662.252)" fill="#0e494d"/>
        <path id="Trazado_218585" data-name="Trazado 218585" d="M657.255,833.464h26.9l-.418-20.935H657.672Z" transform="translate(-651.562 -771.059)" fill="#0e494d"/>
        <path id="Trazado_218586" data-name="Trazado 218586" d="M654.257,983.741h28.557l-.417-20.935H654.674Z" transform="translate(-649.392 -879.866)" fill="#0e494d"/>
        <path id="Trazado_218587" data-name="Trazado 218587" d="M651.258,1134.018h30.211l-.417-20.935H651.676Z" transform="translate(-647.22 -988.673)" fill="#0e494d"/>
      </g>
      <g id="Grupo_576764" data-name="Grupo 576764" transform="translate(62.44)">
        <path id="Trazado_218588" data-name="Trazado 218588" d="M448.644,987.127H410.358L417.3,662.253h24.411Z" transform="translate(-410.358 -662.253)" fill="#fff"/>
        <path id="Trazado_218589" data-name="Trazado 218589" d="M410.357,987.418h17.156l-6.936-324.762-10.22.015Z" transform="translate(-389.227 -662.544)" fill="#f4f0ea"/>
        <path id="Trazado_218590" data-name="Trazado 218590" d="M459.231,683.187l-.418-20.935H434.4l-.418,20.935Z" transform="translate(-427.464 -662.252)" fill="#0e494d"/>
        <path id="Trazado_218591" data-name="Trazado 218591" d="M430.669,833.464h26.989l-.447-20.935H431.087Z" transform="translate(-424.977 -771.059)" fill="#0e494d"/>
        <path id="Trazado_218592" data-name="Trazado 218592" d="M427.46,983.652h28.7l-.448-20.968-27.837.034Z" transform="translate(-422.595 -879.778)" fill="#0e494d"/>
        <path id="Trazado_218593" data-name="Trazado 218593" d="M424.251,1134.018h30.415l-.447-20.935h-29.55Z" transform="translate(-420.214 -988.673)" fill="#0e494d"/>
      </g>
    </g>
    <g id="Grupo_576774" data-name="Grupo 576774" transform="translate(30.309 213.734)">
      <g id="Grupo_576768" data-name="Grupo 576768" transform="translate(137.454)">
        <g id="Grupo_576766" data-name="Grupo 576766" transform="translate(0)">
          <path id="Trazado_218594" data-name="Trazado 218594" d="M1250.611,1272.988h83.724l-4-62.858-20.887-23.885,17.846-23.886-2.641-41.486h-64.357l-2.641,41.486,17.846,23.886-20.887,23.885Z" transform="translate(-1250.611 -1120.873)" fill="#ccd6e7"/>
          <path id="Trazado_218595" data-name="Trazado 218595" d="M1340.832,1318.979H1265.11l3.042-47.771h69.639Z" transform="translate(-1261.109 -1229.722)" fill="#e4ebf2"/>
        </g>
        <g id="Grupo_576767" data-name="Grupo 576767" transform="translate(101.69)">
          <path id="Trazado_218596" data-name="Trazado 218596" d="M882.109,1272.988h83.724l-4-62.858-20.887-23.885,17.846-23.886-2.641-41.486H891.792l-2.641,41.486L907,1186.245l-20.887,23.885Z" transform="translate(-882.109 -1120.873)" fill="#ccd6e7"/>
          <path id="Trazado_218597" data-name="Trazado 218597" d="M972.33,1318.979H896.609l3.041-47.771h69.639Z" transform="translate(-892.608 -1229.722)" fill="#d7e1e1"/>
        </g>
      </g>
      <g id="Grupo_576769" data-name="Grupo 576769" transform="translate(126.181 151.769)">
        <rect id="Rectángulo_61772" data-name="Rectángulo 61772" width="218.202" height="46.64" fill="#5c5c5c"/>
        <rect id="Rectángulo_61773" data-name="Rectángulo 61773" width="206.726" height="7.813" transform="translate(5.864 10.545)" fill="#ccd6e7"/>
        <rect id="Rectángulo_61774" data-name="Rectángulo 61774" width="206.726" height="7.813" transform="translate(5.864 27.57)" fill="#ccd6e7"/>
      </g>
      <g id="Grupo_576771" data-name="Grupo 576771" transform="translate(331.576 67.524)">
        <path id="Trazado_218598" data-name="Trazado 218598" d="M367.627,1408.661v-43.1l28.483,43.1v-43.1l28.483,43.1v-43.1l55.677,84.245H339.144v-84.245Z" transform="translate(-339.144 -1365.564)" fill="#ccd6e7"/>
        <rect id="Rectángulo_61775" data-name="Rectángulo 61775" width="129.063" height="69.334" transform="translate(12.807 61.551)" fill="#d7e1e1"/>
        <g id="Grupo_576770" data-name="Grupo 576770" transform="translate(23.683 73.9)">
          <rect id="Rectángulo_61776" data-name="Rectángulo 61776" width="29.276" height="16.26" fill="#5c5c5c"/>
          <rect id="Rectángulo_61777" data-name="Rectángulo 61777" width="29.276" height="16.26" transform="translate(0 28.376)" fill="#5c5c5c"/>
          <rect id="Rectángulo_61778" data-name="Rectángulo 61778" width="29.276" height="16.26" transform="translate(40.264)" fill="#5c5c5c"/>
          <rect id="Rectángulo_61779" data-name="Rectángulo 61779" width="29.276" height="16.26" transform="translate(40.264 28.376)" fill="#5c5c5c"/>
          <rect id="Rectángulo_61780" data-name="Rectángulo 61780" width="29.276" height="16.26" transform="translate(80.528)" fill="#5c5c5c"/>
          <rect id="Rectángulo_61781" data-name="Rectángulo 61781" width="29.276" height="16.26" transform="translate(80.528 28.376)" fill="#5c5c5c"/>
        </g>
      </g>
      <g id="Grupo_576773" data-name="Grupo 576773" transform="translate(0 129.378)">
        <rect id="Rectángulo_61782" data-name="Rectángulo 61782" width="88.762" height="69.031" transform="translate(0)" fill="#d7e1e1"/>
        <rect id="Rectángulo_61783" data-name="Rectángulo 61783" width="88.762" height="69.031" transform="translate(37.389)" fill="#d7e1e1"/>
        <g id="Grupo_576772" data-name="Grupo 576772" transform="translate(47.632 9.595)">
          <rect id="Rectángulo_61784" data-name="Rectángulo 61784" width="13.901" height="13.848" transform="translate(55.503)" fill="#d7e1e1"/>
          <rect id="Rectángulo_61785" data-name="Rectángulo 61785" width="13.901" height="13.848" transform="translate(55.503 27.647)" fill="#d7e1e1"/>
          <rect id="Rectángulo_61786" data-name="Rectángulo 61786" width="13.901" height="13.848" transform="translate(27.751)" fill="#d7e1e1"/>
          <rect id="Rectángulo_61787" data-name="Rectángulo 61787" width="13.901" height="13.848" transform="translate(27.751 27.647)" fill="#d7e1e1"/>
          <rect id="Rectángulo_61788" data-name="Rectángulo 61788" width="13.901" height="13.848" transform="translate(0)" fill="#d7e1e1"/>
          <rect id="Rectángulo_61789" data-name="Rectángulo 61789" width="13.901" height="13.848" transform="translate(0 27.647)" fill="#d7e1e1"/>
        </g>
      </g>
    </g>
    <g id="Grupo_576775" data-name="Grupo 576775" transform="translate(141.02 0)">
      <path id="Trazado_218599" data-name="Trazado 218599" d="M1261.879,358.713a20.074,20.074,0,0,0-9.8,2.542,26.913,26.913,0,0,0-50.141,5.272,19.572,19.572,0,0,0-27.4,17.588,24.356,24.356,0,1,0,13.53,32.962,20.149,20.149,0,0,0,35.994-2.72,20.082,20.082,0,0,0,35.161-15.741,20.352,20.352,0,0,0,2.659.18,20.041,20.041,0,1,0,0-40.083Z" transform="translate(-1141.388 -346.352)" fill="#3b4046" opacity="0.3"/>
      <path id="Trazado_218600" data-name="Trazado 218600" d="M1289.189,522.169a16.1,16.1,0,0,0-7.819,2.014,21.514,21.514,0,0,0-39.989,4.176,15.688,15.688,0,0,0-6.255-1.294,15.52,15.52,0,0,0-15.6,15.226,19.628,19.628,0,0,0-6.929-1.258,19.3,19.3,0,1,0,17.72,27.368,16.117,16.117,0,0,0,28.706-2.154,16.076,16.076,0,0,0,28.186-10.371,15.8,15.8,0,0,0-.144-2.1,16.382,16.382,0,0,0,2.121.142,15.876,15.876,0,1,0,0-31.75Z" transform="translate(-1178.894 -466.562)" fill="#3b4046" opacity="0.3"/>
      <path id="Trazado_218601" data-name="Trazado 218601" d="M636.088,473.64a14.536,14.536,0,0,0,7.027.17c1.4,6.447,6.064,13.113,13.154,15.046,8.429,2.3,17.412-2.369,21.429-9.239a16.944,16.944,0,0,0,4.978,2.48c16.556,5.669,23.989-10.734,12.722-19.462,7.215-14.813-2.487-21.371-7.438-22.721-5.679-1.548-13.428.922-16.716,5.088a14.255,14.255,0,0,0-9-7.227c-7.458-2.033-15.079,2.053-17.022,9.126a12.6,12.6,0,0,0-.344,1.726,14.909,14.909,0,0,0-1.754-.6c-7.458-2.033-15.078,2.053-17.021,9.127S628.63,471.606,636.088,473.64Z" transform="translate(-417.858 -412.167)" fill="#3b4046" opacity="0.3"/>
      <path id="Trazado_218602" data-name="Trazado 218602" d="M443.295,528.942a13.616,13.616,0,0,0-6.968-1.027,18.534,18.534,0,0,0-11.081-16.409,18.817,18.817,0,0,0-22.351,6.081,13.182,13.182,0,0,0-4.527-3.23,13.8,13.8,0,0,0-17.944,7.242,16.474,16.474,0,0,0-5.078-3.432,17.452,17.452,0,0,0-13.923,31.993,17,17,0,0,0,18.2-3.2,13.829,13.829,0,0,0,8.215,11.235,14.011,14.011,0,0,0,15.48-3.122,13.721,13.721,0,0,0,7.708,8.749,14.2,14.2,0,0,0,18.535-7.625,14.87,14.87,0,0,0,.642-1.789,13.728,13.728,0,0,0,1.642.849,14.355,14.355,0,0,0,11.452-26.315Z" transform="translate(-92.971 -464.848)" fill="#3b4046" opacity="0.3"/>
      <path id="Trazado_218603" data-name="Trazado 218603" d="M925.715,446.274a15.482,15.482,0,0,0-7.731-2.656,21.422,21.422,0,0,0-8.81-21.351c-8.334-5.684-19.464-4.443-27.008,2.348a14.942,14.942,0,0,0-4.418-4.7c-7.111-4.85-17.018-2.772-22.239,4.621a18.661,18.661,0,0,0-5-5.046c-8.965-6.115-21.487-3.425-27.969,6.007s-4.469,22.035,4.5,28.15a19.7,19.7,0,0,0,21.577.118,15.945,15.945,0,0,0,6.75,14.751,16.268,16.268,0,0,0,18.449-.364,15.727,15.727,0,0,0,6.757,11.763c7.374,5.029,17.674,2.817,23.005-4.941a17.957,17.957,0,0,0,1.156-1.938,15.425,15.425,0,0,0,1.679,1.33c7.374,5.03,17.674,2.818,23.005-4.941S933.088,451.3,925.715,446.274Z" transform="translate(-702.893 -396.937)" fill="#3b4046" opacity="0.3"/>
      <path id="Trazado_218604" data-name="Trazado 218604" d="M708.656,605.254a12.959,12.959,0,0,0,6.488.781,17.354,17.354,0,0,0,31.351,8.633,12.643,12.643,0,0,0,20.619-4.112A15.742,15.742,0,1,0,783.507,584.3c-5.917-2.319-11.527-2.454-15.835,1.659-.7-4.365-4.5-6.631-8.929-8.367a13.014,13.014,0,0,0-14.19,3.158,12.974,12.974,0,0,0-24.84,1.177,12.988,12.988,0,0,0-18.382,6.564A12.914,12.914,0,0,0,708.656,605.254Z" transform="translate(-531.219 -509.798)" fill="#3b4046" opacity="0.3"/>
    </g>
  </g>
  <g id="Grupo_576798" data-name="Grupo 576798" transform="translate(6.881 158.303)">
    <g id="Grupo_576777" data-name="Grupo 576777" transform="translate(53.091 175.954)">
      <path id="Trazado_218605" data-name="Trazado 218605" d="M1440.489,1715.791s3.309-114.8,14.611-162.194c0,0,63.952-14.02,114.387-3.28,0,0,5.751,87.619,10.964,165.474h-41.9l-26.228-92.331-23.6,92.331Z" transform="translate(-1440.489 -1546.267)" fill="#0e494d"/>
    </g>
    <g id="Grupo_576788" data-name="Grupo 576788" transform="translate(0 0)">
      <g id="Grupo_576778" data-name="Grupo 576778" transform="translate(0 78.512)">
        <path id="Trazado_218606" data-name="Trazado 218606" d="M1452.742,1195.847l-17.949,127.044,48.974,3.97,5.678-30.548,48.129-3.129,3.743,31.065s26.488-4.342,39.027-8.251l-4.812-97.244a17.46,17.46,0,0,0-14.529-15.52C1542.522,1200.176,1500.86,1193.814,1452.742,1195.847Z" transform="translate(-1385.721 -1194.821)" fill="#34bc85"/>
        <path id="Trazado_218607" data-name="Trazado 218607" d="M1511.995,1313.742a.608.608,0,0,0,.566-.386l20.1-50.972a.608.608,0,0,0-.284-.762l-16.705-8.721,14.6-8.088a.607.607,0,0,0,.24-.823l-19.267-35.4a.609.609,0,0,0-1.069.582l18.978,34.873-15.065,8.344a.608.608,0,0,0,.013,1.071l17.223,8.991-19.894,50.463a.608.608,0,0,0,.343.789A.6.6,0,0,0,1511.995,1313.742Z" transform="translate(-1358.856 -1204.1)" fill="#5c5c5c"/>
        <path id="Trazado_218608" data-name="Trazado 218608" d="M1787.9,1298.541a.608.608,0,0,0,.552-.863l-22.7-49.264,16.69-9.946a.609.609,0,0,0-.047-1.07l-15.511-7.483,16.988-35.885a.609.609,0,0,0-1.1-.52l-17.245,36.431a.608.608,0,0,0,.286.808l15.035,7.254-16.188,9.646a.609.609,0,0,0-.241.778l22.93,49.761A.609.609,0,0,0,1787.9,1298.541Z" transform="translate(-1684.827 -1193.161)" fill="#5c5c5c"/>
        <path id="Trazado_218609" data-name="Trazado 218609" d="M1275.857,1279.467l-17.912-12.393a8.025,8.025,0,0,0-10.253.91c-18.952,17.892-39.741-4.968-39.741-4.968l-13.215,1.684,15.447,60.3c45.855,25.428,64.313-13,70.1-31.684A12.475,12.475,0,0,0,1275.857,1279.467Z" transform="translate(-1019.989 -1243.739)" fill="#34bc85"/>
        <path id="Trazado_218610" data-name="Trazado 218610" d="M1937.113,1307.538s-49.627,19.949-38.211-37.213c6.495-32.52,41.3-60.86,52.789-69.464a20.79,20.79,0,0,1,12.526-4.009L1957.577,1273Z" transform="translate(-1897.197 -1195.827)" fill="#34bc85"/>
        <path id="Trazado_218611" data-name="Trazado 218611" d="M1893.132,1363.125a.608.608,0,0,0,.585-.441l11.821-41.435a.608.608,0,1,0-1.17-.334l-11.821,41.435a.607.607,0,0,0,.585.776Z" transform="translate(-1837.25 -1285.34)" fill="#5c5c5c"/>
        <path id="Trazado_218612" data-name="Trazado 218612" d="M1450.629,1372.16a.6.6,0,0,0,.136-.015.608.608,0,0,0,.458-.729l-10.67-46.668a.608.608,0,1,0-1.185.272l10.669,46.668A.609.609,0,0,0,1450.629,1372.16Z" transform="translate(-1257.871 -1288.094)" fill="#5c5c5c"/>
        <path id="Trazado_218613" data-name="Trazado 218613" d="M1987.793,1452.446a.609.609,0,0,0,.017-1.217l-29.337-.792a.608.608,0,1,0-.032,1.216l29.336.793Z" transform="translate(-1938.118 -1379.439)" fill="#3b4046"/>
      </g>
      <g id="Grupo_576781" data-name="Grupo 576781" transform="translate(214.359)">
        <path id="Trazado_218614" data-name="Trazado 218614" d="M1192.343,1098.747a24.944,24.944,0,0,1-3.131,2.454c-6.939,4.589-13.022,3.833-16.836,9.938a14.887,14.887,0,0,0-1.689,3.894c-1.724,5.808-5.781,21.505-11.938,43.937,4.353,4.817,10.554,7.308,16.981,8.948a53.719,53.719,0,0,0,12.108,1.83,24.268,24.268,0,0,0,5.46-.416c2.142-13.348,4.988-26.571,8.067-44.194v0a34.646,34.646,0,0,0,6.829-4.956Z" transform="translate(-1151.753 -1046.289)" fill="#d1a08d"/>
        <path id="Trazado_218615" data-name="Trazado 218615" d="M1200.47,1293.619l7.9-15.376,35.733,7.47-1.25,17.241S1203.407,1297.536,1200.47,1293.619Z" transform="translate(-1199.171 -1176.252)" fill="#fff"/>
        <g id="Grupo_576779" data-name="Grupo 576779">
          <rect id="Rectángulo_61790" data-name="Rectángulo 61790" width="18.253" height="90.048" transform="translate(0 9.848) rotate(-32.653)" fill="#c07257"/>
          <rect id="Rectángulo_61791" data-name="Rectángulo 61791" width="18.253" height="35.995" transform="translate(29.164 55.358) rotate(-32.653)" fill="#3b4046"/>
          <rect id="Rectángulo_61792" data-name="Rectángulo 61792" width="18.253" height="4.783" transform="translate(0 9.848) rotate(-32.653)" fill="#3b4046"/>
        </g>
        <g id="Grupo_576780" data-name="Grupo 576780" transform="translate(36.639 37.934)">
          <path id="Trazado_218616" data-name="Trazado 218616" d="M1186.2,1061.032c-1.505-2.608,1.161-7.013,4.03-10.889,2.106-2.846,4.7-5.8,6.89-2.717,2.543,3.582-.362,7.68-2.463,10.051C1191.545,1061,1187.677,1063.582,1186.2,1061.032Z" transform="translate(-1185.77 -1046.116)" fill="#d09f8c"/>
          <path id="Trazado_218617" data-name="Trazado 218617" d="M1172.1,1081.882c-1.583-2.762,1.332-7.554,4.458-11.784,2.3-3.106,5.118-6.338,7.427-3.085,2.684,3.781-.484,8.251-2.766,10.847C1177.829,1081.713,1173.646,1084.582,1172.1,1081.882Z" transform="translate(-1168.769 -1060.265)" fill="#d09f8c"/>
          <path id="Trazado_218618" data-name="Trazado 218618" d="M1161.776,1108.565c-1.737-2.748.633-7.235,3.251-11.168,1.922-2.888,4.335-5.871,6.8-2.612,2.869,3.789.232,7.951-1.722,10.347C1167.21,1108.687,1163.473,1111.253,1161.776,1108.565Z" transform="translate(-1153.963 -1080.326)" fill="#d09f8c"/>
          <path id="Trazado_218619" data-name="Trazado 218619" d="M1153.633,1133.08c-1.445-2.266.4-5.8,2.461-8.885,1.511-2.264,3.417-4.589,5.462-1.89,2.376,3.139.307,6.405-1.236,8.272C1158.029,1133.348,1155.047,1135.295,1153.633,1133.08Z" transform="translate(-1141.278 -1100.401)" fill="#d09f8c"/>
          <path id="Trazado_218620" data-name="Trazado 218620" d="M1184.619,1073.087a.609.609,0,0,0,.473-.225l6.358-7.852a.608.608,0,0,0-.946-.766l-6.358,7.851a.609.609,0,0,0,.473.992Z" transform="translate(-1178.753 -1059.078)" fill="#3b4046"/>
          <path id="Trazado_218621" data-name="Trazado 218621" d="M1172.172,1098.909a.607.607,0,0,0,.467-.218l6.273-7.5a.608.608,0,1,0-.933-.781l-6.273,7.5a.608.608,0,0,0,.467,1Z" transform="translate(-1162.787 -1078.029)" fill="#3b4046"/>
          <path id="Trazado_218622" data-name="Trazado 218622" d="M1161.257,1127.6a.608.608,0,0,0,.476-.229l6.263-7.85a.609.609,0,1,0-.952-.759l-6.263,7.85a.608.608,0,0,0,.475.988Z" transform="translate(-1148.85 -1098.547)" fill="#3b4046"/>
        </g>
        <path id="Trazado_218623" data-name="Trazado 218623" d="M1255.93,1093.833c1.968-9.13.743-12.84-.714-13.106-2.45-.447-7.321,6.66-11.877,19.642C1247.01,1098.863,1252.259,1095.339,1255.93,1093.833Z" transform="translate(-1223.855 -1033.227)" fill="#d1a08d"/>
      </g>
      <path id="Trazado_218624" data-name="Trazado 218624" d="M1637.914,1294.19l-48.128,3.129,6.049-100.476,33.564,2.914Z" transform="translate(-1486.06 -1117.314)" fill="#fff"/>
      <g id="Grupo_576784" data-name="Grupo 576784" transform="translate(90.088 77.465)">
        <path id="Trazado_218625" data-name="Trazado 218625" d="M1193.825,1341.224a67.627,67.627,0,0,0,40.589-13.853c11.572-8.647,21.451-20.957,29.366-36.588a145.19,145.19,0,0,0,14.77-50c1.989-18.19,2.948-38.49-5.019-51.134a.608.608,0,0,0-1.029.649c7.769,12.328,6.806,32.372,4.839,50.353a143.985,143.985,0,0,1-14.646,49.581c-7.83,15.462-17.59,27.629-29.01,36.163-15.064,11.257-33.122,15.752-50.844,12.656a51.492,51.492,0,0,1-29.928-17.043,50.462,50.462,0,0,1-10.27-20.1.608.608,0,0,0-1.179.3,51.682,51.682,0,0,0,10.521,20.584,52.724,52.724,0,0,0,30.646,17.454A65.027,65.027,0,0,0,1193.825,1341.224Z" transform="translate(-1094.451 -1189.367)" fill="#3b4046"/>
        <rect id="Rectángulo_61793" data-name="Rectángulo 61793" width="4.867" height="9.883" transform="matrix(0.996, 0.091, -0.091, 0.996, 46.253, 105.528)" fill="#c07257"/>
        <g id="Grupo_576782" data-name="Grupo 576782" transform="translate(0 39.15)">
          <path id="Trazado_218626" data-name="Trazado 218626" d="M1540.906,1397.72a.609.609,0,0,0,.573-.4l23.1-64.86h50.531a.608.608,0,1,0,0-1.216h-51.389l-.144.4-23.245,65.264a.609.609,0,0,0,.573.813Z" transform="translate(-1540.297 -1331.239)" fill="#3b4046"/>
        </g>
        <g id="Grupo_576783" data-name="Grupo 576783" transform="translate(3.061 42.914)">
          <path id="Trazado_218627" data-name="Trazado 218627" d="M1584.576,1410.142h-50.96l23.245-65.264h50.959Z" transform="translate(-1533.616 -1344.878)" fill="#c07257"/>
        </g>
      </g>
      <g id="Grupo_576787" data-name="Grupo 576787" transform="translate(39.916 146.714)">
        <g id="Grupo_576786" data-name="Grupo 576786" transform="translate(10.448 4.037)">
          <path id="Trazado_218628" data-name="Trazado 218628" d="M1753.126,1465.143c-.146-5.861-40.4-9.212-47.911-9.642-1.735-.1-10.4-.289-21.089-.565l-.1.13a46.854,46.854,0,0,0-3.3,4.808c-3.661,6.45-4.608,13.635-5.159,20.91a95.075,95.075,0,0,0-.306,10.933c26.091.488,55.445.642,59.43.867,3.716.338,12.28,1.142,12.7-1.511.568-3.614-8.427-5.8-8.667-6.224,2.783.388,12.119,1.25,12.724-1.756.465-2.31-8.487-5.921-10.694-6.917.194-.059,10.854,2.836,11.721-.75.739-3.052-7.638-6.764-9.691-7.954C1745.412,1467.648,1753.2,1467.943,1753.126,1465.143Z" transform="translate(-1675.211 -1454.935)" fill="#d1a08d"/>
          <g id="Grupo_576785" data-name="Grupo 576785" transform="translate(54.218 8.864)">
            <path id="Trazado_218629" data-name="Trazado 218629" d="M1723.556,1491.064a.608.608,0,0,0,.241-1.167,34.961,34.961,0,0,0-13.082-2.84.615.615,0,0,0-.622.594.609.609,0,0,0,.595.622,33.763,33.763,0,0,1,12.627,2.741A.611.611,0,0,0,1723.556,1491.064Z" transform="translate(-1710.093 -1487.056)" fill="#3b4046"/>
            <path id="Trazado_218630" data-name="Trazado 218630" d="M1727.23,1526.3a.609.609,0,0,0,.178-1.19q-.483-.148-.986-.287a35.156,35.156,0,0,0-8.539-1.246.608.608,0,0,0-.027,1.216,33.959,33.959,0,0,1,8.244,1.2q.486.133.951.277A.618.618,0,0,0,1727.23,1526.3Z" transform="translate(-1715.744 -1513.496)" fill="#3b4046"/>
            <path id="Trazado_218631" data-name="Trazado 218631" d="M1731.98,1560.522a.608.608,0,0,0,.11-1.206,35.344,35.344,0,0,0-5.63-.578.609.609,0,0,0-.027,1.217,34.076,34.076,0,0,1,5.435.558A.626.626,0,0,0,1731.98,1560.522Z" transform="translate(-1722.861 -1538.957)" fill="#3b4046"/>
          </g>
        </g>
        <path id="Trazado_218632" data-name="Trazado 218632" d="M1903.8,1440.44c.5-.884,22.486,2.925,22.486,2.925s-6.666,25.25-7.555,40.453h-18.794S1901.21,1445.052,1903.8,1440.44Z" transform="translate(-1899.935 -1440.307)" fill="#fff"/>
      </g>
    </g>
    <g id="Grupo_576797" data-name="Grupo 576797" transform="translate(91.869 18.535)">
      <ellipse id="Elipse_5724" data-name="Elipse 5724" cx="10.982" cy="10.982" rx="10.982" ry="10.982" transform="translate(8.405 57.295) rotate(-112.5)" fill="#3b4046"/>
      <path id="Trazado_218633" data-name="Trazado 218633" d="M1729.6,1105.349a11.59,11.59,0,1,0-11.59-11.59A11.6,11.6,0,0,0,1729.6,1105.349Zm0-21.963a10.373,10.373,0,1,1-10.373,10.373A10.385,10.385,0,0,1,1729.6,1083.386Z" transform="translate(-1716.594 -1052.821)" fill="#44494d"/>
      <path id="Trazado_218634" data-name="Trazado 218634" d="M1724.749,1124.764a11.59,11.59,0,1,0-11.59-11.59A11.6,11.6,0,0,0,1724.749,1124.764Zm0-21.963a10.373,10.373,0,1,1-10.373,10.373A10.385,10.385,0,0,1,1724.749,1102.8Z" transform="translate(-1710.401 -1066.878)" fill="#44494d"/>
      <rect id="Rectángulo_61794" data-name="Rectángulo 61794" width="17.016" height="34.806" transform="translate(24.543 29.34)" fill="#d1a08d"/>
      <g id="Grupo_576789" data-name="Grupo 576789" transform="translate(15.555 55.848)">
        <path id="Trazado_218635" data-name="Trazado 218635" d="M1687.32,1183.344l7.981-5.144,9.533,5.2-2.724,20.431Z" transform="translate(-1687.32 -1178.2)" fill="#fff"/>
        <path id="Trazado_218636" data-name="Trazado 218636" d="M1638.907,1186.5l-8.9-8.3-10.292,5.464,3.3,19.617Z" transform="translate(-1602.738 -1178.2)" fill="#fff"/>
      </g>
      <g id="Grupo_576790" data-name="Grupo 576790" transform="translate(14.946 60.385)">
        <path id="Trazado_218637" data-name="Trazado 218637" d="M1701.844,1217.327l2.67-20.017a.608.608,0,1,0-1.206-.161l-2.266,16.988-13.894-19.246a.609.609,0,0,0-.987.712Z" transform="translate(-1686.046 -1194.638)" fill="#3b4046"/>
        <path id="Trazado_218638" data-name="Trazado 218638" d="M1620.743,1221.688l16.731-17.67a.608.608,0,1,0-.883-.837l-15.053,15.9-2.818-16.752a.609.609,0,0,0-1.2.2Z" transform="translate(-1600.254 -1199.838)" fill="#3b4046"/>
      </g>
      <g id="Grupo_576795" data-name="Grupo 576795" transform="translate(16.319 9.236)">
        <path id="Trazado_218639" data-name="Trazado 218639" d="M1650.388,1048.27c-3.223,4.338-17.688.1-17.688.1l-11.377-11.968a13.767,13.767,0,0,1,8.839-17.347h0a13.767,13.767,0,0,1,17.348,8.839S1653.672,1043.851,1650.388,1048.27Z" transform="translate(-1616.202 -1015.871)" fill="#d1a08d"/>
        <path id="Trazado_218640" data-name="Trazado 218640" d="M1617.62,1067.116s4.923,2.655,5.057,3.734c.16,1.288-3.69,3.357-3.69,3.357S1617.721,1067.093,1617.62,1067.116Z" transform="translate(-1586.698 -1051.158)" fill="#d1a08d"/>
        <path id="Trazado_218641" data-name="Trazado 218641" d="M1661.755,1128.656a.608.608,0,0,0,.048-1.215,53.763,53.763,0,0,1-9.26-1.737.608.608,0,1,0-.341,1.168,53.923,53.923,0,0,0,9.5,1.781Z" transform="translate(-1635.802 -1093.561)" fill="#3b4046"/>
        <g id="Grupo_576793" data-name="Grupo 576793" transform="translate(17.327 15.276)">
          <path id="Trazado_218642" data-name="Trazado 218642" d="M1664.941,1069.3a13.094,13.094,0,0,1,4.878-3.013c.616-.2,1.056,5.108.38,5.019A13.121,13.121,0,0,1,1664.941,1069.3Z" transform="translate(-1664.94 -1065.827)" fill="#fff"/>
          <g id="Grupo_576792" data-name="Grupo 576792">
            <g id="Grupo_576791" data-name="Grupo 576791" clip-path="url(#clip-path)">
              <path id="Trazado_218643" data-name="Trazado 218643" d="M1632.475,1058.3a5.157,5.157,0,1,1,2.254,6.937A5.158,5.158,0,0,1,1632.475,1058.3Z" transform="translate(-1627.514 -1058.014)" fill="#3b4046"/>
            </g>
          </g>
        </g>
        <path id="Trazado_218645" data-name="Trazado 218645" d="M1640.463,1101.146l.051,0a.609.609,0,0,0,.556-.656,2.722,2.722,0,0,0-4.619-1.727.608.608,0,1,0,.849.871,1.506,1.506,0,0,1,2.558.956A.608.608,0,0,0,1640.463,1101.146Z" transform="translate(-1610.234 -1073.508)" fill="#3b4046"/>
        <path id="Trazado_218646" data-name="Trazado 218646" d="M1648.286,1034.3s3.63-3.032,9.378-.009c0,0-1.565-18.717,15.934-18.193,0,0-11.038-12.219-22.078-3.924C1639.606,1021.125,1648.286,1034.3,1648.286,1034.3Z" transform="translate(-1645.233 -1009.288)" fill="#3b4046"/>
        <g id="Grupo_576794" data-name="Grupo 576794" transform="translate(2.897 20.806)">
          <path id="Trazado_218647" data-name="Trazado 218647" d="M1704.863,1092.073c1.6,2.31,4.517,3.059,6.526,1.672s2.344-4.384.748-6.694-4.516-3.058-6.525-1.672S1703.268,1089.763,1704.863,1092.073Z" transform="translate(-1703.856 -1084.682)" fill="#d1a08d"/>
          <path id="Trazado_218648" data-name="Trazado 218648" d="M1711.693,1093.635h.044a.609.609,0,0,0,.563-.65,1.855,1.855,0,0,1,.736-1.7,2.138,2.138,0,0,1,2.886.8.608.608,0,1,0,1-.691,3.347,3.347,0,0,0-4.579-1.111,3.059,3.059,0,0,0-1.258,2.785A.608.608,0,0,0,1711.693,1093.635Z" transform="translate(-1709.735 -1088.374)" fill="#3b4046"/>
        </g>
      </g>
      <g id="Grupo_576796" data-name="Grupo 576796" transform="translate(7.702)">
        <path id="Trazado_218649" data-name="Trazado 218649" d="M1670.712,989.589c-.022-.08-.039-.162-.063-.243a18.715,18.715,0,0,0-35.96,10.384c.024.081.052.159.076.24Z" transform="translate(-1630.618 -975.819)" fill="#c07257"/>
        <path id="Trazado_218650" data-name="Trazado 218650" d="M1655.327,998.373a.608.608,0,0,0,.57-.4,18.109,18.109,0,0,1,27.434-8.5.608.608,0,0,0,.7-.994,19.325,19.325,0,0,0-29.276,9.076.607.607,0,0,0,.359.782A.6.6,0,0,0,1655.327,998.373Z" transform="translate(-1649.927 -982.413)" fill="#e0ba76"/>
        <path id="Trazado_218651" data-name="Trazado 218651" d="M1654.859,1011.415a.608.608,0,0,0,.554-.356,18.72,18.72,0,0,1,25.7-7.887.609.609,0,0,0,.626-1.043,19.934,19.934,0,0,0-27.429,8.425.608.608,0,0,0,.3.806A.6.6,0,0,0,1654.859,1011.415Z" transform="translate(-1647.538 -993.038)" fill="#e0ba76"/>
        <path id="Trazado_218652" data-name="Trazado 218652" d="M1650.1,1023.34l-44.479,12.845a2.084,2.084,0,0,1-2.58-1.424h0a2.084,2.084,0,0,1,1.424-2.58l44.479-12.845a2.083,2.083,0,0,1,2.579,1.424h0A2.082,2.082,0,0,1,1650.1,1023.34Z" transform="translate(-1602.957 -1007.268)" fill="#c07257"/>
      </g>
    </g>
  </g>
</svg>
