<svg xmlns="http://www.w3.org/2000/svg" xmlns:xlink="http://www.w3.org/1999/xlink" width="498.705" height="527" viewBox="0 0 498.705 527">
  <defs>
    <clipPath id="clip-path">
      <path id="Trazado_194701" data-name="Trazado 194701" d="M1386.718,1207.256a5.517,5.517,0,1,0-3.448,1.946A6.388,6.388,0,0,0,1386.718,1207.256Z" transform="translate(-1379.405 -1206.342)" fill="none"/>
    </clipPath>
  </defs>
  <g id="Grupo_983871" data-name="Grupo 983871" transform="translate(-918 -8599)">
    <rect id="Rectángulo_344412" data-name="Rectángulo 344412" width="412" height="527" rx="17" transform="translate(960 8599)" fill="#d7e1e1"/>
    <g id="Grupo_983870" data-name="Grupo 983870" transform="translate(581.645 8267.77)">
      <g id="Grupo_149860" data-name="Grupo 149860" transform="translate(336.355 522.407)">
        <g id="Grupo_149852" data-name="Grupo 149852" transform="translate(75.106 29.2)">
          <rect id="Rectángulo_61446" data-name="Rectángulo 61446" width="64.975" height="122.008" fill="#f4f0ea"/>
          <g id="Grupo_149851" data-name="Grupo 149851" transform="translate(7.517 11.13)">
            <rect id="Rectángulo_61447" data-name="Rectángulo 61447" width="5.159" height="9.688" fill="#fff"/>
            <rect id="Rectángulo_61448" data-name="Rectángulo 61448" width="5.159" height="9.688" transform="translate(14.777)" fill="#fff"/>
            <rect id="Rectángulo_61449" data-name="Rectángulo 61449" width="5.159" height="9.688" transform="translate(29.555)" fill="#fff"/>
            <rect id="Rectángulo_61450" data-name="Rectángulo 61450" width="5.159" height="9.688" transform="translate(44.332)" fill="#fff"/>
            <rect id="Rectángulo_61451" data-name="Rectángulo 61451" width="5.159" height="9.688" transform="translate(0 22.16)" fill="#fff"/>
            <rect id="Rectángulo_61452" data-name="Rectángulo 61452" width="5.159" height="9.688" transform="translate(14.777 22.16)" fill="#fff"/>
            <rect id="Rectángulo_61453" data-name="Rectángulo 61453" width="5.159" height="9.688" transform="translate(29.555 22.16)" fill="#fff"/>
            <rect id="Rectángulo_61454" data-name="Rectángulo 61454" width="5.159" height="9.688" transform="translate(44.332 22.16)" fill="#fff"/>
            <rect id="Rectángulo_61455" data-name="Rectángulo 61455" width="5.159" height="9.688" transform="translate(0 44.319)" fill="#fff"/>
            <rect id="Rectángulo_61456" data-name="Rectángulo 61456" width="5.159" height="9.688" transform="translate(14.777 44.319)" fill="#fff"/>
            <rect id="Rectángulo_61457" data-name="Rectángulo 61457" width="5.159" height="9.688" transform="translate(29.555 44.319)" fill="#fff"/>
            <rect id="Rectángulo_61458" data-name="Rectángulo 61458" width="5.159" height="9.688" transform="translate(44.332 44.319)" fill="#fff"/>
            <rect id="Rectángulo_61459" data-name="Rectángulo 61459" width="5.159" height="9.688" transform="translate(0 66.479)" fill="#fff"/>
            <rect id="Rectángulo_61460" data-name="Rectángulo 61460" width="5.159" height="9.688" transform="translate(14.777 66.479)" fill="#fff"/>
            <rect id="Rectángulo_61461" data-name="Rectángulo 61461" width="5.159" height="9.688" transform="translate(29.555 66.479)" fill="#fff"/>
            <rect id="Rectángulo_61462" data-name="Rectángulo 61462" width="5.159" height="9.688" transform="translate(44.332 66.479)" fill="#fff"/>
            <rect id="Rectángulo_61463" data-name="Rectángulo 61463" width="5.159" height="9.688" transform="translate(0 88.639)" fill="#fff"/>
            <rect id="Rectángulo_61464" data-name="Rectángulo 61464" width="5.159" height="9.688" transform="translate(14.777 88.639)" fill="#fff"/>
            <rect id="Rectángulo_61465" data-name="Rectángulo 61465" width="5.159" height="9.688" transform="translate(29.555 88.639)" fill="#fff"/>
            <rect id="Rectángulo_61466" data-name="Rectángulo 61466" width="5.159" height="9.688" transform="translate(44.332 88.639)" fill="#fff"/>
          </g>
        </g>
        <g id="Grupo_149853" data-name="Grupo 149853" transform="translate(21.307 0)">
          <rect id="Rectángulo_61467" data-name="Rectángulo 61467" width="54.464" height="148.652" transform="translate(0.273 0.273)" fill="#decebc"/>
          <path id="Trazado_194613" data-name="Trazado 194613" d="M469.2,977.881H414.735a.273.273,0,1,1,0-.546H469.2a.273.273,0,0,1,0,.546Z" transform="translate(-414.462 -966.08)" fill="#fff"/>
          <path id="Trazado_194614" data-name="Trazado 194614" d="M469.2,1019.139H414.735a.273.273,0,1,1,0-.546H469.2a.273.273,0,0,1,0,.546Z" transform="translate(-414.462 -996.084)" fill="#fff"/>
          <path id="Trazado_194615" data-name="Trazado 194615" d="M469.2,1060.4H414.735a.273.273,0,1,1,0-.546H469.2a.273.273,0,0,1,0,.546Z" transform="translate(-414.462 -1026.087)" fill="#fff"/>
          <path id="Trazado_194616" data-name="Trazado 194616" d="M469.2,1101.654H414.735a.273.273,0,1,1,0-.545H469.2a.273.273,0,1,1,0,.545Z" transform="translate(-414.462 -1056.09)" fill="#fff"/>
          <path id="Trazado_194617" data-name="Trazado 194617" d="M469.2,1142.913H414.735a.273.273,0,1,1,0-.546H469.2a.273.273,0,0,1,0,.546Z" transform="translate(-414.462 -1086.093)" fill="#fff"/>
          <path id="Trazado_194618" data-name="Trazado 194618" d="M469.2,1184.17H414.735a.273.273,0,1,1,0-.545H469.2a.273.273,0,1,1,0,.545Z" transform="translate(-414.462 -1116.096)" fill="#fff"/>
          <path id="Trazado_194619" data-name="Trazado 194619" d="M469.2,1225.429H414.735a.273.273,0,1,1,0-.546H469.2a.273.273,0,0,1,0,.546Z" transform="translate(-414.462 -1146.099)" fill="#fff"/>
          <path id="Trazado_194620" data-name="Trazado 194620" d="M469.2,1266.686H414.735a.273.273,0,1,1,0-.545H469.2a.273.273,0,1,1,0,.545Z" transform="translate(-414.462 -1176.103)" fill="#fff"/>
          <path id="Trazado_194621" data-name="Trazado 194621" d="M469.2,1307.945H414.735a.273.273,0,1,1,0-.546H469.2a.273.273,0,0,1,0,.546Z" transform="translate(-414.462 -1206.106)" fill="#fff"/>
          <path id="Trazado_194622" data-name="Trazado 194622" d="M453.93,1085.275a.273.273,0,0,1-.273-.273V936.35a.273.273,0,1,1,.546,0V1085A.273.273,0,0,1,453.93,1085.275Z" transform="translate(-442.965 -936.077)" fill="#fff"/>
          <path id="Trazado_194623" data-name="Trazado 194623" d="M515.817,1085.275a.273.273,0,0,1-.273-.273V936.35a.273.273,0,1,1,.546,0V1085A.273.273,0,0,1,515.817,1085.275Z" transform="translate(-487.97 -936.077)" fill="#fff"/>
          <path id="Trazado_194624" data-name="Trazado 194624" d="M577.7,1085.275a.273.273,0,0,1-.273-.273V936.35a.273.273,0,1,1,.546,0V1085A.273.273,0,0,1,577.7,1085.275Z" transform="translate(-532.975 -936.077)" fill="#fff"/>
        </g>
        <g id="Grupo_149855" data-name="Grupo 149855" transform="translate(42.181 84.921)">
          <rect id="Rectángulo_61468" data-name="Rectángulo 61468" width="51.894" height="91.513" fill="#decebc"/>
          <g id="Grupo_149854" data-name="Grupo 149854" transform="translate(6.004 8.348)">
            <rect id="Rectángulo_61469" data-name="Rectángulo 61469" width="4.12" height="7.266" fill="#fff"/>
            <rect id="Rectángulo_61470" data-name="Rectángulo 61470" width="4.12" height="7.266" transform="translate(11.802)" fill="#fff"/>
            <rect id="Rectángulo_61471" data-name="Rectángulo 61471" width="4.121" height="7.266" transform="translate(23.605)" fill="#fff"/>
            <rect id="Rectángulo_61472" data-name="Rectángulo 61472" width="4.12" height="7.266" transform="translate(35.407)" fill="#fff"/>
            <rect id="Rectángulo_61473" data-name="Rectángulo 61473" width="4.12" height="7.266" transform="translate(0 16.621)" fill="#fff"/>
            <rect id="Rectángulo_61474" data-name="Rectángulo 61474" width="4.12" height="7.266" transform="translate(11.802 16.621)" fill="#fff"/>
            <rect id="Rectángulo_61475" data-name="Rectángulo 61475" width="4.121" height="7.266" transform="translate(23.605 16.621)" fill="#fff"/>
            <rect id="Rectángulo_61476" data-name="Rectángulo 61476" width="4.12" height="7.266" transform="translate(35.407 16.621)" fill="#fff"/>
            <rect id="Rectángulo_61477" data-name="Rectángulo 61477" width="4.12" height="7.266" transform="translate(0 33.242)" fill="#fff"/>
            <rect id="Rectángulo_61478" data-name="Rectángulo 61478" width="4.12" height="7.266" transform="translate(11.802 33.242)" fill="#fff"/>
            <rect id="Rectángulo_61479" data-name="Rectángulo 61479" width="4.121" height="7.266" transform="translate(23.605 33.242)" fill="#fff"/>
            <rect id="Rectángulo_61480" data-name="Rectángulo 61480" width="4.12" height="7.266" transform="translate(35.407 33.242)" fill="#fff"/>
            <rect id="Rectángulo_61481" data-name="Rectángulo 61481" width="4.12" height="7.266" transform="translate(0 49.863)" fill="#fff"/>
            <rect id="Rectángulo_61482" data-name="Rectángulo 61482" width="4.12" height="7.266" transform="translate(11.802 49.863)" fill="#fff"/>
            <rect id="Rectángulo_61483" data-name="Rectángulo 61483" width="4.121" height="7.266" transform="translate(23.605 49.863)" fill="#fff"/>
            <rect id="Rectángulo_61484" data-name="Rectángulo 61484" width="4.12" height="7.266" transform="translate(35.407 49.863)" fill="#fff"/>
            <rect id="Rectángulo_61485" data-name="Rectángulo 61485" width="4.12" height="7.266" transform="translate(0 66.484)" fill="#fff"/>
            <rect id="Rectángulo_61486" data-name="Rectángulo 61486" width="4.12" height="7.266" transform="translate(11.802 66.484)" fill="#fff"/>
            <rect id="Rectángulo_61487" data-name="Rectángulo 61487" width="4.121" height="7.266" transform="translate(23.605 66.484)" fill="#fff"/>
            <rect id="Rectángulo_61488" data-name="Rectángulo 61488" width="4.12" height="7.266" transform="translate(35.407 66.484)" fill="#fff"/>
          </g>
        </g>
        <g id="Grupo_149857" data-name="Grupo 149857" transform="translate(0 114.927)">
          <rect id="Rectángulo_61489" data-name="Rectángulo 61489" width="64.975" height="114.581" fill="#decebc"/>
          <g id="Grupo_149856" data-name="Grupo 149856" transform="translate(7.517 10.452)">
            <rect id="Rectángulo_61490" data-name="Rectángulo 61490" width="5.159" height="9.098" fill="#fff"/>
            <rect id="Rectángulo_61491" data-name="Rectángulo 61491" width="5.159" height="9.098" transform="translate(14.777)" fill="#fff"/>
            <rect id="Rectángulo_61492" data-name="Rectángulo 61492" width="5.159" height="9.098" transform="translate(29.555)" fill="#fff"/>
            <rect id="Rectángulo_61493" data-name="Rectángulo 61493" width="5.159" height="9.098" transform="translate(44.332)" fill="#fff"/>
            <rect id="Rectángulo_61494" data-name="Rectángulo 61494" width="5.159" height="9.098" transform="translate(0 20.811)" fill="#fff"/>
            <rect id="Rectángulo_61495" data-name="Rectángulo 61495" width="5.159" height="9.098" transform="translate(14.777 20.811)" fill="#fff"/>
            <rect id="Rectángulo_61496" data-name="Rectángulo 61496" width="5.159" height="9.098" transform="translate(29.555 20.811)" fill="#fff"/>
            <rect id="Rectángulo_61497" data-name="Rectángulo 61497" width="5.159" height="9.098" transform="translate(44.332 20.811)" fill="#fff"/>
            <rect id="Rectángulo_61498" data-name="Rectángulo 61498" width="5.159" height="9.098" transform="translate(0 41.621)" fill="#fff"/>
            <rect id="Rectángulo_61499" data-name="Rectángulo 61499" width="5.159" height="9.098" transform="translate(14.777 41.621)" fill="#fff"/>
            <rect id="Rectángulo_61500" data-name="Rectángulo 61500" width="5.159" height="9.098" transform="translate(29.555 41.621)" fill="#fff"/>
            <rect id="Rectángulo_61501" data-name="Rectángulo 61501" width="5.159" height="9.098" transform="translate(44.332 41.621)" fill="#fff"/>
            <rect id="Rectángulo_61502" data-name="Rectángulo 61502" width="5.159" height="9.098" transform="translate(0 62.432)" fill="#fff"/>
            <rect id="Rectángulo_61503" data-name="Rectángulo 61503" width="5.159" height="9.098" transform="translate(14.777 62.432)" fill="#fff"/>
            <rect id="Rectángulo_61504" data-name="Rectángulo 61504" width="5.159" height="9.098" transform="translate(29.555 62.432)" fill="#fff"/>
            <rect id="Rectángulo_61505" data-name="Rectángulo 61505" width="5.159" height="9.098" transform="translate(44.332 62.432)" fill="#fff"/>
            <rect id="Rectángulo_61506" data-name="Rectángulo 61506" width="5.159" height="9.098" transform="translate(0 83.243)" fill="#fff"/>
            <rect id="Rectángulo_61507" data-name="Rectángulo 61507" width="5.159" height="9.098" transform="translate(14.777 83.243)" fill="#fff"/>
            <rect id="Rectángulo_61508" data-name="Rectángulo 61508" width="5.159" height="9.098" transform="translate(29.555 83.243)" fill="#fff"/>
            <rect id="Rectángulo_61509" data-name="Rectángulo 61509" width="5.159" height="9.098" transform="translate(44.332 83.243)" fill="#fff"/>
          </g>
        </g>
        <g id="Grupo_149859" data-name="Grupo 149859" transform="translate(113.692 50.284)">
          <rect id="Rectángulo_61510" data-name="Rectángulo 61510" width="64.975" height="114.581" fill="#decebc"/>
          <g id="Grupo_149858" data-name="Grupo 149858" transform="translate(7.517 10.452)">
            <rect id="Rectángulo_61511" data-name="Rectángulo 61511" width="5.159" height="9.098" fill="#fff"/>
            <rect id="Rectángulo_61512" data-name="Rectángulo 61512" width="5.159" height="9.098" transform="translate(14.777)" fill="#fff"/>
            <rect id="Rectángulo_61513" data-name="Rectángulo 61513" width="5.159" height="9.098" transform="translate(29.555)" fill="#fff"/>
            <rect id="Rectángulo_61514" data-name="Rectángulo 61514" width="5.159" height="9.098" transform="translate(44.332)" fill="#fff"/>
            <rect id="Rectángulo_61515" data-name="Rectángulo 61515" width="5.159" height="9.098" transform="translate(0 20.811)" fill="#fff"/>
            <rect id="Rectángulo_61516" data-name="Rectángulo 61516" width="5.159" height="9.098" transform="translate(14.777 20.811)" fill="#fff"/>
            <rect id="Rectángulo_61517" data-name="Rectángulo 61517" width="5.159" height="9.098" transform="translate(29.555 20.811)" fill="#fff"/>
            <rect id="Rectángulo_61518" data-name="Rectángulo 61518" width="5.159" height="9.098" transform="translate(44.332 20.811)" fill="#fff"/>
            <rect id="Rectángulo_61519" data-name="Rectángulo 61519" width="5.159" height="9.098" transform="translate(0 41.621)" fill="#fff"/>
            <rect id="Rectángulo_61520" data-name="Rectángulo 61520" width="5.159" height="9.098" transform="translate(14.777 41.621)" fill="#fff"/>
            <rect id="Rectángulo_61521" data-name="Rectángulo 61521" width="5.159" height="9.098" transform="translate(29.555 41.621)" fill="#fff"/>
            <rect id="Rectángulo_61522" data-name="Rectángulo 61522" width="5.159" height="9.098" transform="translate(44.332 41.621)" fill="#fff"/>
            <rect id="Rectángulo_61523" data-name="Rectángulo 61523" width="5.159" height="9.098" transform="translate(0 83.243)" fill="#fff"/>
            <rect id="Rectángulo_61524" data-name="Rectángulo 61524" width="5.159" height="9.098" transform="translate(14.777 83.243)" fill="#fff"/>
            <rect id="Rectángulo_61525" data-name="Rectángulo 61525" width="5.159" height="9.098" transform="translate(29.555 83.243)" fill="#fff"/>
            <rect id="Rectángulo_61526" data-name="Rectángulo 61526" width="5.159" height="9.098" transform="translate(44.332 83.243)" fill="#fff"/>
          </g>
        </g>
      </g>
      <g id="Grupo_149870" data-name="Grupo 149870" transform="translate(395.909 367.231)">
        <g id="Grupo_149861" data-name="Grupo 149861" transform="translate(97.996 222.798)">
          <path id="Trazado_194625" data-name="Trazado 194625" d="M1063.525,1366.638a708.005,708.005,0,0,1-19.246-163.646l-.117-.99H933.152c0,.066,0,.133,0,.2A708.038,708.038,0,0,1,913.9,1366.638Z" transform="translate(-913.904 -1197.082)" fill="#a0a0a0"/>
          <rect id="Rectángulo_61527" data-name="Rectángulo 61527" width="115.328" height="4.92" transform="translate(17.146)" fill="#a0a0a0"/>
        </g>
        <g id="Grupo_149862" data-name="Grupo 149862" transform="translate(176.185 183.204)">
          <path id="Trazado_194626" data-name="Trazado 194626" d="M1385.089,1264.153a873.32,873.32,0,0,1-23.741-201.86l-.145-1.221h-136.93c0,.082,0,.163,0,.245a873.387,873.387,0,0,1-23.744,202.836Z" transform="translate(-1200.53 -1055.003)" fill="#ccd6e7"/>
          <path id="Trazado_194627" data-name="Trazado 194627" d="M1694.012,1264.152H1736.8a873.33,873.33,0,0,1-23.74-201.859l-.145-1.222h-26.807A1007.993,1007.993,0,0,0,1694.012,1264.152Z" transform="translate(-1552.239 -1055.002)" fill="#a0a0a0"/>
          <rect id="Rectángulo_61528" data-name="Rectángulo 61528" width="142.259" height="6.069" transform="translate(21.15)" fill="#a0a0a0"/>
        </g>
        <g id="Grupo_149863" data-name="Grupo 149863" transform="translate(348.19 86.852)">
          <path id="Trazado_194628" data-name="Trazado 194628" d="M1874.083,997.994h-33.191l6.015-302.554h21.162Z" transform="translate(-1838.211 -692.76)" fill="#fff"/>
          <path id="Trazado_194629" data-name="Trazado 194629" d="M1908.044,997.993h14.874L1916.9,695.439h-8.859Z" transform="translate(-1887.045 -692.759)" fill="#f4f0ea"/>
          <path id="Trazado_194630" data-name="Trazado 194630" d="M1883.5,713.657l-.362-18.218h-21.162l-.362,18.218Z" transform="translate(-1853.28 -692.759)" fill="#797776"/>
          <path id="Trazado_194631" data-name="Trazado 194631" d="M1858.982,845.946H1882.3l-.362-18.218h-22.6Z" transform="translate(-1851.367 -788.961)" fill="#797776"/>
          <path id="Trazado_194632" data-name="Trazado 194632" d="M1856.352,978.235h24.756l-.362-18.217h-24.032Z" transform="translate(-1849.454 -885.163)" fill="#797776"/>
          <path id="Trazado_194633" data-name="Trazado 194633" d="M1853.722,1110.524h26.191l-.362-18.218h-25.467Z" transform="translate(-1847.542 -981.365)" fill="#797776"/>
          <path id="Trazado_194634" data-name="Trazado 194634" d="M1864.53,988.714h-33.191a.273.273,0,0,1-.272-.278l6.015-302.554a.272.272,0,0,1,.272-.267h21.163a.272.272,0,0,1,.272.267l6.015,302.554a.274.274,0,0,1-.273.278Zm-32.913-.546h32.635l-6-302.008h-20.627Z" transform="translate(-1831.066 -685.615)" fill="#78534e"/>
        </g>
        <g id="Grupo_149864" data-name="Grupo 149864" transform="translate(401.719 86.852)">
          <path id="Trazado_194635" data-name="Trazado 194635" d="M2072.516,997.994h-33.191l6.015-302.554H2066.5Z" transform="translate(-2036.043 -692.76)" fill="#fff"/>
          <path id="Trazado_194636" data-name="Trazado 194636" d="M2106.478,997.993h14.873l-6.014-302.554h-8.859Z" transform="translate(-2084.877 -692.759)" fill="#f4f0ea"/>
          <path id="Trazado_194637" data-name="Trazado 194637" d="M2081.933,713.657l-.362-18.218h-21.163l-.361,18.218Z" transform="translate(-2051.112 -692.759)" fill="#797776"/>
          <path id="Trazado_194638" data-name="Trazado 194638" d="M2057.416,845.946h23.322l-.362-18.218h-22.6Z" transform="translate(-2049.199 -788.961)" fill="#797776"/>
          <path id="Trazado_194639" data-name="Trazado 194639" d="M2054.786,978.235h24.755l-.361-18.217h-24.033Z" transform="translate(-2047.287 -885.163)" fill="#797776"/>
          <path id="Trazado_194640" data-name="Trazado 194640" d="M2052.156,1110.524h26.191l-.362-18.218h-25.467Z" transform="translate(-2045.374 -981.365)" fill="#797776"/>
          <path id="Trazado_194641" data-name="Trazado 194641" d="M2060.758,988.714h-33.191a.273.273,0,0,1-.273-.278l6.014-302.554a.273.273,0,0,1,.273-.267h21.162a.273.273,0,0,1,.273.267l6.015,302.554a.273.273,0,0,1-.273.278Zm-32.913-.546h32.635l-6-302.008h-20.628Z" transform="translate(-2027.294 -685.615)" fill="#78534e"/>
        </g>
        <g id="Grupo_149865" data-name="Grupo 149865" transform="translate(329.788 332.439)">
          <rect id="Rectángulo_61529" data-name="Rectángulo 61529" width="76.95" height="60.071" transform="translate(32.413)" fill="#a0a0a0"/>
          <rect id="Rectángulo_61530" data-name="Rectángulo 61530" width="76.95" height="60.071" fill="#ccd6e7"/>
        </g>
        <g id="Grupo_149866" data-name="Grupo 149866" transform="translate(39.654 263.613)">
          <path id="Trazado_194642" data-name="Trazado 194642" d="M814.166,1472.936A540.112,540.112,0,0,1,799.484,1348.1l-.09-.756h-84.68c0,.05,0,.1,0,.151a540.129,540.129,0,0,1-14.684,125.438Z" transform="translate(-700.031 -1343.593)" fill="#ccd6e7"/>
          <rect id="Rectángulo_61531" data-name="Rectángulo 61531" width="87.976" height="3.753" transform="translate(13.08)" fill="#ccd6e7"/>
        </g>
        <path id="Trazado_194643" data-name="Trazado 194643" d="M570.024,605.57a20.389,20.389,0,0,1,7.427-.293,24,24,0,0,1,17.738-15.857,24.44,24.44,0,0,1,17.247,2.387,26.585,26.585,0,0,1,16.071-10.714,26.222,26.222,0,0,1,23.83,6.3,27.083,27.083,0,0,1,41.648-6.8,38.019,38.019,0,0,1,10.285-3.942c16.742-3.772,33.229,4.109,40.13,18.086,15.361-.975,29.4,8.652,32.7,23.322,3.687,16.365-7.379,32.8-24.715,36.7q-.846.191-1.69.335c-3.642,18.847-10.258,39-16.273,55.836l-.616-.034c-.536-17.929-5.975-40.267-14.079-44.71a26.711,26.711,0,0,1-10.781,5.139c-13.611,3.066-26.952-4.694-29.8-17.332a.1.1,0,0,1,0-.012,23.025,23.025,0,0,1-11.2,6.206c-9.385,2.114-18.9-1.973-25.174-9.777a29.425,29.425,0,0,1-12.894,6.5c-12.019,2.708-23.872-2.251-29.93-11.526a15.95,15.95,0,0,1-9.319,5.987c-7.863,1.772-15.6-2.444-17.949-9.526-8.4-.367-15.742-5.944-17.581-14.107C552.869,617.854,559.553,607.929,570.024,605.57Z" transform="translate(-554.668 -517.329)" fill="#dfcfbd"/>
        <g id="Grupo_149867" data-name="Grupo 149867" transform="translate(286.665 8.371)">
          <ellipse id="Elipse_5691" data-name="Elipse 5691" cx="16.709" cy="13.84" rx="16.709" ry="13.84" transform="translate(50.169 10.516)" fill="#44494d"/>
          <circle id="Elipse_5692" data-name="Elipse 5692" cx="16.877" cy="16.877" r="16.877" transform="translate(37.342 19.292)" fill="#44494d"/>
          <circle id="Elipse_5693" data-name="Elipse 5693" cx="16.877" cy="16.877" r="16.877" transform="translate(12.363 12.879)" fill="#44494d"/>
          <circle id="Elipse_5694" data-name="Elipse 5694" cx="12.658" cy="12.658" r="12.658" transform="translate(0 10.176)" fill="#44494d"/>
          <circle id="Elipse_5695" data-name="Elipse 5695" cx="13.164" cy="13.164" r="13.164" transform="translate(36.078 7.394) rotate(-9.217)" fill="#44494d"/>
          <circle id="Elipse_5696" data-name="Elipse 5696" cx="13.164" cy="13.164" r="13.164" transform="translate(7.665 18.617) rotate(-45)" fill="#44494d"/>
          <path id="Trazado_194644" data-name="Trazado 194644" d="M1860.738,472.353c3.625,7.475,1.181,61.6,1.181,61.6-1.792-21.9-6.467-36.753-11.106-35.016Z" transform="translate(-1783.902 -452.048)" fill="#44494d"/>
        </g>
        <g id="Grupo_149868" data-name="Grupo 149868" transform="translate(335.398 0)">
          <ellipse id="Elipse_5697" data-name="Elipse 5697" cx="16.709" cy="13.84" rx="16.709" ry="13.84" transform="translate(56.033 10.553)" fill="#3b4046"/>
          <circle id="Elipse_5698" data-name="Elipse 5698" cx="16.877" cy="16.877" r="16.877" transform="translate(43.206 19.329)" fill="#3b4046"/>
          <circle id="Elipse_5699" data-name="Elipse 5699" cx="16.877" cy="16.877" r="16.877" transform="translate(18.228 12.916)" fill="#3b4046"/>
          <circle id="Elipse_5700" data-name="Elipse 5700" cx="12.658" cy="12.658" r="12.658" transform="translate(0 11.566)" fill="#3b4046"/>
          <circle id="Elipse_5701" data-name="Elipse 5701" cx="13.164" cy="13.164" r="13.164" transform="translate(36.474 18.617) rotate(-45)" fill="#3b4046"/>
          <circle id="Elipse_5702" data-name="Elipse 5702" cx="13.164" cy="13.164" r="13.164" transform="translate(12.842 25.779) rotate(-67.5)" fill="#3b4046"/>
          <path id="Trazado_194645" data-name="Trazado 194645" d="M2066.84,443.588c3.625,7.475-4.818,61.115-4.818,61.115-1.791-21.9-6.323-34.643-11.12-39.463Z" transform="translate(-1978.141 -422.758)" fill="#3b4046"/>
        </g>
        <g id="Grupo_149869" data-name="Grupo 149869" transform="translate(83.607 36.801)">
          <ellipse id="Elipse_5703" data-name="Elipse 5703" cx="36.087" cy="34.064" rx="36.087" ry="34.064" transform="matrix(0.976, -0.22, 0.22, 0.976, 118, 16.01)" fill="#44494d"/>
          <ellipse id="Elipse_5704" data-name="Elipse 5704" cx="32.178" cy="30.373" rx="32.178" ry="30.373" transform="translate(156.581 34) rotate(-12.696)" fill="#44494d"/>
          <ellipse id="Elipse_5705" data-name="Elipse 5705" cx="25.863" cy="24.412" rx="25.863" ry="24.412" transform="translate(52.211 18.213) rotate(-12.696)" fill="#44494d"/>
          <ellipse id="Elipse_5706" data-name="Elipse 5706" cx="28.268" cy="26.683" rx="28.268" ry="26.683" transform="translate(39.506 42.495) rotate(-12.695)" fill="#44494d"/>
          <ellipse id="Elipse_5707" data-name="Elipse 5707" cx="23.757" cy="22.425" rx="23.757" ry="22.425" transform="translate(20.948 26.077) rotate(-12.696)" fill="#44494d"/>
          <ellipse id="Elipse_5708" data-name="Elipse 5708" cx="19.434" cy="18.344" rx="19.434" ry="18.344" transform="translate(0 41.277) rotate(-12.696)" fill="#44494d"/>
          <ellipse id="Elipse_5709" data-name="Elipse 5709" cx="15.487" cy="14.619" rx="15.487" ry="14.619" transform="translate(18.028 57.687) rotate(-12.696)" fill="#44494d"/>
          <ellipse id="Elipse_5710" data-name="Elipse 5710" cx="25.712" cy="29.557" rx="25.712" ry="29.557" transform="translate(78.804 39.601) rotate(-12.696)" fill="#44494d"/>
          <ellipse id="Elipse_5711" data-name="Elipse 5711" cx="26.163" cy="24.696" rx="26.163" ry="24.696" transform="translate(93.393 11.5) rotate(-12.696)" fill="#44494d"/>
          <ellipse id="Elipse_5712" data-name="Elipse 5712" cx="25.261" cy="23.457" rx="25.261" ry="23.457" transform="matrix(0.976, -0.22, 0.22, 0.976, 122.93, 62.541)" fill="#44494d"/>
          <path id="Trazado_194646" data-name="Trazado 194646" d="M1500.192,678.426c2.311,23.466-5.539,63.669-13.518,93.564h0c-.632-21.134-13.449-47.724-24.041-44.58Z" transform="translate(-1298.556 -630.336)" fill="#44494d"/>
        </g>
      </g>
      <g id="Grupo_149874" data-name="Grupo 149874" transform="translate(669.594 719.533)">
        <rect id="Rectángulo_61532" data-name="Rectángulo 61532" width="7.261" height="2.457" transform="translate(13.676 51.068)" fill="#3b4046"/>
        <path id="Trazado_194647" data-name="Trazado 194647" d="M1756.844,1745.885H1632.165a6.751,6.751,0,0,1-6.751-6.751v-4.762h0a10.877,10.877,0,0,0,2.7-7.176v-3.551a4.24,4.24,0,0,1,4.24-4.24h6.33a69.383,69.383,0,0,1,47.391-18.875l7.72-.02a30.661,30.661,0,0,1,19.432,6.879l12.833,10.445a9.059,9.059,0,0,0,4.391,1.935l17.958,2.887a18.159,18.159,0,0,1,15.128,15.617h0A6.752,6.752,0,0,1,1756.844,1745.885Z" transform="translate(-1607.01 -1689.106)" fill="#797776"/>
        <g id="Grupo_149871" data-name="Grupo 149871" transform="translate(119.055 43.329)">
          <circle id="Elipse_5713" data-name="Elipse 5713" cx="11.092" cy="11.092" r="11.092" fill="#3b4046"/>
          <circle id="Elipse_5714" data-name="Elipse 5714" cx="7.843" cy="7.843" r="7.843" transform="translate(3.249 3.249)" fill="#cab9a2"/>
        </g>
        <g id="Grupo_149872" data-name="Grupo 149872" transform="translate(35.251 43.329)">
          <circle id="Elipse_5715" data-name="Elipse 5715" cx="11.092" cy="11.092" r="11.092" fill="#3b4046"/>
          <circle id="Elipse_5716" data-name="Elipse 5716" cx="7.843" cy="7.843" r="7.843" transform="translate(3.249 3.249)" fill="#cab9a2"/>
        </g>
        <path id="Trazado_194648" data-name="Trazado 194648" d="M1715.886,1728.09h71.144l-19-14.373a8.471,8.471,0,0,0-4.4-1.687h0a83.307,83.307,0,0,0-50.446,11.875Z" transform="translate(-1670.837 -1697.268)" fill="#44494d"/>
        <path id="Trazado_194649" data-name="Trazado 194649" d="M2082.932,1798.625c-.5,1.333-4.242,1.159-8.352-.388s-7.036-3.884-6.534-5.217,4.242-1.159,8.352.388S2083.434,1797.291,2082.932,1798.625Z" transform="translate(-1928.855 -1755.728)" fill="#fff"/>
        <path id="Trazado_194650" data-name="Trazado 194650" d="M1640.349,1792.454h-5.778l.243-5.049h7.772Z" transform="translate(-1613.669 -1752.297)" fill="#fff"/>
        <path id="Trazado_194651" data-name="Trazado 194651" d="M1800.944,1756.522h-50.995a.273.273,0,0,1-.222-.114l-15.589-21.75a.273.273,0,0,1-.022-.281l3.171-6.34a.273.273,0,1,1,.488.243l-3.1,6.194,15.412,21.5h50.667l4.275-11.081a13.607,13.607,0,0,0-5.675-16.572l-16.737-9.811a.273.273,0,1,1,.276-.471l16.739,9.813a14.155,14.155,0,0,1,5.905,17.238l-4.342,11.255A.272.272,0,0,1,1800.944,1756.522Z" transform="translate(-1686.038 -1701.828)" fill="#dfcfbd"/>
        <path id="Trazado_194652" data-name="Trazado 194652" d="M1856.926,1792.435a.272.272,0,0,1-.27-.235l-3.431-24.572a.273.273,0,1,1,.54-.076l3.43,24.572a.272.272,0,0,1-.232.308Z" transform="translate(-1772.675 -1737.689)" fill="#dfcfbd"/>
        <ellipse id="Elipse_5717" data-name="Elipse 5717" cx="4.932" cy="0.712" rx="4.932" ry="0.712" transform="translate(53.085 34.011)" fill="#f1ce93"/>
        <ellipse id="Elipse_5718" data-name="Elipse 5718" cx="4.932" cy="0.712" rx="4.932" ry="0.712" transform="translate(85.525 34.011)" fill="#f1ce93"/>
        <path id="Trazado_194653" data-name="Trazado 194653" d="M1637.3,1828.777h-6.7a8.281,8.281,0,0,1,6.694-4.986h0a2.493,2.493,0,0,1,2.493,2.494h0A2.493,2.493,0,0,1,1637.3,1828.777Z" transform="translate(-1610.786 -1778.757)" fill="#f1ce93"/>
        <path id="Trazado_194654" data-name="Trazado 194654" d="M2110.2,1837.79h-2.546a1.15,1.15,0,0,1-1.143-1.276l.285-2.56a1.15,1.15,0,0,1,1.143-1.022h2.545a1.149,1.149,0,0,1,1.143,1.276l-.284,2.56A1.15,1.15,0,0,1,2110.2,1837.79Z" transform="translate(-1956.863 -1785.404)" fill="#f1ce93"/>
        <g id="Grupo_149873" data-name="Grupo 149873" transform="translate(0 0)">
          <path id="Trazado_194655" data-name="Trazado 194655" d="M1567.367,1710.081a.279.279,0,0,1-.1-.021,14.576,14.576,0,0,1-6.925-5.517c-3.871-6.047-2.939-14.93,2.036-19.4a15.19,15.19,0,0,1,8.679-3.477,12.79,12.79,0,0,1,4.126.312,11.918,11.918,0,0,0,3.991.29c3.885-.37,6.836-1.687,8.534-3.809,3.173-3.966,2.7-12.02-2.667-16.46-4.251-3.517-10.006-3.267-13.824-1.458a.273.273,0,0,1-.233-.494c3.973-1.882,9.968-2.139,14.4,1.532,5.6,4.632,6.074,13.062,2.746,17.221-1.792,2.24-4.873,3.626-8.908,4.011a12.508,12.508,0,0,1-4.152-.3,12.189,12.189,0,0,0-3.97-.3,14.646,14.646,0,0,0-8.362,3.339c-4.787,4.3-5.675,12.862-1.94,18.7a14.043,14.043,0,0,0,6.674,5.307.273.273,0,0,1-.1.525Z" transform="translate(-1557.947 -1658.706)" fill="#3b4046"/>
          <path id="Trazado_194656" data-name="Trazado 194656" d="M1578.495,1776.9a.277.277,0,0,1-.141-.04,11.627,11.627,0,0,1,6.161-21.858.273.273,0,0,1,.267.279.284.284,0,0,1-.28.266,11.082,11.082,0,0,0-5.868,20.845.273.273,0,0,1-.14.507Z" transform="translate(-1568.372 -1728.727)" fill="#3b4046"/>
          <path id="Trazado_194657" data-name="Trazado 194657" d="M1589.088,1787.3a.259.259,0,0,1-.089-.016,10.09,10.09,0,0,1-5.867-5.267,8.366,8.366,0,0,1-.312-6.518,7.877,7.877,0,0,1,2.454-3.245.273.273,0,0,1,.339.428,7.329,7.329,0,0,0-2.285,3.018,7.821,7.821,0,0,0,.3,6.09,9.545,9.545,0,0,0,5.549,4.979.273.273,0,0,1-.089.531Z" transform="translate(-1575.657 -1741.234)" fill="#3b4046"/>
        </g>
      </g>
      <g id="Grupo_149878" data-name="Grupo 149878" transform="translate(345.274 519.768)">
        <path id="Trazado_194658" data-name="Trazado 194658" d="M607.475,1260.93a61.377,61.377,0,0,1-9.786-.892c-8.89-1.4-22.14-5.97-34.783-19.82-30.251-33.137-18.641-100.6-10.165-149.86q.308-1.791.662-3.8l.033-.19c3.483-19.84,9.312-53.047,5.466-95.053-1.064-11.615-2.423-18.9-6.9-26.5-9.156-15.523-28.851-27.952-50.176-31.664-17.39-3.027-32.845.188-43.514,9.052-5.306,4.408-14.552,14.906-16.873,35.693a2.822,2.822,0,0,1-5.609-.626c2.541-22.754,12.917-34.457,18.876-39.407,11.964-9.939,29.04-13.587,48.089-10.271,22.885,3.983,44.108,17.469,54.069,34.357,5,8.47,6.547,16.675,7.662,28.851,3.914,42.747-2,76.42-5.526,96.538q-.37,2.108-.693,3.973c-4.016,23.336-9.014,52.38-9.287,79.071-.315,30.774,5.592,52.372,18.058,66.027,11.54,12.641,23.495,16.794,31.492,18.051,5.224.821,17.456,2.744,25.7-4.761,8.522-7.757,7.511-20.792,7.464-21.343-.889-10.386-7.621-16.218-15.416-22.97-7.287-6.313-15.544-13.466-19.758-25.5-4.065-11.6-3.325-25.11,2.2-40.141a2.822,2.822,0,0,1,5.3,1.947c-5.061,13.77-5.791,25.993-2.17,36.329,3.718,10.615,11.043,16.96,18.127,23.1,8.362,7.244,16.26,14.085,17.344,26.756.142,1.666,1.088,16.552-9.287,26C622.923,1258.556,616,1260.929,607.475,1260.93ZM489.416,931.5a72.97,72.97,0,0,1,12.5,1.118c21.475,3.738,41.318,16.269,50.552,31.924,4.533,7.686,5.906,15.03,6.977,26.726,3.853,42.078-1.984,75.33-5.472,95.2l-.034.19q-.352,2-.661,3.8c-8.458,49.148-20.041,116.459,10.03,149.4,12.536,13.733,25.662,18.266,34.465,19.65a60.925,60.925,0,0,0,9.7.885c8.381,0,15.185-2.326,20.223-6.912,10.182-9.268,9.25-23.908,9.111-25.547-1.065-12.45-8.882-19.221-17.158-26.39-7.137-6.183-14.518-12.576-18.284-23.328-3.664-10.458-2.932-22.805,2.173-36.7a2.276,2.276,0,0,0-4.273-1.57c-5.48,14.909-6.219,28.291-2.2,39.773,4.166,11.894,12.365,19,19.6,25.263,7.886,6.832,14.7,12.731,15.6,23.338.048.562,1.079,13.856-7.64,21.792-8.439,7.681-20.852,5.73-26.153,4.9-8.084-1.271-20.164-5.464-31.81-18.221-12.564-13.763-18.517-35.483-18.2-66.4.274-26.735,5.276-55.8,9.295-79.157q.322-1.868.693-3.971c3.527-20.1,9.429-53.724,5.521-96.4-1.107-12.1-2.645-20.242-7.589-28.624-9.883-16.756-30.959-30.139-53.693-34.1-18.886-3.288-35.808.319-47.646,10.154-5.9,4.9-16.162,16.484-18.682,39.048a2.276,2.276,0,0,0,4.525.505c2.342-20.977,11.7-31.591,17.067-36.052C466.112,935.016,477.011,931.5,489.416,931.5Z" transform="translate(-417.598 -926.402)" fill="#3b4046"/>
        <rect id="Rectángulo_61533" data-name="Rectángulo 61533" width="112.885" height="255.63" transform="translate(6.832 81.045)" fill="#797776"/>
        <g id="Grupo_149875" data-name="Grupo 149875" transform="translate(17.48 234.443)">
          <path id="Trazado_194659" data-name="Trazado 194659" d="M457.6,1800.21H435.53a.273.273,0,0,1-.273-.273V1786.1a.273.273,0,0,1,.273-.273H457.6a.273.273,0,0,1,.273.273v13.837A.273.273,0,0,1,457.6,1800.21Zm-21.8-.546h21.523v-13.292H435.8Z" transform="translate(-434.676 -1785.827)" fill="#78534e"/>
          <path id="Trazado_194660" data-name="Trazado 194660" d="M457.6,1884.309H435.53a.273.273,0,0,1-.273-.273V1870.2a.273.273,0,0,1,.273-.273H457.6a.273.273,0,0,1,.273.273v13.837A.273.273,0,0,1,457.6,1884.309Zm-21.8-.546h21.523v-13.292H435.8Z" transform="translate(-434.676 -1846.985)" fill="#78534e"/>
          <path id="Trazado_194661" data-name="Trazado 194661" d="M455.47,1967.074H433.4a.273.273,0,0,1-.273-.273v-13.837a.273.273,0,0,1,.273-.273H455.47a.273.273,0,0,1,.273.273V1966.8A.273.273,0,0,1,455.47,1967.074Zm-21.8-.545H455.2v-13.292H433.674Z" transform="translate(-433.128 -1907.172)" fill="#78534e"/>
          <path id="Trazado_194662" data-name="Trazado 194662" d="M701.439,1801.988H679.37a.272.272,0,0,1-.273-.272v-13.838a.272.272,0,0,1,.273-.272h22.069a.273.273,0,0,1,.273.272v13.838A.272.272,0,0,1,701.439,1801.988Zm-21.8-.545h21.523v-13.292H679.643Z" transform="translate(-611.999 -1787.12)" fill="#78534e"/>
          <path id="Trazado_194663" data-name="Trazado 194663" d="M701.439,1886.088H679.37a.273.273,0,0,1-.273-.273v-13.837a.272.272,0,0,1,.273-.273h22.069a.272.272,0,0,1,.273.273v13.837A.273.273,0,0,1,701.439,1886.088Zm-21.8-.545h21.523V1872.25H679.643Z" transform="translate(-611.999 -1848.278)" fill="#78534e"/>
          <path id="Trazado_194664" data-name="Trazado 194664" d="M699.31,1968.852H677.241a.273.273,0,0,1-.273-.273v-13.837a.273.273,0,0,1,.273-.273H699.31a.273.273,0,0,1,.273.273v13.837A.273.273,0,0,1,699.31,1968.852Zm-21.8-.545h21.523v-13.292H677.514Z" transform="translate(-610.451 -1908.465)" fill="#78534e"/>
          <path id="Trazado_194665" data-name="Trazado 194665" d="M579.624,1800.869h-22.07a.273.273,0,0,1-.273-.273v-13.837a.273.273,0,0,1,.273-.273h22.07a.273.273,0,0,1,.273.273V1800.6A.273.273,0,0,1,579.624,1800.869Zm-21.8-.545h21.524v-13.292H557.828Z" transform="translate(-523.414 -1786.306)" fill="#78534e"/>
          <path id="Trazado_194666" data-name="Trazado 194666" d="M579.624,1884.968h-22.07a.273.273,0,0,1-.273-.273v-13.837a.273.273,0,0,1,.273-.272h22.07a.273.273,0,0,1,.273.272V1884.7A.273.273,0,0,1,579.624,1884.968Zm-21.8-.546h21.524V1871.13H557.828Z" transform="translate(-523.414 -1847.464)" fill="#78534e"/>
          <path id="Trazado_194667" data-name="Trazado 194667" d="M577.5,1967.733H555.426a.273.273,0,0,1-.273-.272v-13.838a.272.272,0,0,1,.273-.272H577.5a.272.272,0,0,1,.273.272v13.838A.273.273,0,0,1,577.5,1967.733Zm-21.8-.545h21.524V1953.9H555.7Z" transform="translate(-521.866 -1907.652)" fill="#78534e"/>
        </g>
        <path id="Trazado_194668" data-name="Trazado 194668" d="M521.417,1387.875H430.745a.273.273,0,0,1-.273-.273V1244.128a.272.272,0,0,1,.273-.272h90.672a.272.272,0,0,1,.273.272V1387.6A.273.273,0,0,1,521.417,1387.875Zm-90.4-.546h90.126V1244.4H431.018Z" transform="translate(-413.717 -1157.257)" fill="#eee5db"/>
        <path id="Trazado_194669" data-name="Trazado 194669" d="M719.449,2089.45a6.645,6.645,0,1,1,6.645-6.645A6.653,6.653,0,0,1,719.449,2089.45Zm0-12.745a6.1,6.1,0,1,0,6.1,6.1A6.106,6.106,0,0,0,719.449,2076.706Z" transform="translate(-619.031 -1762.517)" fill="#78534e"/>
        <path id="Trazado_194670" data-name="Trazado 194670" d="M488.763,1460.472H369.323a.273.273,0,0,1-.273-.273V1198.743a.273.273,0,0,1,.273-.273h119.44a.273.273,0,0,1,.273.273V1460.2A.273.273,0,0,1,488.763,1460.472Zm-119.167-.545H488.49V1199.015H369.6Z" transform="translate(-369.05 -1124.252)" fill="#3b4046"/>
        <rect id="Rectángulo_61534" data-name="Rectángulo 61534" width="10.56" height="107.787" transform="translate(175.795 4.453)" fill="#44494d"/>
        <rect id="Rectángulo_61535" data-name="Rectángulo 61535" width="11.653" height="45.154" transform="translate(174.703 204.126)" fill="#44494d"/>
        <path id="Trazado_194671" data-name="Trazado 194671" d="M1028.792,1019.049a.273.273,0,0,1-.272-.273V986.9a.273.273,0,0,1,.546,0v31.877A.273.273,0,0,1,1028.792,1019.049Z" transform="translate(-848.622 -970.198)" fill="#fff"/>
        <g id="Grupo_149877" data-name="Grupo 149877" transform="translate(22.125 92.972)">
          <rect id="Rectángulo_61536" data-name="Rectángulo 61536" width="81.569" height="133.005" fill="#eee5db"/>
          <path id="Trazado_194672" data-name="Trazado 194672" d="M536.824,1318.326h0l-71.372-.061a.273.273,0,0,1,0-.546h0l71.372.061a.273.273,0,1,1,0,.545Z" transform="translate(-461.081 -1303.944)" fill="#fff"/>
          <path id="Trazado_194673" data-name="Trazado 194673" d="M540.222,1735.479h0l-72.1-.729a.273.273,0,0,1-.27-.275.265.265,0,0,1,.275-.27l72.1.728a.273.273,0,0,1,0,.546Z" transform="translate(-463.022 -1606.816)" fill="#fff"/>
          <rect id="Rectángulo_61537" data-name="Rectángulo 61537" width="15.051" height="5.098" transform="translate(61.665 3.124)" fill="#f4f0ea"/>
          <g id="Grupo_149876" data-name="Grupo 149876" transform="translate(5.463 29.592)">
            <rect id="Rectángulo_61538" data-name="Rectángulo 61538" width="71.008" height="8.375" fill="#87845e"/>
            <rect id="Rectángulo_61539" data-name="Rectángulo 61539" width="17.479" height="8.375" transform="translate(16.266)" fill="#e0ba76"/>
            <rect id="Rectángulo_61540" data-name="Rectángulo 61540" width="18.571" height="8.375" transform="translate(33.745)" fill="#c07257"/>
            <rect id="Rectángulo_61541" data-name="Rectángulo 61541" width="19.178" height="8.375" transform="translate(51.83)" fill="#78534e"/>
          </g>
          <rect id="Rectángulo_61542" data-name="Rectángulo 61542" width="20.635" height="6.312" transform="translate(6.313 45.129)" fill="#decebc"/>
          <rect id="Rectángulo_61543" data-name="Rectángulo 61543" width="20.635" height="6.312" transform="translate(6.282 57.176)" fill="#decebc"/>
          <rect id="Rectángulo_61544" data-name="Rectángulo 61544" width="20.635" height="6.312" transform="translate(6.313 69.163)" fill="#decebc"/>
          <rect id="Rectángulo_61545" data-name="Rectángulo 61545" width="20.635" height="6.312" transform="translate(6.282 81.392)" fill="#decebc"/>
          <rect id="Rectángulo_61546" data-name="Rectángulo 61546" width="12.978" height="5.098" transform="translate(5.099 118.984)" fill="#decebc"/>
          <rect id="Rectángulo_61547" data-name="Rectángulo 61547" width="12.978" height="5.098" transform="translate(36.088 118.984)" fill="#decebc"/>
          <rect id="Rectángulo_61548" data-name="Rectángulo 61548" width="12.978" height="5.098" transform="translate(64.403 118.984)" fill="#decebc"/>
        </g>
        <rect id="Rectángulo_61549" data-name="Rectángulo 61549" width="11.653" height="21.849" transform="translate(14.601 62.352)" fill="#797776"/>
        <rect id="Rectángulo_61550" data-name="Rectángulo 61550" width="8.375" height="11.653" transform="translate(16.664 51.913)" fill="#44494d"/>
        <rect id="Rectángulo_61551" data-name="Rectángulo 61551" width="23.305" height="161.316" transform="translate(169.486 70.485)" fill="#a0a0a0"/>
        <rect id="Rectángulo_61552" data-name="Rectángulo 61552" width="10.56" height="25.854" transform="translate(176.159 84.322)" fill="#eee5db"/>
      </g>
      <g id="Grupo_149894" data-name="Grupo 149894" transform="translate(539.368 579.491)">
        <g id="Grupo_149882" data-name="Grupo 149882" transform="translate(0 94.444)">
          <g id="Grupo_149879" data-name="Grupo 149879" transform="translate(0 130.37)">
            <path id="Trazado_194674" data-name="Trazado 194674" d="M1236.773,1969.47l-5.932,25.006-19.084-.007,4.618-25.006Z" transform="translate(-1175.968 -1969.463)" fill="#78534e"/>
            <path id="Trazado_194675" data-name="Trazado 194675" d="M1135.437,2058.052l-2.11,28.265-52.765-.019c7.144-10.941,18.761-23.574,35.852-28.253Z" transform="translate(-1080.562 -2033.881)" fill="#cab9a2"/>
          </g>
          <g id="Grupo_149880" data-name="Grupo 149880" transform="translate(82.792 131.837)">
            <path id="Trazado_194676" data-name="Trazado 194676" d="M1460.031,1976.358l-5.267,23.763h-16.645v-25.281Z" transform="translate(-1423.373 -1974.841)" fill="#78534e"/>
            <path id="Trazado_194677" data-name="Trazado 194677" d="M1415.668,2063.941c0,1.035,6.689,27.154,6.689,27.154h-38.3l15.065-27.154Z" transform="translate(-1384.061 -2039.635)" fill="#cab9a2"/>
          </g>
          <g id="Grupo_149881" data-name="Grupo 149881" transform="translate(38.238)">
            <path id="Trazado_194678" data-name="Trazado 194678" d="M1283.95,1495.724s5.212,33.695-36.2,134.67h-27.01s21.366-123.291,23.648-138.843Z" transform="translate(-1220.737 -1491.551)" fill="#3b4046"/>
            <path id="Trazado_194679" data-name="Trazado 194679" d="M1430.786,1524.922s10.471,53.119-3.6,129.739h-25.108s-4.5-111.152-10.97-127.842Z" transform="translate(-1344.629 -1515.819)" fill="#3b4046"/>
            <path id="Trazado_194680" data-name="Trazado 194680" d="M1385.558,1634.261a.273.273,0,0,1-.272-.259l-1.168-22.959-8.091-2.779a.273.273,0,0,1,.178-.516l8.264,2.838a.274.274,0,0,1,.184.245l1.179,23.143a.274.274,0,0,1-.259.287Z" transform="translate(-1333.531 -1576.04)" fill="#cbbaa3"/>
          </g>
        </g>
        <g id="Grupo_149888" data-name="Grupo 149888" transform="translate(5.878 13.978)">
          <path id="Trazado_194681" data-name="Trazado 194681" d="M1524.7,1351.954l-1.019.385-18.395-25.327,18.979-16.885,9.3,20.362A15.892,15.892,0,0,1,1524.7,1351.954Z" transform="translate(-1395.301 -1279.151)" fill="#78534e"/>
          <g id="Grupo_149884" data-name="Grupo 149884">
            <g id="Grupo_149883" data-name="Grupo 149883">
              <path id="Trazado_194682" data-name="Trazado 194682" d="M1155.156,1224.058s-9.832,9.018-15.243,3.18c-5.619-6.061-12.179-13.044-15.582-16.328-7.015-6.77-18.36-15.746-19.6-14.148-.706.91.588,2.454,4.32,6.349a2.578,2.578,0,0,0-2.079,1.2,2.106,2.106,0,0,0,.255,2.457,2.954,2.954,0,0,0-2.3.768,2.437,2.437,0,0,0-.135,2.834,3.033,3.033,0,0,0-2.324.959,2.541,2.541,0,0,0,.659,3.248c1.5,1.409,5.708,5.156,7.678,7.422,2.45,2.817,12.058,14.527,18.794,22.761a17.665,17.665,0,0,0,17.493,6.05l7.769-1.721Z" transform="translate(-1102.11 -1196.575)" fill="#78534e"/>
              <path id="Trazado_194683" data-name="Trazado 194683" d="M1143.445,1245.636a.273.273,0,0,1-.244-.15,10.515,10.515,0,0,1-.977-5.159c.008-1.488-.024-2.218-.825-2.527a5.38,5.38,0,0,1-2.4-2.266,1.143,1.143,0,0,1,.055-1.314,1.157,1.157,0,0,1,1.268-.414l6.075,1.83a.273.273,0,0,1-.157.522l-6.075-1.831a.61.61,0,0,0-.676.221.6.6,0,0,0-.03.691,4.941,4.941,0,0,0,2.141,2.051c1.187.459,1.181,1.6,1.174,3.038a10.044,10.044,0,0,0,.919,4.911.273.273,0,0,1-.244.4Z" transform="translate(-1128.801 -1223.612)" fill="#3b4046"/>
              <path id="Trazado_194684" data-name="Trazado 194684" d="M1115.437,1234.97a.273.273,0,0,1-.2-.461,2.892,2.892,0,0,0,.026-3.94l-.857-.93a.273.273,0,0,1,.358-.408l2.033,1.433a1.76,1.76,0,0,0,2.243-.178,1.746,1.746,0,0,0,0-2.506l-2.378-2.3a.273.273,0,0,1,.357-.411l1.262.985a1.359,1.359,0,0,0,1.877-.209,1.34,1.34,0,0,0-.081-1.789l-1.625-1.656a.273.273,0,0,1,.39-.382l1.625,1.656a1.885,1.885,0,0,1,.114,2.516,1.907,1.907,0,0,1-1.7.678l.54.522a2.292,2.292,0,0,1,.006,3.289,2.306,2.306,0,0,1-2.937.234l-.332-.234a3.443,3.443,0,0,1-.518,4.008A.273.273,0,0,1,1115.437,1234.97Z" transform="translate(-1111.001 -1215.161)" fill="#3b4046"/>
            </g>
          </g>
          <path id="Trazado_194685" data-name="Trazado 194685" d="M1326.554,1292.031l18.686-7.861s-4.242-11.637-8.635-18.493c-4.653-7.26-11.095-10.321-19.686-11.247-12.2-1.316-34.216.51-49.929,5.578-19.854,6.4-20.73,6.987-20.73,6.987l10.219,27.074,6.716-1.747-8.2,52.485,80.154,2.948S1328.89,1301.347,1326.554,1292.031Z" transform="translate(-1206.937 -1238.348)" fill="#88855e"/>
          <g id="Grupo_149885" data-name="Grupo 149885" transform="translate(46.247 31.577)">
            <path id="Trazado_194686" data-name="Trazado 194686" d="M1286.466,1370.463h23.51l-12.364-34.614h-23.232a2.726,2.726,0,0,0-2.575,3.639l9.858,27.6A5.1,5.1,0,0,0,1286.466,1370.463Z" transform="translate(-1271.645 -1329.433)" fill="#f5f1eb"/>
            <path id="Trazado_194687" data-name="Trazado 194687" d="M1291.9,1334.231h15.354l-1.409-4.267h-15.646Z" transform="translate(-1285.134 -1325.153)" fill="#87845e"/>
            <path id="Trazado_194688" data-name="Trazado 194688" d="M1306.352,1334.026a.272.272,0,0,1-.262-.2l-1.112-3.878h-15.561a.273.273,0,1,1,0-.546h15.972l1.224,4.273a.273.273,0,0,1-.187.338A.263.263,0,0,1,1306.352,1334.026Z" transform="translate(-1284.371 -1324.746)" fill="#3b4046"/>
            <path id="Trazado_194689" data-name="Trazado 194689" d="M1307.085,1316.95a.272.272,0,0,1-.262-.2l-1.112-3.878H1298.1l1.068,3.727a.273.273,0,0,1-.524.151l-1.268-4.424h8.743l1.224,4.274a.272.272,0,0,1-.187.337A.266.266,0,0,1,1307.085,1316.95Z" transform="translate(-1290.36 -1312.329)" fill="#3b4046"/>
            <path id="Trazado_194690" data-name="Trazado 194690" d="M1312.916,1320.249a1.292,1.292,0,1,1,1.295-1.292A1.295,1.295,0,0,1,1312.916,1320.249Zm0-2.038a.746.746,0,1,0,.749.746A.748.748,0,0,0,1312.916,1318.211Z" transform="translate(-1300.716 -1316.21)" fill="#3b4046"/>
          </g>
          <g id="Grupo_149887" data-name="Grupo 149887" transform="translate(65.893 53.216)">
            <path id="Trazado_194691" data-name="Trazado 194691" d="M1402.469,1393.379c-9.274.618-31.186,1-33.323,1.119-4,.228-25.407,2.005-25.485,5.114-.037,1.485,4.1,1.329,5.5,1.235-1.092.631-5.548,2.6-5.155,4.219.462,1.9,6.132.366,6.236.4-1.174.529-5.936,2.444-5.689,3.669.322,1.594,5.288,1.136,6.768.931-.127.222-4.912,1.384-4.61,3.3.222,1.407,4.778.98,6.754.8,3.55-.2,44.966-.294,52.661-1.292C1409.139,1412.483,1406.543,1396.275,1402.469,1393.379Z" transform="translate(-1343.661 -1392.908)" fill="#78534e"/>
            <path id="Trazado_194692" data-name="Trazado 194692" d="M1485.292,1393.065a.273.273,0,0,1-.009-.545c4.717-.155,17.011-.7,20-.866a.273.273,0,0,1,.03.545c-2.989.166-15.291.712-20.011.866Z" transform="translate(-1446.458 -1391.653)" fill="#3b4046"/>
            <g id="Grupo_149886" data-name="Grupo 149886" transform="translate(5.171 6.041)">
              <path id="Trazado_194693" data-name="Trazado 194693" d="M1362.89,1415.823a.273.273,0,0,1-.107-.523,18.569,18.569,0,0,1,6.939-1.5h.006a.273.273,0,0,1,.006.545A18.055,18.055,0,0,0,1363,1415.8.276.276,0,0,1,1362.89,1415.823Z" transform="translate(-1362.617 -1413.797)" fill="#3b4046"/>
              <path id="Trazado_194694" data-name="Trazado 194694" d="M1366.747,1434.733a.273.273,0,0,1-.08-.534q.256-.078.524-.152a18.753,18.753,0,0,1,4.529-.659h.006a.273.273,0,0,1,.006.546,18.153,18.153,0,0,0-4.4.639c-.173.047-.343.1-.508.147A.28.28,0,0,1,1366.747,1434.733Z" transform="translate(-1365.422 -1428.044)" fill="#3b4046"/>
              <path id="Trazado_194695" data-name="Trazado 194695" d="M1371.362,1453.1a.273.273,0,0,1-.05-.541,18.866,18.866,0,0,1,2.987-.306h.006a.273.273,0,0,1,.006.545,18.273,18.273,0,0,0-2.9.3A.325.325,0,0,1,1371.362,1453.1Z" transform="translate(-1368.778 -1441.765)" fill="#3b4046"/>
            </g>
          </g>
        </g>
        <g id="Grupo_149893" data-name="Grupo 149893" transform="translate(71.877)">
          <path id="Trazado_194696" data-name="Trazado 194696" d="M1378,1193.654c2.369,1.941,9.754-2.359,9.754-2.359l4.625-8.124a7.811,7.811,0,0,0-15.584-1.094S1375.583,1191.677,1378,1193.654Z" transform="translate(-1367.64 -1166.788)" fill="#78534e"/>
          <path id="Trazado_194697" data-name="Trazado 194697" d="M1396.073,1215.771h0a5.41,5.41,0,0,1-5.018-5.778l1.329-18.815,10.794.758-1.329,18.82A5.41,5.41,0,0,1,1396.073,1215.771Z" transform="translate(-1378.223 -1178.672)" fill="#78534e"/>
          <path id="Trazado_194698" data-name="Trazado 194698" d="M1374.285,1209.1s-2.347,2.129-2.273,2.741c.088.729,2.492,1.339,2.492,1.339S1374.226,1209.1,1374.285,1209.1Z" transform="translate(-1364.383 -1191.706)" fill="#78534e"/>
          <g id="Grupo_149891" data-name="Grupo 149891" transform="translate(9.644 16.642)">
            <path id="Trazado_194699" data-name="Trazado 194699" d="M1398.358,1207.289a6.8,6.8,0,0,0-2.828-.9c-.334-.023.109,2.691.437,2.562A6.8,6.8,0,0,0,1398.358,1207.289Z" transform="translate(-1391.045 -1206.375)" fill="#fff"/>
            <g id="Grupo_149890" data-name="Grupo 149890">
              <g id="Grupo_149889" data-name="Grupo 149889" clip-path="url(#clip-path)">
                <path id="Trazado_194700" data-name="Trazado 194700" d="M1383.131,1203.676a2.667,2.667,0,1,0-.266,3.755A2.676,2.676,0,0,0,1383.131,1203.676Z" transform="translate(-1378.707 -1203.736)" fill="#3b4046"/>
              </g>
            </g>
          </g>
          <path id="Trazado_194702" data-name="Trazado 194702" d="M1380.823,1165.236a6.877,6.877,0,0,1-6.016,3.767c-4.2-.074-4.957-.2-4.957-.2l-.819,3.927a2.851,2.851,0,0,0,2.7,3.428l3,.1a6.092,6.092,0,0,0,6.205-5.032l.575-3.291,4.025-1.134s6.648-2.629,4.532-7.305a3.309,3.309,0,0,0-4.057-2.049l-8.22-8.047c-1.843-1.634-3.762-.312-5.624,1.3,0,0-3.9,2.581-2.144,4.138l1.275,1.135-1.321-.362c-1.068-.292-2.475,1.905-2.475,1.905a3.115,3.115,0,0,0,2.55,4.13,8.792,8.792,0,0,0,3.621-.369C1377.718,1160.454,1381.731,1161.771,1380.823,1165.236Z" transform="translate(-1360.995 -1147.744)" fill="#3b4046"/>
          <path id="Trazado_194703" data-name="Trazado 194703" d="M1415.74,1210.481a2.265,2.265,0,1,0,3.093-1.5A2.437,2.437,0,0,0,1415.74,1210.481Z" transform="translate(-1396.003 -1191.5)" fill="#78534e"/>
          <path id="Trazado_194704" data-name="Trazado 194704" d="M1385.668,1225.983a1.379,1.379,0,0,1-.824-.273.273.273,0,0,1,.326-.438.821.821,0,0,0,1.316-.7.273.273,0,1,1,.545-.026,1.363,1.363,0,0,1-1.364,1.432Z" transform="translate(-1373.636 -1202.753)" fill="#78534e"/>
          <path id="Trazado_194705" data-name="Trazado 194705" d="M1419.939,1220.077a.273.273,0,0,1-.155-.5l1.162-.8a.273.273,0,0,1,.309.449l-1.162.8A.27.27,0,0,1,1419.939,1220.077Z" transform="translate(-1399.039 -1198.709)" fill="#3b4046"/>
          <g id="Grupo_149892" data-name="Grupo 149892">
            <path id="Trazado_194706" data-name="Trazado 194706" d="M1364.751,1154.634c.013-.053.024-.107.039-.161a12.363,12.363,0,0,1,23.886,6.388c-.015.054-.033.106-.047.159Z" transform="translate(-1359.104 -1145.336)" fill="#c07257"/>
            <path id="Trazado_194707" data-name="Trazado 194707" d="M1397.886,1160.3a.273.273,0,0,1-.254-.173,12.11,12.11,0,0,0-18.427-5.314.273.273,0,1,1-.322-.44,12.656,12.656,0,0,1,19.257,5.554.273.273,0,0,1-.154.354A.263.263,0,0,1,1397.886,1160.3Z" transform="translate(-1369.3 -1150.121)" fill="#e0ba76"/>
            <path id="Trazado_194708" data-name="Trazado 194708" d="M1396.522,1169.084a.272.272,0,0,1-.246-.155,12.518,12.518,0,0,0-17.26-4.926.273.273,0,1,1-.289-.463,13.062,13.062,0,0,1,18.04,5.152.273.273,0,0,1-.246.391Z" transform="translate(-1369.174 -1157.29)" fill="#e0ba76"/>
            <path id="Trazado_194709" data-name="Trazado 194709" d="M1345.07,1178.111l29.546,7.9a1.377,1.377,0,0,0,1.687-.97h0a1.371,1.371,0,0,0-.973-1.681l-29.545-7.9a1.377,1.377,0,0,0-1.686.97h0A1.373,1.373,0,0,0,1345.07,1178.111Z" transform="translate(-1344.051 -1167.208)" fill="#c07257"/>
          </g>
        </g>
      </g>
    </g>
  </g>
</svg>
