<svg xmlns="http://www.w3.org/2000/svg" xmlns:xlink="http://www.w3.org/1999/xlink" width="295" height="364" viewBox="0 0 295 364">
  <defs>
    <clipPath id="clip-path">
      <rect id="Rectángulo_338983" data-name="Rectángulo 338983" width="295" height="341" transform="translate(0 0.001)" fill="#0e494d" stroke="#707070" stroke-width="1"/>
    </clipPath>
    <clipPath id="clip-path-2">
      <rect id="Rectángulo_339946" data-name="Rectángulo 339946" width="273" height="364" transform="translate(384 11176)" fill="#fff" stroke="#707070" stroke-width="1"/>
    </clipPath>
    <clipPath id="clip-path-3">
      <rect id="Rectángulo_339945" data-name="Rectángulo 339945" width="248.847" height="679.511" fill="none"/>
    </clipPath>
  </defs>
  <g id="Grupo_960939" data-name="Grupo 960939" transform="translate(-362 -11176)">
    <g id="Grupo_983733" data-name="Grupo 983733" transform="translate(362 11176)">
      <path id="Rectángulo_338981" data-name="Rectángulo 338981" d="M21,0H189a0,0,0,0,1,0,0V343a21,21,0,0,1-21,21H21A21,21,0,0,1,0,343V21A21,21,0,0,1,21,0Z" transform="translate(106 0)" fill="#badc61"/>
      <rect id="Rectángulo_338982" data-name="Rectángulo 338982" width="171" height="330" rx="21" transform="translate(0 34)" fill="#34bc85"/>
      <g id="Enmascarar_grupo_559" data-name="Enmascarar grupo 559" transform="translate(0 22.999)" clip-path="url(#clip-path)">
        <path id="Unión_142" data-name="Unión 142" d="M192.851,98.618c-16.077-18.862-42.037-29.492-72.45-26.81C66.232,76.586,18.454,121.783,13.685,172.763S48.965,261.2,103.134,256.42c32.185-2.838,62.113-19.946,82.1-44.059,18.5,32.974,56.589,52.851,102.686,48.786,39.951-3.523,77.181-24.258,102.688-53.689,13,29.422,44.582,47.709,83.426,44.283,54.169-4.777,101.946-49.974,106.715-100.954S545.472,62.354,491.3,67.131c-25.907,2.285-50.351,13.815-69.327,30.8-11.247-46.786-55.638-77.6-111.995-72.629C261.633,29.567,217.274,59.034,192.851,98.618Z" transform="matrix(-0.809, -0.588, 0.588, -0.809, 240.946, 572.01)" fill="#0e494d"/>
      </g>
    </g>
    <g id="Enmascarar_grupo_927237" data-name="Enmascarar grupo 927237" transform="translate(-11)" clip-path="url(#clip-path-2)">
      <g id="Grupo_983737" data-name="Grupo 983737" transform="translate(401 11192.334)">
        <g id="Grupo_983736" data-name="Grupo 983736" clip-path="url(#clip-path-3)">
          <path id="Trazado_725342" data-name="Trazado 725342" d="M54.591,380.821c-.754,5.272-5.776,17.407-3.933,19.32,2.1,2.179,48.162,4.506,66.666,1.735,8.807-1.06,7.88-8.486-1.4-11.888-5.063-1.856-28.03-5.825-36.848-9.406q-3.128-9.544-6.254-19.087a4.648,4.648,0,0,0-1.249-2.256,4.672,4.672,0,0,0-3.134-.67,112.461,112.461,0,0,0-12.09.611c-2.1,11.206-.14,10.318-1.757,21.641" transform="translate(35.238 251.419)" fill="#090d46"/>
          <path id="Trazado_725343" data-name="Trazado 725343" d="M13.447,410.3c-.709,5.044-.349,11.039,3.79,14.009,2.737,1.963,26.26,3.246,30.339-2.4,4.022-5.568,2.6-11.651,2.1-15.149-2.424-16.792-2.15-28.384-4.573-45.178-5.944.192-11.415.665-17.325,0-.7,5.366-1.084,9.935-1.965,15.324-1,6.107-11.582,27.831-12.364,33.4" transform="translate(9.226 253.534)" fill="#090d46"/>
          <path id="Trazado_725344" data-name="Trazado 725344" d="M36.227,298.286c-5.827,2.239,56.155-2.465,70.615-6.718s-21.979-87.354-21.979-87.354Z" transform="translate(25.132 143.193)" fill="#d3d0c9"/>
          <path id="Trazado_725345" data-name="Trazado 725345" d="M22.194,368.167C21.951,394.379,17.143,470.3,20.647,501.2c11.017,6.444,25.407.771,25.407.771,9.528-47.849,10.325-80.385,19.851-128.234,5.241-26.314,14.6-117.571,19.4-140.515,2.32.561,4.032-.561,6.352,0,1.123,43.768-3.37,77.13-6.043,117.622-3.4,51.446-6.706,77.035-8.686,148.191,13.194,3.918,20.731,2.166,24.155-1.237,10.564-32.018,23.757-112.238,29.01-150.975,8.021-59.162,15.539-109.742,4.823-168.481-17.864,6.73-94.765.3-113.565.088-3.447,17.022-2.121,36.652-3.442,54.111-1.764,23.334,4.282,89.244,4.282,135.627" transform="translate(12.333 125.05)" fill="#4639b9"/>
          <path id="Trazado_725346" data-name="Trazado 725346" d="M105.723,83.891l33.092,81.291c2.385,5.859,4.772,11.723,6.754,17.731,2.208,6.694-18.861,18.791-26.53,12.395-15.741-13.13-24.128-35.6-36.033-52.291s-21.481-35.98-21.867-56.474c-.061-3.239.138-6.6,1.618-9.481,9.009-17.555,37.224-7.281,42.967,6.829" transform="translate(42.863 47.532)" fill="#d3d0c9"/>
          <path id="Trazado_725347" data-name="Trazado 725347" d="M127.835,115.989c-5.129,9.789,3.834,14.424,11.471,7.831,6.323-5.457,8.656-11.84,7.859-18.643a26.044,26.044,0,0,1-19.331,10.813" transform="translate(88.577 73.748)" fill="#e89e85"/>
          <path id="Trazado_725348" data-name="Trazado 725348" d="M157.653,143.091c2.683-3.637,9.615-16.158,9.513-20.676a35.94,35.94,0,0,1-9.831-4.915c-4.112-3.166-8.78-5.893-11.583-10.26-1.164,7.933-3.88,16.561-10.864,20.5-7.051,3.981-16.017,1.819-23.737,4.26-18.9,5.976-27.285,37.419-3.43,41.558,22.187,3.848,38.789-15.363,49.932-30.47" transform="translate(65.283 75.195)" fill="#d3d0c9"/>
          <path id="Trazado_725349" data-name="Trazado 725349" d="M95.008,142.1a41.38,41.38,0,0,1,.549-7.54c.527-2.424,1.931-4.389,3.248-6.441.359-.558-.386-1.38-.953-.953-4.784,3.607-4.806,9.479-4.28,14.933a.718.718,0,0,0,1.436,0" transform="translate(65.453 89.083)" fill="#e2dfd8"/>
          <path id="Trazado_725350" data-name="Trazado 725350" d="M99.248,140.873c-1.538-4.236-.053-7.533,1.567-11.423a.834.834,0,0,0-1.215-.934c-3.914,2.975-3.738,8.911-1.7,12.927.374.738,1.64.223,1.352-.57" transform="translate(67.651 90.025)" fill="#e2dfd8"/>
          <path id="Trazado_725351" data-name="Trazado 725351" d="M75.941,59.875,13.2,93.906s25.822,71.438,24.05,101.615,0,46.885,0,46.885l94.527-10.4s2.081-49.311,1.152-76.846-3.712-74.026-3.712-74.026Z" transform="translate(9.258 41.984)" fill="#6861e2"/>
          <path id="Trazado_725352" data-name="Trazado 725352" d="M37.137,68.825c.4,4.6-.187,7.541-1.264,9.823-3.775,7.989,30.584,25.2,39.069,22.74,4.127-1.2,10.163-11.747,10-16.041-6.956.767-7.247-3.678-10.738-9.744-2.018-3.508-2.8-7.569-3.554-11.544q-1.83-9.666-3.659-19.329A3.89,3.89,0,0,0,66,42.434a3.87,3.87,0,0,0-2.259-.7c-5.41-.5-30.036-6.744-28.89-1.062,1.708,8.46,1.876,23.417,2.286,28.156" transform="translate(24.41 26.852)" fill="#d18774"/>
          <path id="Trazado_725353" data-name="Trazado 725353" d="M39.32,81.275S53.236,100.18,74.39,92.819s8.087-25.458,8.087-25.458l-9.8-7.683s6.267,9.784.84,26.715c0,0-28.629-20.1-34.2-15.508s0,10.389,0,10.389" transform="translate(25.836 41.846)" fill="#6861e2"/>
          <path id="Trazado_725354" data-name="Trazado 725354" d="M12.393,85.659c-2.744,2.506-5.432,5.229-6.909,8.64-1.608,3.717-1.631,7.912-1.38,11.954a98.458,98.458,0,0,0,7.216,31.283c3.741,9.078,8.838,17.587,11.988,26.886,4.224,12.471,4.782,25.865,4.746,39.034C27.95,242.407,13.676,362.979,3.987,400.7c23.994,7.958,61.561,7.068,86.526,3.093.463-21.925,5.662-32.261,9.149-53.914,2.195-13.633,13.329-163.576,3.624-209.158-.585-2.747-19.363-44.25-28.4-61.6-5.89-11.315-8.1-22.592-19.4-17.339C44.777,66.771,21.106,77.7,12.393,85.659" transform="translate(2.795 42.394)" fill="#e2dfd8"/>
          <path id="Trazado_725355" data-name="Trazado 725355" d="M63.785,62.723c10.357,1.475,30.376,9.229,35.15,17.366,3.042,5.187,3.877,11.332,4.653,17.294,4.888,37.584.25,75.352,2.97,113.16,2.533,35.227,18.39,146.891,15.386,182.078C102,396.59,87.7,395.768,67.749,399.737c.216-11.874-5.326-19.132-6.63-51.441-1.272-31.564-.745-91.6-1.22-103.187-1.672-40.915-1.79-57.226,5.231-98.973,4.746-28.224-1-57.15-1.346-83.413" transform="translate(41.337 43.981)" fill="#e2dfd8"/>
          <path id="Trazado_725356" data-name="Trazado 725356" d="M66.841,133.917c-.242,25.873-.56,51.762-1.409,77.624-.844,25.768-4.017,51.765-4.037,77.51,0,1.8,2.926,2.326,3.246.439,4.231-24.836,3.695-51.3,4.486-76.429.83-26.379,1.356-52.776-.024-79.143a1.132,1.132,0,0,0-2.263,0" transform="translate(43.049 93.135)" fill="#d3d0c9"/>
          <path id="Trazado_725357" data-name="Trazado 725357" d="M28.861,199.593c5.553.112,11.105.245,16.658.337,4.819.08,9.95.747,14.6-.577a1.228,1.228,0,0,0,0-2.349c-4.619-1.313-9.821-.657-14.6-.577-5.553.1-11.105.226-16.658.339a1.415,1.415,0,0,0,0,2.827" transform="translate(19.28 137.568)" fill="#d3d0c9"/>
          <path id="Trazado_725358" data-name="Trazado 725358" d="M77.244,197.492a64.9,64.9,0,0,0,16.937.189c1.621-.219,1.621-3.054,0-3.271a64.9,64.9,0,0,0-16.937.189c-1.432.192-1.434,2.7,0,2.894" transform="translate(53.409 135.989)" fill="#d3d0c9"/>
          <path id="Trazado_725359" data-name="Trazado 725359" d="M38,108.831a45.68,45.68,0,0,0,10.529-1.854c2.678-.837,6.3-1.679,7.817-4.18a1.254,1.254,0,0,0-1.07-1.866c-2.693-.174-5.18,1.744-7.7,2.6A48.192,48.192,0,0,1,38,105.742c-1.919.238-2.023,3.229,0,3.089" transform="translate(25.612 70.764)" fill="#d3d0c9"/>
          <path id="Trazado_725360" data-name="Trazado 725360" d="M59.9,103.779c3.389-8.091.235-11.464,5.6-18.409L77.681,96.522a87.256,87.256,0,0,1,3.312-11.927c4.51,4.013,6.2,8.145,10.131,12.732,2.12-7.47,3.188-13.708,0-22.252-3.287-8.8-8.537-11.361-15.154-11.7a52.566,52.566,0,0,1-2.63,23.692C66.416,82.856,47.679,62.9,38.813,54.4c0,0-6.664,7.771-6.664,13.317,0,6.689,21.927,29.613,27.753,36.065" transform="translate(22.543 38.143)" fill="#4639b9"/>
          <path id="Trazado_725361" data-name="Trazado 725361" d="M129.785,65.818,98.433,166.7l2.736,2.145,43.161-4.823,35.5-99.824Z" transform="translate(69.02 45.012)" fill="#ea9639"/>
          <path id="Trazado_725362" data-name="Trazado 725362" d="M132.06,65.818l-32.02,103.022,46.563-4.823L178.7,64.194Z" transform="translate(70.147 45.012)" fill="#febc53"/>
          <path id="Trazado_725363" data-name="Trazado 725363" d="M153,115.7a29.69,29.69,0,0,0-3.134-9.87c-2.2-4.367-4.546-6.558-7.211-10.658-1.32-2.028-4.107-6.279-5.878-4.632-.907,3.875,4.069,9.438,5.878,12.985-4.1-2.317-15.687-8.586-17.083-7.689-1.23,2.565,1.54,4.321,3.948,5.833s9.746,6.791,5.633,6.779c-5.719-1.42-17.291-7.475-17.158-4.263,2.115,3.724,6.359,5.056,9.9,7.461,2.7,1.832,7.536,4.054,7.642,5.861-2.965,1.062-3.091.475-6.213.049s-8.227-.794-6.371,1.654c.847,1.118,13.706,6.361,14.933,6.628C149.285,129.9,151.335,122.087,153,115.7" transform="translate(82.738 63.225)" fill="#e89e85"/>
          <path id="Trazado_725364" data-name="Trazado 725364" d="M127.169,64.907l-2.331,8.428,17.492-.953,2.5-8.038-5.134.187s.922-4.772-2.79-4.617-4.52,4.617-4.52,4.617Z" transform="translate(87.535 42.008)" fill="#d3d0c9"/>
          <path id="Trazado_725365" data-name="Trazado 725365" d="M42.1,70.047A41.317,41.317,0,0,0,59.972,98.223c7.742,4.957,18.42,6.419,25.987,1.2a23.908,23.908,0,0,0,7.267-8.613c3.562-6.7,4.891-14.338,5.959-21.852,1.317-9.244-1.778-14.213.388-25.686,1.734-9.176,4.119-17.946-2.468-24.565C92.543,14.12,78.741,8.225,72.784,5.711c-6.3-2.662-13.32-4.726-19.916-2.918-5.624,1.545-10.124,5.684-14.212,9.843-19.007,19.341-.031,33.724,3.445,57.41" transform="translate(21.263 1.48)" fill="#e89e85"/>
          <path id="Trazado_725366" data-name="Trazado 725366" d="M65.427,36.075c17.907,1.574,18.247-1.924,26.972-3.29,10.563-1.655,18.859,3.959,20.85-6.546-6.844-4.095-8.125-10.224-15.629-17.007C90.416,2.72,80.1-.987,59.8.23c-14.168.849-27.791,6.517-23.893,20.162-4.609-.282-9.556,5.272-9.61,10.928-.117,11.93,4.331,37.952,12.79,37.29,11.847-.929,8.644-26.906,7.256-35.825a123.686,123.686,0,0,0,19.084,3.29" transform="translate(18.438 0)" fill="#090d46"/>
          <path id="Trazado_725367" data-name="Trazado 725367" d="M33.734,30.851c-4.384,2.851-4.386,8.583-3.1,13.322s6.187,8.945,11.093,9.151c6.529.272,5.689-7.438,5.275-11.936-1.131-12.3-8.208-13.824-13.264-10.537" transform="translate(20.958 20.58)" fill="#e89e85"/>
          <path id="Trazado_725368" data-name="Trazado 725368" d="M55.652,36.768c0,2.543-1.2,4.605-2.691,4.605s-2.69-2.062-2.69-4.605,1.2-4.607,2.69-4.607,2.691,2.064,2.691,4.607" transform="translate(35.249 22.551)" fill="#090d46"/>
          <path id="Trazado_725369" data-name="Trazado 725369" d="M68.456,36.281c0,2.543-1.2,4.605-2.69,4.605s-2.691-2.062-2.691-4.605,1.2-4.605,2.691-4.605,2.69,2.062,2.69,4.605" transform="translate(44.227 22.211)" fill="#090d46"/>
          <path id="Trazado_725370" data-name="Trazado 725370" d="M59.5,32.32c-1.022,3.972-2.885,10.838.316,14.334,1.159,1.266,3.389,1.579,4.292,3.045,2.081,3.379-3.484,3.618-5.534,3.834a1.655,1.655,0,0,0,0,3.307c3.945.131,9.865-1.586,9.549-6.613A6.3,6.3,0,0,0,65.4,45.817c-1.955-1.494-2.992-1.432-3.457-4.382-.429-2.717.267-5.981.51-8.715.151-1.7-2.533-2.013-2.948-.4" transform="translate(39.958 21.921)" fill="#d18774"/>
          <path id="Trazado_725371" data-name="Trazado 725371" d="M51.845,50.932A13.705,13.705,0,0,0,62,55.277c3.692-.182,8.256-2.433,9.53-6.039a.935.935,0,0,0-1.143-1.145c-3.161,1.252-5.134,4.166-8.826,4.294-3.2.111-5.747-1.592-8.31-3.273-1.116-.733-2.309.9-1.4,1.819" transform="translate(36.128 33.687)" fill="#d18774"/>
          <path id="Trazado_725372" data-name="Trazado 725372" d="M56.213,55.485a23.014,23.014,0,0,0,5.058.31.722.722,0,0,0,.191-1.41,22.922,22.922,0,0,0-4.971-.951c-1.159-.122-1.443,1.883-.277,2.052" transform="translate(38.893 37.463)" fill="#d18774"/>
          <path id="Trazado_725373" data-name="Trazado 725373" d="M40.5,32.737a4.733,4.733,0,0,0-6.121-.515c-2.295,1.466-3.089,4.372-2.909,6.961.206,2.948,2.268,10.01,6.3,9.037a.806.806,0,0,0,.478-1.176c-.715-.939-1.751-1.446-2.457-2.412A10.472,10.472,0,0,1,34.3,41.174c-.842-3.134.277-10.046,5.071-6.978.905.58,1.849-.713,1.126-1.46" transform="translate(22.047 21.977)" fill="#d18774"/>
          <path id="Trazado_725374" data-name="Trazado 725374" d="M47.074,30.185a20.463,20.463,0,0,1,7.577-2.36c2.273-.213,4.495.323,6.754.206,1.255-.066,1.938-1.863.68-2.514-4.957-2.567-11.907-.322-16.219,2.6a1.2,1.2,0,0,0,1.208,2.067" transform="translate(31.769 17.105)" fill="#090d46"/>
          <path id="Trazado_725375" data-name="Trazado 725375" d="M63.884,28.878c1.841-.871,3.87-1.944,5.966-1.876,1.9.063,3.154,1.456,5.08,1.094a1.322,1.322,0,0,0,.912-1.606c-.628-2.412-3.758-3.14-5.992-3.077-2.71.075-5.182,1.6-7.438,2.948a1.459,1.459,0,0,0,1.472,2.518" transform="translate(43.258 16.414)" fill="#090d46"/>
          <path id="Trazado_725376" data-name="Trazado 725376" d="M48.467,42.77c1.827.376,4,.464,5.4-.985A1.057,1.057,0,0,0,53.127,40c-1.47-.034-2.863.5-4.343.429a1.2,1.2,0,0,0-.316,2.339" transform="translate(33.389 28.048)" fill="#d18774"/>
          <path id="Trazado_725377" data-name="Trazado 725377" d="M66.671,42.194a8.512,8.512,0,0,0,1.613,0,1.529,1.529,0,0,0,0-3.057,2.412,2.412,0,0,0-2.479,1.528,1.242,1.242,0,0,0,.866,1.526" transform="translate(46.102 27.439)" fill="#d18774"/>
          <path id="Trazado_725378" data-name="Trazado 725378" d="M39.437,35.368c-2.28-.811-4.5.208-4.5,2.817a5.469,5.469,0,0,0,4.028,5.4.771.771,0,0,0,.59-1.4,6.47,6.47,0,0,1-2.29-3.564c-.27-1.368.383-1.642,1.63-1.266,1.279.388,1.778-1.543.546-1.982" transform="translate(24.494 24.609)" fill="#d18774"/>
          <path id="Trazado_725379" data-name="Trazado 725379" d="M44.076,13.332c12.329,5.837,25.353.384,38.335-.23a.653.653,0,0,0,0-1.3c-12.883-.682-25.465,6.019-37.807.633-.606-.264-1.141.611-.527.9" transform="translate(30.715 8.238)" fill="#1c2872"/>
          <path id="Trazado_725380" data-name="Trazado 725380" d="M40.972,9.072c10.917,4.772,21.466,1.528,32.819.213a.893.893,0,0,0,0-1.785c-11.238-.9-20.935,4.379-32.266.26-.755-.276-1.3.985-.553,1.312" transform="translate(28.479 5.185)" fill="#1c2872"/>
          <path id="Trazado_725381" data-name="Trazado 725381" d="M42.98,4.988c6.308,2.759,14.6,3.448,20.709-.267a.722.722,0,0,0-.555-1.313c-6.912,1.822-12.711,2.809-19.718.546-.6-.192-1.029.774-.436,1.034" transform="translate(29.938 2.371)" fill="#1c2872"/>
          <path id="Trazado_725382" data-name="Trazado 725382" d="M31.949,16.53c-3.87,3.428-3.886,9.794-1.107,13.917a.7.7,0,0,0,1.3-.35c.071-4.26-2.281-8.639,1.1-12.274a.914.914,0,0,0-1.291-1.293" transform="translate(20.253 11.415)" fill="#1c2872"/>
          <path id="Trazado_725383" data-name="Trazado 725383" d="M33.7,18.141C32.432,22.07,32.1,28.2,35.438,31.275a.877.877,0,0,0,1.455-.845c-.4-1.815-1.383-3.419-1.759-5.265a16.607,16.607,0,0,1-.044-6.643.719.719,0,0,0-1.385-.381" transform="translate(22.999 12.363)" fill="#1c2872"/>
          <path id="Trazado_725384" data-name="Trazado 725384" d="M35.54,15.413A15.644,15.644,0,0,1,35,11.487a18.438,18.438,0,0,0,.083-3.208.477.477,0,0,0-.863-.112c-1.138,2.062-.335,5.389.328,7.521a.516.516,0,0,0,.993-.274" transform="translate(23.593 5.568)" fill="#1c2872"/>
          <path id="Trazado_725385" data-name="Trazado 725385" d="M36.564,15.685c.677-1.722,1.468-3.431,1.987-5.209a.351.351,0,0,0-.638-.269A16.342,16.342,0,0,0,35.877,15.5a.357.357,0,0,0,.687.189" transform="translate(25.148 7.045)" fill="#1c2872"/>
          <path id="Trazado_725386" data-name="Trazado 725386" d="M38.46,17.725a12.3,12.3,0,0,1,1.812-1.868,24.037,24.037,0,0,0,1.956-1.451c.352-.339-.027-.794-.43-.738-1.74.238-3.307,2-4.124,3.452-.267.475.413,1.06.786.606" transform="translate(26.374 9.58)" fill="#1c2872"/>
          <rect id="Rectángulo_339944" data-name="Rectángulo 339944" width="38.672" height="6.265" transform="matrix(0.272, -0.962, 0.962, 0.272, 123.329, 166.22)" fill="#090d46"/>
          <path id="Trazado_725387" data-name="Trazado 725387" d="M84.711,80.628l-6.038-1.706,2.7-3.751,2.678-3.738.323,4.586Z" transform="translate(55.165 50.088)" fill="#febc53"/>
          <path id="Trazado_725388" data-name="Trazado 725388" d="M74.854,102.427l-.5-.143a2.871,2.871,0,0,1-1.982-3.544l.293-1.033,6.029,1.7-.293,1.033a2.87,2.87,0,0,1-3.544,1.982" transform="translate(50.668 68.512)" fill="#febc53"/>
          <path id="Trazado_725389" data-name="Trazado 725389" d="M83.262,76.02l-3-.849,2.678-3.738Z" transform="translate(56.278 50.088)" fill="#090d46"/>
          <path id="Trazado_725390" data-name="Trazado 725390" d="M93.5,106.582c1.063-1.985,14.4-3.343,11.631-6.32-.607-.657-11.959.293-11.1-.037,10.658-4.073,15-9.863,10.032-8.574-4.372,1.764-8.814,3.162-13.184,4.927,1.97-2.474,4.132-3.11,6.379-4.927s8.579-7.007,5.138-7.317C98.208,86.2,91.581,89.851,88.238,93c.453-3.886,12.318-11.97,6.793-11.97-4.095,2.9-8.207,5.781-12.283,8.71a12.767,12.767,0,0,0-4.36,6.84c-.762,4.728.584,18.533-1.655,22.871-2.271,4.4-9.312,11.381-13.979,12.873.684,14.775,4.864,17.053,16.871,11.51,7.553-3.486,14.863-12.291,15.913-20.661.3-2.409-2.366-15.974-2.036-16.588" transform="translate(44.002 56.815)" fill="#e89e85"/>
          <path id="Trazado_725391" data-name="Trazado 725391" d="M8.54,135.644c8.853,19.65,19.074,47.95,32.838,64.535,5.323,6.415,8.87,9.515,17.2,9.715,9.384.226,20.22-10.245,27.187-16.536,18.693-16.877,29-27.581,45.837-41.239A170.447,170.447,0,0,1,115.677,125.9a486.32,486.32,0,0,1-54.525,34.789c-2.95-18.14-30.557-91.47-41.189-87.37C9.931,77.186,3.418,82.844.651,93.413c-1.7,6.5-.4,23.835,7.888,42.23" transform="translate(0 51.293)" fill="#efebe4"/>
          <path id="Trazado_725392" data-name="Trazado 725392" d="M74.71,121.3a3.356,3.356,0,1,1-3.356-3.356A3.356,3.356,0,0,1,74.71,121.3" transform="translate(47.679 82.702)" fill="#d3d0c9"/>
          <path id="Trazado_725393" data-name="Trazado 725393" d="M67.495,126.3a3.356,3.356,0,1,1-3.356-3.356,3.356,3.356,0,0,1,3.356,3.356" transform="translate(42.62 86.209)" fill="#d3d0c9"/>
          <path id="Trazado_725394" data-name="Trazado 725394" d="M37.4,126.427c-4.7,6.456-9.6,16.359-7.8,24.563.376,1.711,2.622,1.378,3.145,0,1.364-3.576,1.618-7.538,2.718-11.219a54.256,54.256,0,0,1,5.127-11.478c1.213-2.106-1.82-3.753-3.193-1.866" transform="translate(20.488 88.069)" fill="#e2dfd8"/>
          <path id="Trazado_725395" data-name="Trazado 725395" d="M37.606,128.078c-2.812,8.761-3.464,19.642,1.682,27.666a1.333,1.333,0,0,0,2.426-1.022c-2.167-9-4.069-16.712-1.633-25.962a1.285,1.285,0,0,0-2.475-.682" transform="translate(24.857 89.176)" fill="#e2dfd8"/>
        </g>
      </g>
    </g>
  </g>
</svg>
